<svg xmlns="http://www.w3.org/2000/svg" width="1024" height="1024"><path fill-rule="evenodd" d="M504.3 34.8c-3.96 2.12-7.7 6.55-17.92 21.2-20.46 29.36-34.74 57.6-36.92 73.03a49.38 49.38 0 0 1-1.13 5.97c-.82 2.44-.42 15.11.65 20.3.54 2.65.88 5.13.76 5.5-.12.39 1.95 5.14 4.6 10.56 8.33 17.06 22.6 28.52 39.91 32.04l6.25 1.27.3 6.16.3 6.17h-11.37c-7.82 0-12.85.5-16.09 1.6-6.74 2.3-14.72 9.96-18 17.27l-2.68 5.96.03 82.08L453 406l-64.25.06c-76.27.06-96.24.8-106.26 3.95a87.58 87.58 0 0 0-26.94 13.69c-3.88 2.91-7.27 5.4-7.55 5.55-1.23.6-12.23 15.04-14.83 19.45-12.55 21.27-14.24 45.67-4.58 65.7l2.4 4.97v91.33l-7.75.6c-42.96 3.33-81.84 47.57-78.9 89.77.7 9.9 3.57 20.18 7.74 27.66l2.91 5.24v158.8l-15.78.4c-15.44.38-15.91.46-21.25 3.47-12.07 6.78-15.58 18.94-10.99 38.07 6.39 26.64 21.78 44.98 43.54 51.9l7.59 2.4 352.2-.02c386.98-.02 356.12.5 369.65-6.12 4.53-2.2 9.04-5.68 14.66-11.28 6.97-6.95 8.82-9.57 13.13-18.59 6.6-13.8 8.62-21.35 8.7-32.5.04-8.06-.24-9.49-2.68-13.64a34.33 34.33 0 0 0-6-7.4c-5.93-5.01-9.1-5.77-26.02-6.25l-15.75-.45-.02-78.63-.02-78.63 4.56-9c10-19.76 9.8-41.1-.58-63.34-13.4-28.69-41.77-49.35-71.12-51.8l-7.9-.65.3-48.1.3-48.11 3.87-8.92c4.85-11.23 5.8-21.11 3.14-33.19-1.88-8.57-7.5-21.59-12.43-28.74-1.7-2.48-3.1-4.72-3.1-4.98 0-.26-3.04-3.5-6.75-7.19-11.58-11.5-23.36-18.39-38.75-22.63-7.88-2.17-9.2-2.21-88.25-2.59l-80.25-.38V324.2c0-51.06-.38-83.03-1-85.27-1.7-6.07-7.98-13.83-14.41-17.79-5.88-3.6-5.99-3.63-18.8-3.98l-12.88-.35.3-6.08.29-6.07 5.57-1.26c10.78-2.44 18.74-7.1 27.96-16.34 13.1-13.12 18.16-25.55 18.05-44.26-.08-14.17-3.63-27.76-11.24-43.04-1.58-3.16-2.52-5.76-2.1-5.77.42 0 .26-.34-.35-.75-.61-.4-4.62-6.58-8.9-13.73-13.9-23.17-28.07-42.2-33.54-45.03-3.76-1.94-9.68-1.8-13.64.32m-4.02 40.95c-28.04 42.38-34.85 63.33-27.22 83.73 2.74 7.3 11.26 16.16 19.12 19.85 9.36 4.4 8.81 5.5 8.81-17.37 0-21.43.5-24.1 5.22-27.39 2.8-1.97 6.06-1.98 9.81-.04 5.42 2.8 5.97 5.32 5.97 27.43 0 16.1.26 20.05 1.34 20.05 3.6 0 13.93-6.52 18.98-11.98 12.88-13.91 13.13-35.22.7-60-6.4-12.72-26.3-45.07-30.96-50.28-.38-.42-5.67 6.78-11.77 16m-18.9 163.22c-1.16.48-3.08 2.1-4.25 3.6l-2.14 2.71V406h73.03l-.26-80.98-.27-80.97-2.77-2.78-2.77-2.77-29.23-.2c-16.08-.12-30.18.18-31.34.66M289.5 430.87c-15.71 4.52-31.8 17.84-38.87 32.18-5.06 10.27-7.26 21.45-5.78 29.41 3.28 17.64 17.6 31.8 36.02 35.62 3.02.62 9.8.96 15.06.74 8.34-.35 10.42-.83 16.18-3.68 7.56-3.75 13.22-9.12 19.8-18.79 5.55-8.17 12.89-14.34 20.75-17.45 8.31-3.3 22.36-3.35 30.84-.1a41.22 41.22 0 0 1 19.77 15.32c9.24 13.26 12.14 16.28 19.01 19.8 5.46 2.79 8.12 3.5 14.54 3.86 15.73.91 24.73-3.94 35.82-19.35 11.1-15.41 20.16-21.08 35.41-22.16 16.1-1.13 31.72 6.9 40.52 20.85 4.84 7.66 12.1 14.45 18.7 17.5 5.48 2.53 7.38 2.88 15.73 2.88 15.39 0 21.56-4.05 35.77-23.47 10.75-14.7 28.24-21.04 45.55-16.53 12.13 3.15 20.15 8.93 27.14 19.55 8.84 13.42 16.68 18.95 30.1 21.25 8.13 1.4 16.77.05 25-3.9 7.66-3.68 22.82-18.88 27.4-27.49 3.1-5.8 3.21-6.42 2.88-15.72-.31-8.9-.66-10.32-4.2-17.4-8.4-16.86-25-30.03-42.44-33.68-3.8-.8-66.3-1.09-220-1.04-200.28.07-215.1.19-220.7 1.8m69 78.94c-4.07 1.91-6.7 4.64-15.62 16.19-13.18 17.09-31.43 25.17-53.36 23.64-13.13-.92-22.36-3.6-35.77-10.42-.41-.22-.75 15.63-.75 35.2V610h517v-38c0-20.9-.22-38-.5-38-.26 0-2.62 1.64-5.24 3.65-9.86 7.56-22.22 11.32-37.26 11.32-21.6 0-38.03-8.3-49.71-25.11-9.14-13.17-13.12-15.86-23.4-15.86-9.43 0-14.47 3.39-23.24 15.66-5.25 7.35-14.85 15.9-21.73 19.38-19.82 10-46.55 7.13-63.28-6.79-2.67-2.22-7.32-7.35-10.34-11.4C524.35 510.2 521.2 508 511 508c-9.47 0-14.53 3.3-21.9 14.25-7.33 10.9-18.73 19.89-30.21 23.83-8.69 2.98-23.97 3.69-33.15 1.53-14.56-3.42-24.8-10.63-34.61-24.36-8.83-12.35-12.1-14.63-21.54-15.02-5.31-.22-8.1.18-11.09 1.58m-139 123.83c-3.85.81-10.78 3.3-15.41 5.53-6.78 3.26-10.09 5.72-17.07 12.69-9.5 9.47-13.67 16.07-17.63 27.88-2.25 6.7-2.55 9.03-2.21 17.25.32 8.06.85 10.5 3.46 16.01 4.6 9.7 10.07 15.27 19.69 20 18.08 8.92 37.58 7.58 52.85-3.63 3.2-2.36 7.03-6.86 11.24-13.25 7.72-11.7 13.54-17.27 22.4-21.42 5.59-2.62 8.18-3.2 15.87-3.53 11.88-.52 20.58 1.95 28.94 8.22 5.67 4.25 7.58 6.61 16.66 20.59 5.07 7.8 10.92 12.44 18.45 14.63 7.07 2.06 17.04 1.47 23.5-1.39 6.24-2.76 13.96-10.13 18.47-17.63 5.68-9.45 8.2-12.4 14.15-16.67 14.03-10.06 35.55-10.63 50.25-1.35 6.01 3.8 11.4 9.83 16.91 18.97 8.75 14.49 15.93 18.95 30.48 18.96 7.84 0 9.74-.36 14.7-2.8 6.37-3.13 13.11-10 17.75-18.1 9-15.74 22.31-23.56 40.12-23.59 17.08-.02 30.65 8.2 39.7 24.08 4.84 8.47 10.64 14.47 17.02 17.6 4.98 2.45 6.86 2.8 14.71 2.8 7.74 0 9.77-.38 14.52-2.71 6.92-3.4 10.55-7.13 18.35-18.91 11.17-16.87 23.45-23.51 41.94-22.7 15.92.7 26.62 7.39 36.47 22.8 3 4.69 7.09 10.26 9.08 12.37 7.58 8 23.5 13.4 36.2 12.26 28.16-2.5 47.87-24.74 44-49.65-3.8-24.5-21.44-44.83-46.56-53.64l-8-2.81-287-.17c-250.29-.15-287.9.01-294 1.3m65.52 80.45c-6.12 2.77-7.3 3.99-14.62 15.08-7.25 10.98-13.87 17.26-23.58 22.36-17.51 9.2-41.18 10-62.19 2.07-3.78-1.42-7.04-2.59-7.25-2.59-.2 0-.38 10.13-.38 22.5V796h2.34c6.61 0 21.08 7 33.85 16.4 11.53 8.46 18 10.69 32.84 11.33 18.36.8 27.27-2.03 42.85-13.58 16.88-12.51 26.8-15.6 50.12-15.63 14.62-.02 17.29.24 23.41 2.3 9.74 3.26 14.78 6.01 25.09 13.7C401.36 820.86 410.1 824 425 824c14.96 0 23.6-3.14 37.73-13.73 15.72-11.78 28.86-16.27 47.65-16.27 19.15 0 33.93 4.99 48.55 16.38 12.8 9.97 23.09 13.62 38.4 13.62 14.3 0 23.48-3.42 37.93-14.13 9.75-7.23 14.83-9.9 24.76-13.02 6.55-2.06 9.48-2.35 23.48-2.35 14.06 0 16.84.28 22.9 2.31a89.23 89.23 0 0 1 26 13.67c13.63 10.18 23.34 13.52 39.28 13.52 15.98 0 26.2-3.59 39.82-13.98 8.6-6.57 19.36-11.8 27.42-13.32l6.08-1.16v-22.88c0-17.92-.27-22.75-1.25-22.32-20 8.8-37.4 10.94-54.34 6.66-17.49-4.42-28.64-12.53-38.74-28.18-3.02-4.7-7.22-9.95-9.33-11.7-6.88-5.67-16.37-6.71-24.9-2.74-5.27 2.45-7.42 4.81-15.83 17.4-5.43 8.12-11.45 13.86-19.02 18.12-9.2 5.17-15.04 6.58-27.09 6.55-13.23-.04-20.5-2.19-30.67-9.06-7.26-4.9-11.11-9.13-18.06-19.89-7.61-11.8-13.15-15.52-22.99-15.48-5.39.02-12.56 2.6-16.15 5.78-1.04.94-4.28 5.37-7.18 9.85-6.95 10.73-11.19 15.3-18.73 20.18-16.84 10.9-38.88 12.04-56.1 2.9-7.94-4.22-17.26-13.47-22.37-22.23-7.02-12.03-13.4-16.5-23.54-16.5-3.85 0-6.87.77-10.78 2.75-4.7 2.38-6.3 4.04-11.93 12.46-3.57 5.34-8.07 11.32-9.99 13.29-24.18 24.86-66.66 20.77-84.68-8.15-6.5-10.44-13.75-17.83-18.83-19.24-6.02-1.66-12.48-1.3-17.48.97m40.36 101.41c-8.31 1.8-15.47 5.35-25.47 12.6-4.63 3.35-10.9 7.36-13.95 8.9-21.6 10.99-51.78 11.1-73.46.29-2.75-1.37-8.72-5.18-13.26-8.46-6.77-4.88-19.52-11.82-21.72-11.82-.28 0-.52 17.33-.52 38.5V894h668v-77.04l-2.75.67c-5.81 1.41-14.03 5.69-20.75 10.8-15 11.44-27.06 15.61-47 16.3-11.86.41-15.33.17-22.7-1.6-11.54-2.75-19.4-6.47-30.3-14.34-15.75-11.38-23.3-14.2-38-14.23-12.4-.02-21.66 2.7-30.75 9.07-21.59 15.1-28.23 18.34-42.05 20.48-9.04 1.4-28.4.61-35.88-1.47-8.96-2.49-18.29-7.33-27.15-14.1-12.96-9.88-21.16-13.3-34.17-14.2-14.38-1-25.74 3.04-40.96 14.57-15.29 11.57-25.34 15.09-45.23 15.83-21.25.79-34.57-3.47-52-16.62-9.62-7.26-16.59-10.65-25.98-12.64a54.87 54.87 0 0 0-23.95.01M127 918.54c0 5.85 3.32 18.46 6.68 25.38 4.1 8.45 10.14 14.9 17.73 18.9l5.09 2.68h709l5.34-2.96c12.88-7.13 21.28-21.65 23.69-40.91l.7-5.63H127v2.54"/><path fill="#fb7541" fill-rule="evenodd" d="M358.5 509.81c-4.07 1.91-6.7 4.64-15.62 16.19-13.18 17.09-31.43 25.17-53.36 23.64-13.13-.92-22.36-3.6-35.77-10.42-.41-.22-.75 15.63-.75 35.2V610h517v-38c0-20.9-.22-38-.5-38-.26 0-2.62 1.64-5.24 3.65-9.86 7.56-22.22 11.32-37.26 11.32-21.6 0-38.03-8.3-49.71-25.11-9.14-13.17-13.12-15.86-23.4-15.86-9.43 0-14.47 3.39-23.24 15.66-5.25 7.35-14.85 15.9-21.73 19.38-19.82 10-46.55 7.13-63.28-6.79-2.67-2.22-7.32-7.35-10.34-11.4C524.35 510.2 521.2 508 511 508c-9.47 0-14.53 3.3-21.9 14.25-7.33 10.9-18.73 19.89-30.21 23.83-8.69 2.98-23.97 3.69-33.15 1.53-14.56-3.42-24.8-10.63-34.61-24.36-8.83-12.35-12.1-14.63-21.54-15.02-5.31-.22-8.1.18-11.09 1.58M325.37 815.5c-8.3 1.8-15.46 5.35-25.46 12.6-4.63 3.35-10.9 7.36-13.95 8.9-21.6 10.99-51.78 11.1-73.46.29-2.75-1.37-8.72-5.18-13.26-8.46-6.77-4.88-19.52-11.82-21.72-11.82-.28 0-.52 17.33-.52 38.5V894h668v-77.04l-2.75.67c-5.81 1.41-14.03 5.69-20.75 10.8-15 11.44-27.06 15.61-47 16.3-11.86.41-15.33.17-22.7-1.6-11.54-2.75-19.4-6.47-30.3-14.34-15.75-11.38-23.3-14.2-38-14.23-12.4-.02-21.66 2.7-30.75 9.07-21.59 15.1-28.23 18.34-42.05 20.48-9.04 1.4-28.4.61-35.88-1.47-8.96-2.49-18.29-7.33-27.15-14.1-12.96-9.88-21.16-13.3-34.17-14.2-14.38-1-25.74 3.04-40.96 14.57-15.29 11.57-25.34 15.09-45.23 15.83-21.25.79-34.57-3.47-52-16.62-9.62-7.26-16.59-10.65-25.98-12.64a54.87 54.87 0 0 0-23.95.01"/><path fill="#10a098" fill-rule="evenodd" d="M289.5 430.87c-15.71 4.52-31.8 17.84-38.87 32.18-5.06 10.27-7.26 21.45-5.78 29.41 3.28 17.64 17.6 31.8 36.02 35.62 3.02.62 9.8.96 15.06.74 8.34-.35 10.42-.83 16.18-3.68 7.56-3.75 13.22-9.12 19.8-18.79 5.55-8.17 12.89-14.34 20.75-17.45 8.31-3.3 22.36-3.35 30.84-.1a41.22 41.22 0 0 1 19.77 15.32c9.24 13.26 12.14 16.28 19.01 19.8 5.46 2.79 8.12 3.5 14.54 3.86 15.73.91 24.73-3.94 35.82-19.35 11.1-15.41 20.16-21.08 35.41-22.16 16.1-1.13 31.72 6.9 40.52 20.85 4.84 7.66 12.1 14.45 18.7 17.5 5.48 2.53 7.38 2.88 15.73 2.88 15.39 0 21.56-4.05 35.77-23.47 10.75-14.7 28.24-21.04 45.55-16.53 12.13 3.15 20.15 8.93 27.14 19.55 8.84 13.42 16.68 18.95 30.1 21.25 8.13 1.4 16.77.05 25-3.9 7.66-3.68 22.82-18.88 27.4-27.49 3.1-5.8 3.21-6.42 2.88-15.72-.31-8.9-.66-10.32-4.2-17.4-8.4-16.86-25-30.03-42.44-33.68-3.8-.8-66.3-1.09-220-1.04-200.28.07-215.1.19-220.7 1.8m-70 202.77c-3.85.81-10.78 3.3-15.41 5.53-6.78 3.26-10.09 5.72-17.07 12.69-9.5 9.47-13.67 16.07-17.63 27.88-2.25 6.7-2.55 9.03-2.21 17.25.32 8.06.85 10.5 3.46 16.01 4.6 9.7 10.07 15.27 19.69 20 18.08 8.92 37.58 7.58 52.85-3.63 3.2-2.36 7.03-6.86 11.24-13.25 7.72-11.7 13.54-17.27 22.4-21.42 5.59-2.62 8.18-3.2 15.87-3.53 11.88-.52 20.58 1.95 28.94 8.22 5.67 4.25 7.58 6.61 16.66 20.59 5.07 7.8 10.92 12.44 18.45 14.63 7.07 2.06 17.04 1.47 23.5-1.39 6.24-2.76 13.96-10.13 18.47-17.63 5.68-9.45 8.2-12.4 14.15-16.67 14.03-10.06 35.55-10.63 50.25-1.35 6.01 3.8 11.4 9.83 16.91 18.97 8.75 14.49 15.93 18.95 30.48 18.96 7.84 0 9.74-.36 14.7-2.8 6.37-3.13 13.11-10 17.75-18.1 9-15.74 22.31-23.56 40.12-23.59 17.08-.02 30.65 8.2 39.7 24.08 4.84 8.47 10.64 14.47 17.02 17.6 4.98 2.45 6.86 2.8 14.71 2.8 7.74 0 9.77-.38 14.52-2.71 6.92-3.4 10.55-7.13 18.35-18.91 11.17-16.87 23.45-23.51 41.94-22.7 15.92.7 26.62 7.39 36.47 22.8 3 4.69 7.09 10.26 9.08 12.37 7.58 8 23.5 13.4 36.2 12.26 28.16-2.5 47.87-24.74 44-49.65-3.8-24.5-21.44-44.83-46.56-53.64l-8-2.81-287-.17c-250.29-.15-287.9.01-294 1.3"/><path fill="#fcb2a1" fill-rule="evenodd" d="M481.39 238.96c-1.16.48-3.08 2.1-4.25 3.6l-2.14 2.71V406h73.03l-.26-80.98-.27-80.97-2.77-2.78-2.77-2.77-29.23-.2c-16.08-.12-30.18.18-31.34.66M285.02 714.08c-6.12 2.77-7.3 3.99-14.62 15.08-7.25 10.98-13.87 17.26-23.58 22.36-17.51 9.2-41.18 10-62.19 2.07-3.78-1.42-7.04-2.59-7.25-2.59-.2 0-.38 10.13-.38 22.5V796h2.34c6.61 0 21.08 7 33.85 16.4 11.53 8.46 18 10.69 32.84 11.33 18.36.8 27.27-2.03 42.85-13.58 16.88-12.51 26.8-15.6 50.12-15.63 14.62-.02 17.29.24 23.41 2.3 9.74 3.26 14.78 6.01 25.09 13.7C401.36 820.86 410.1 824 425 824c14.96 0 23.6-3.14 37.73-13.73 15.72-11.78 28.86-16.27 47.65-16.27 19.15 0 33.93 4.99 48.55 16.38 12.8 9.97 23.09 13.62 38.4 13.62 14.3 0 23.48-3.42 37.93-14.13 9.75-7.23 14.83-9.9 24.76-13.02 6.55-2.06 9.48-2.35 23.48-2.35 14.06 0 16.84.28 22.9 2.31a89.23 89.23 0 0 1 26 13.67c13.63 10.18 23.34 13.52 39.28 13.52 15.98 0 26.2-3.59 39.82-13.98 8.6-6.57 19.36-11.8 27.42-13.32l6.08-1.16v-22.88c0-17.92-.27-22.75-1.25-22.32-20 8.8-37.4 10.94-54.34 6.66-17.49-4.42-28.64-12.53-38.74-28.18-3.02-4.7-7.22-9.95-9.33-11.7-6.88-5.67-16.37-6.71-24.9-2.74-5.18 2.4-7.93 5.37-14.76 15.9-10.71 16.54-25.13 25.25-43.68 26.4-21.03 1.31-37.83-7.5-50.33-26.38-7.36-11.13-10.58-14.53-15.89-16.75-7.38-3.08-19.14-1.1-25.15 4.25-1.04.94-4.28 5.37-7.18 9.85-6.95 10.73-11.19 15.3-18.73 20.18-16.84 10.9-38.88 12.04-56.1 2.9-7.94-4.22-17.26-13.47-22.37-22.23-7.02-12.03-13.4-16.5-23.54-16.5-3.85 0-6.87.77-10.78 2.75-4.7 2.38-6.3 4.04-11.93 12.46-3.57 5.34-8.07 11.32-9.99 13.29-24.18 24.86-66.66 20.77-84.68-8.15-6.5-10.44-13.75-17.83-18.83-19.24-6.02-1.66-12.48-1.3-17.48.97"/><path fill="#e8af1e" fill-rule="evenodd" d="M500.28 75.75c-28.03 42.37-34.83 63.33-27.2 83.72 2.73 7.3 11.25 16.16 19.1 19.85 9.37 4.4 8.82 5.5 8.82-17.37 0-21.43.5-24.1 5.22-27.39 2.8-1.97 6.06-1.98 9.81-.04 5.42 2.8 5.97 5.32 5.97 27.43 0 16.1.26 20.05 1.34 20.05 3.6 0 13.93-6.52 18.98-11.98 6.95-7.51 9.68-14.95 9.68-26.4 0-17.94-6.54-32.93-30.28-69.37C516.25 65.86 511.69 59 511.57 59c-.12 0-5.2 7.54-11.3 16.75M127 918.55c0 5.84 3.32 18.45 6.68 25.37 4.1 8.45 10.14 14.9 17.73 18.9l5.09 2.68h709l5.34-2.96c12.88-7.13 21.28-21.65 23.69-40.91l.7-5.63H127v2.54"/></svg>