<svg xmlns="http://www.w3.org/2000/svg" width="1024" height="1024"><path fill="#10d9b4" fill-rule="evenodd" d="M216.978 514.703c-1.31 12.165-.882 28.04 1.048 38.797 3.497 19.5 13.534 38.311 27.324 51.211 11.564 10.817 19.951 15.529 37.15 20.87 10.396 3.228 13.824 6.009 15.42 12.511 12.496 50.904 26.132 79.898 50.67 107.737 31.513 35.754 74.075 59.968 130.152 74.045 45.149 11.333 87.423 12.811 128.223 4.48 7.248-1.479 31.075-8.061 31.797-8.783.197-.197-1.153-1.868-3-3.714-12.889-12.885-23.527-28.999-31.086-47.089l-1.554-3.72-6.311 2.927c-11.11 5.153-21.857 7.43-35.311 7.479-20.691.076-32.787-4.627-46.043-17.9-8.99-9.003-12.918-15.9-16.502-28.978-3.739-13.643-1.513-19.157 10.071-24.952 10.672-5.339 19.836-7.006 34.889-6.346 13.851.607 23.444 2.914 38.988 9.375 4.729 1.965 9.09 3.769 9.692 4.008.734.291 1.316-3.439 1.766-11.317 1.297-22.703 8.61-50.253 19.171-72.217 3.007-6.255 5.468-11.612 5.468-11.904 0-1.23-27.416.839-36.756 2.775-22.175 4.595-36.205 10.515-75.415 31.823-41.653 22.636-56.49 28.984-76.559 32.755-12.463 2.342-34.994 1.564-44.77-1.546-12.07-3.84-20.287-8.792-29.065-17.515-8.938-8.883-15.174-19.43-17.993-30.435-2.594-10.124-.761-13.058 17.058-27.302 15.097-12.068 25.674-27.842 30.951-46.156 2.854-9.903 4.859-24.824 3.948-29.379l-.596-2.978-5.481 3.3c-3.015 1.816-10.858 5.197-17.43 7.514-13.861 4.888-19.854 8.398-27.892 16.338-6.9 6.816-11.612 15.179-12.555 22.283-.889 6.703-3.608 11.052-8.078 12.92-3.048 1.274-4.201 1.302-7.639.19-5.316-1.72-7.335-4.74-9.171-13.716-4.712-23.045-16.835-34.909-50.684-49.601-12.697-5.512-23.403-11.628-28.084-16.044-2.01-1.897-3.857-3.449-4.103-3.449-.246 0-1.015 5.266-1.708 11.703M504.5 572.581c-4.4.77-12.5 2.787-18 4.48-9.971 3.071-25.564 9.722-25.429 10.847.146 1.203 17.094 15.636 22.175 18.882 6.475 4.138 17.888 9.993 22.974 11.788 3.782 1.334 3.87 1.303 20.039-6.961 8.933-4.565 20.516-9.702 25.741-11.415 12.312-4.036 25.023-7.202 28.917-7.202 3.783 0 3.824-.433.333-3.557-8.716-7.799-21.851-14.075-35.565-16.993-8.605-1.831-30.38-1.762-41.185.131m136.443 45.169c-9.55 15.055-18.855 38.116-22.377 55.455-4.191 20.636-4.468 44.592-.72 62.295 5.406 25.53 19.362 50.14 37.247 65.679l5.593 4.86 8.407-4.634c38.717-21.34 78.748-62.406 92.694-95.09 2.876-6.74 2.79-9.645-.451-15.227-15.722-27.081-53.965-57.527-87.336-69.532-7.353-2.645-27.523-8.556-29.195-8.556-.467 0-2.205 2.138-3.862 4.75m41.077 49.952c-1.914.989-4.502 3.327-5.75 5.196-5.772 8.64.771 20.509 11.22 20.351 5.324-.081 8.814-2.06 11.554-6.553 6.617-10.852-5.853-24.765-17.024-18.994m-156.876 46.804c-2.946.829-5.731 1.739-6.189 2.022-1.312.811 2.752 11.444 6.581 17.218 7.01 10.57 18.125 16.21 33.464 16.98 10.941.549 18.936-.976 30.623-5.842l7.466-3.108-.661-4.638c-.364-2.551-1.005-5.011-1.425-5.468-1.583-1.722-24.752-11.817-33.937-14.787-11.766-3.805-27.216-4.828-35.922-2.377"/><path fill="#01add5" fill-rule="evenodd" d="M496.5 187.605c-23.676 3.405-37.508 7.562-53.248 16.005-5.638 3.024-10.252 5.738-10.252 6.03 0 .292 3.262.23 7.25-.138 8.3-.766 32.436.935 44.25 3.118 21.201 3.918 44.902 11.796 66.344 22.052l11.345 5.426 5.641-4.299c7.41-5.647 29.17-27.022 29.17-28.655 0-1.765-14.478-8.344-26.5-12.042-16.529-5.084-31.608-7.272-52.5-7.62-10.175-.169-19.85-.114-21.5.123m-71.951 43.466c-10.639.941-21.549 2.993-21.549 4.053 0 .417.46 1.042 1.022 1.39 1.67 1.032 8.974 11.29 12.722 17.867 9.282 16.29 17.226 42.458 19.495 64.219l1.261 12.099 9.685-2.755c27.823-7.914 54.229-10.164 70.282-5.987 13.984 3.638 18.941 8.793 18.792 19.543-.246 17.785-13.032 36.93-31.259 46.808-21.449 11.624-45.226 11.436-72.114-.571l-5.614-2.506-2.284 5.634c-3.625 8.943-12.283 23.003-19.038 30.918-3.419 4.006-6.044 7.449-5.833 7.65.211.202 6.008 1.725 12.883 3.386 44.474 10.743 73.76 9.492 123.855-5.292 27.115-8.003 33.082-8.977 54.645-8.926 21.038.049 28.421 1.379 41.5 7.474 10.104 4.709 13.844 7.672 15.139 11.995 1.049 3.502.822 4.518-2.927 13.113-5.174 11.858-7.212 21.918-7.212 35.591 0 17.381 2.767 28.922 10.605 44.226 4.397 8.586 13.589 21 15.549 21 1.699 0 13.323-9.625 18.272-15.129 10.496-11.674 17.159-27.828 18.161-44.032.317-5.137 1.036-10.555 1.596-12.04 2.643-7.005 12.591-8.148 26.317-3.024 21.223 7.923 44.453 6.776 66.191-3.268 4.028-1.861 7.606-4.118 7.951-5.016.406-1.058-1.727-5.11-6.062-11.518-22.123-32.704-63.518-53.033-102.912-50.541-8.817.558-11.267.405-13.137-.82-1.454-.952-4.035-5.659-7.023-12.809-6.463-15.464-14.246-29.954-24.067-44.803-11.767-17.792-19.764-27.472-36.37-44.023-21.604-21.533-43.015-36.966-68.571-49.425-30.303-14.773-56.92-22.27-87-24.504-15.447-1.147-19.759-1.144-32.951.023M367 246.38c-26.453 10.649-46.451 22.936-65.873 40.472C282.645 303.538 267 326.055 267 335.966c0 10.011 19.038 31.429 45 50.627 14.116 10.438 40.647 25.432 58 32.778l6.5 2.751 6.846-7.257c15.232-16.148 24.06-34.11 29.172-59.357 5.471-27.02 1.496-57.11-10.991-83.205-8.059-16.841-17.847-30.369-21.87-30.226-1.186.042-6.882 1.979-12.657 4.303m-28.582 58.538c-1.144.491-3.264 2.299-4.71 4.017-7.313 8.691-1.567 21.398 9.675 21.398 7.809 0 12.784-4.993 12.784-12.833 0-5-1.82-8.571-5.643-11.076-2.968-1.945-9.259-2.728-12.106-1.506M488 341.479c-14.574 2.123-50.176 10.373-51.817 12.006-.174.174-.902 2.83-1.616 5.904-1.521 6.544-1.656 6.362 7.433 10.049 25.236 10.237 46.005 8.253 61.745-5.899 5.157-4.636 9.403-11.941 10.575-18.192.5-2.668.252-3.237-1.614-3.701-5.491-1.366-15.995-1.437-24.706-.167m5.5 117.535c-3.3.418-10.381 1.078-15.736 1.465-11.425.828-11.385.577-1.715 10.914 10.581 11.311 23.511 18.115 39.226 20.64 4.277.687 7.996 1.029 8.265.76.269-.269-.401-3.37-1.489-6.891-2.088-6.755-6.749-15.165-12.813-23.118-4.005-5.251-4.022-5.255-15.738-3.77"/><path fill-rule="evenodd" d="M488.189 165.511c-31.332 4.768-54.821 15.21-80.689 35.874-14.043 11.218-17.31 13.047-32.423 18.163-41.353 13.998-70.2 31.168-95.577 56.887-17.065 17.296-29.137 34.957-33.136 48.48-3.409 11.525-.27 25.64 8.553 38.465 15.953 23.187 61.115 56.621 98.305 72.775 28.405 12.34 48.472 17.889 84.519 23.373 3.819.581 4.433 1.077 6.159 4.978 4.577 10.348 15.691 23.963 26.1 31.976 13.889 10.69 27.026 15.71 45.789 17.498 16.018 1.526 25.915-.823 29.575-7.02 4.797-8.119-.642-29.017-12.394-47.625-2.787-4.412-3.633-6.513-2.748-6.822 6.712-2.344 34.307-9.741 41.342-11.083 15.907-3.033 36.756-2.056 47.517 2.227l3.581 1.425-1.916 5.674c-4.897 14.506-6.405 41.036-3.317 58.365 4.065 22.81 17.084 47.796 32.342 62.068 9.983 9.338 17.808 8.205 34.367-4.976 13.417-10.679 22.902-22.621 30.001-37.769 3.796-8.099 7.815-21.579 7.846-26.311.012-1.944.417-2.27 2.265-1.829 18.763 4.482 22.287 4.892 37.75 4.392 16.512-.535 22.144-1.616 35.202-6.757 15.774-6.21 27.83-14.379 30.44-20.625 1.235-2.956 1.158-3.97-.723-9.56-6.506-19.331-25.809-42.556-47.999-57.754-10.066-6.895-25.543-14.586-37.123-18.449-10.033-3.346-28.966-6.551-38.703-6.551h-7.708l-3.432-7.25c-1.888-3.988-6.755-13.1-10.816-20.25-21.715-38.235-50.479-71.085-84.962-97.033-5.872-4.419-10.901-8.267-11.176-8.552-.275-.285 4.367-4.697 10.316-9.804 12.404-10.647 22.92-23.294 25.281-30.402 4.157-12.518-5.766-23.549-30.097-33.459-11.694-4.763-24.463-8.334-40.5-11.326-14.95-2.79-47.824-3.541-61.811-1.413m8.311 22.094c-23.676 3.405-37.508 7.562-53.248 16.005-5.638 3.024-10.252 5.738-10.252 6.03 0 .292 3.262.23 7.25-.138 8.3-.766 32.436.935 44.25 3.118 21.201 3.918 44.902 11.796 66.344 22.052l11.345 5.426 5.641-4.299c7.41-5.647 29.17-27.022 29.17-28.655 0-1.765-14.478-8.344-26.5-12.042-16.529-5.084-31.608-7.272-52.5-7.62-10.175-.169-19.85-.114-21.5.123m-71.951 43.466c-10.639.941-21.549 2.993-21.549 4.053 0 .417.46 1.042 1.022 1.39 1.67 1.032 8.974 11.29 12.722 17.867 9.282 16.29 17.226 42.458 19.495 64.219l1.261 12.099 9.685-2.755c27.823-7.914 54.229-10.164 70.282-5.987 13.984 3.638 18.941 8.793 18.792 19.543-.246 17.785-13.032 36.93-31.259 46.808-21.449 11.624-45.226 11.436-72.114-.571l-5.614-2.506-2.284 5.634c-3.625 8.943-12.283 23.003-19.038 30.918-3.419 4.006-6.044 7.449-5.833 7.65.211.202 6.008 1.725 12.883 3.386 44.474 10.743 73.76 9.492 123.855-5.292 27.115-8.003 33.082-8.977 54.645-8.926 21.038.049 28.421 1.379 41.5 7.474 10.104 4.709 13.844 7.672 15.139 11.995 1.049 3.502.822 4.518-2.927 13.113-5.174 11.858-7.212 21.918-7.212 35.591 0 17.381 2.767 28.922 10.605 44.226 4.397 8.586 13.589 21 15.549 21 1.699 0 13.323-9.625 18.272-15.129 10.496-11.674 17.159-27.828 18.161-44.032.317-5.137 1.036-10.555 1.596-12.04 2.643-7.005 12.591-8.148 26.317-3.024 21.223 7.923 44.453 6.776 66.191-3.268 4.028-1.861 7.606-4.118 7.951-5.016.406-1.058-1.727-5.11-6.062-11.518-22.123-32.704-63.518-53.033-102.912-50.541-8.817.558-11.267.405-13.137-.82-1.454-.952-4.035-5.659-7.023-12.809-6.463-15.464-14.246-29.954-24.067-44.803-11.767-17.792-19.764-27.472-36.37-44.023-21.604-21.533-43.015-36.966-68.571-49.425-30.303-14.773-56.92-22.27-87-24.504-15.447-1.147-19.759-1.144-32.951.023M367 246.38c-26.453 10.649-46.451 22.936-65.873 40.472C282.645 303.538 267 326.055 267 335.966c0 10.011 19.038 31.429 45 50.627 14.116 10.438 40.647 25.432 58 32.778l6.5 2.751 6.846-7.257c15.232-16.148 24.06-34.11 29.172-59.357 5.471-27.02 1.496-57.11-10.991-83.205-8.059-16.841-17.847-30.369-21.87-30.226-1.186.042-6.882 1.979-12.657 4.303m-28.582 58.538c-1.144.491-3.264 2.299-4.71 4.017-7.313 8.691-1.567 21.398 9.675 21.398 7.809 0 12.784-4.993 12.784-12.833 0-5-1.82-8.571-5.643-11.076-2.968-1.945-9.259-2.728-12.106-1.506M488 341.479c-14.574 2.123-50.176 10.373-51.817 12.006-.174.174-.902 2.83-1.616 5.904-1.521 6.544-1.656 6.362 7.433 10.049 25.236 10.237 46.005 8.253 61.745-5.899 5.157-4.636 9.403-11.941 10.575-18.192.5-2.668.252-3.237-1.614-3.701-5.491-1.366-15.995-1.437-24.706-.167m5.5 117.535c-3.3.418-10.381 1.078-15.736 1.465-11.425.828-11.385.577-1.715 10.914 10.581 11.311 23.511 18.115 39.226 20.64 4.277.687 7.996 1.029 8.265.76.269-.269-.401-3.37-1.489-6.891-2.088-6.755-6.749-15.165-12.813-23.118-4.005-5.251-4.022-5.255-15.738-3.77m-286.737 12.551c-3.488 1.893-5.139 5.137-7.633 15.006-3.368 13.322-4.496 24.13-4.48 42.929.033 39.316 8.938 63.619 32.122 87.669 12.555 13.024 27.336 22.458 43.55 27.796 3.752 1.235 6.966 2.761 7.141 3.39.176.63 1.314 5.42 2.53 10.645 15.913 68.404 59.635 123.487 125.507 158.119 17.589 9.247 48.091 20.107 71 25.278 27.128 6.123 45.229 8.507 70.5 9.285 56.758 1.747 106.131-11.815 150-41.2 17.405-11.66 27.498-19.941 42-34.464 26.2-26.238 46.486-58.756 47.772-76.577.387-5.367.03-6.915-3.129-13.572-9.832-20.718-37.119-48.589-64.643-66.023-28.394-17.986-62.61-28.989-95-30.548l-12.5-.602-7.997-7.974c-17.19-17.14-34.615-26.308-57.589-30.302-12.891-2.241-39.565-1.473-52.414 1.509-20.307 4.712-42.44 14.048-51.315 21.645-8.367 7.162-9.134 12.28-3.175 21.203 7.894 11.822 21.239 23.795 36.905 33.113l8.257 4.911-8.836 4.631C453.834 648.7 437.942 654.859 425 656.94c-14.798 2.379-30.739.563-42-4.784-6.537-3.104-16.478-12.748-19.977-19.381l-2.477-4.695 4.477-3.768c26.152-22.011 40.61-45.912 45.514-75.241 2.066-12.36 1.599-38.143-.854-47.048-1.942-7.055-6.101-11.023-11.551-11.023-4 0-5.744 1.009-15.2 8.79-7.534 6.2-12.721 8.997-25.529 13.767-12.555 4.676-17.032 7.058-26.164 13.923-5.268 3.96-11.845 11.017-15.376 16.5-.67 1.04-1.135 1.154-1.474.362-1.25-2.927-7.129-10.991-11.5-15.773-8.548-9.353-20.996-16.974-43.401-26.572-14.646-6.274-21.402-10.724-30.988-20.412-4.4-4.447-9.125-8.87-10.5-9.828-3.034-2.116-7.549-2.193-11.237-.192m10.215 43.138c-1.31 12.165-.882 28.04 1.048 38.797 3.497 19.5 13.534 38.311 27.324 51.211 11.564 10.817 19.951 15.529 37.15 20.87 10.396 3.228 13.824 6.009 15.42 12.511 12.496 50.904 26.132 79.898 50.67 107.737 31.513 35.754 74.075 59.968 130.152 74.045 45.149 11.333 87.423 12.811 128.223 4.48 7.248-1.479 31.075-8.061 31.797-8.783.197-.197-1.153-1.868-3-3.714-12.889-12.885-23.527-28.999-31.086-47.089l-1.554-3.72-6.311 2.927c-11.11 5.153-21.857 7.43-35.311 7.479-20.691.076-32.787-4.627-46.043-17.9-8.99-9.003-12.918-15.9-16.502-28.978-3.739-13.643-1.513-19.157 10.071-24.952 10.672-5.339 19.836-7.006 34.889-6.346 13.851.607 23.444 2.914 38.988 9.375 4.729 1.965 9.09 3.769 9.692 4.008.734.291 1.316-3.439 1.766-11.317 1.297-22.703 8.61-50.253 19.171-72.217 3.007-6.255 5.468-11.612 5.468-11.904 0-1.23-27.416.839-36.756 2.775-22.175 4.595-36.205 10.515-75.415 31.823-41.653 22.636-56.49 28.984-76.559 32.755-12.463 2.342-34.994 1.564-44.77-1.546-12.07-3.84-20.287-8.792-29.065-17.515-8.938-8.883-15.174-19.43-17.993-30.435-2.594-10.124-.761-13.058 17.058-27.302 15.097-12.068 25.674-27.842 30.951-46.156 2.854-9.903 4.859-24.824 3.948-29.379l-.596-2.978-5.481 3.3c-3.015 1.816-10.858 5.197-17.43 7.514-13.861 4.888-19.854 8.398-27.892 16.338-6.9 6.816-11.612 15.179-12.555 22.283-.889 6.703-3.608 11.052-8.078 12.92-3.048 1.274-4.201 1.302-7.639.19-5.316-1.72-7.335-4.74-9.171-13.716-4.712-23.045-16.835-34.909-50.684-49.601-12.697-5.512-23.403-11.628-28.084-16.044-2.01-1.897-3.857-3.449-4.103-3.449-.246 0-1.015 5.266-1.708 11.703M504.5 572.581c-4.4.77-12.5 2.787-18 4.48-9.971 3.071-25.564 9.722-25.429 10.847.146 1.203 17.094 15.636 22.175 18.882 6.475 4.138 17.888 9.993 22.974 11.788 3.782 1.334 3.87 1.303 20.039-6.961 8.933-4.565 20.516-9.702 25.741-11.415 12.312-4.036 25.023-7.202 28.917-7.202 3.783 0 3.824-.433.333-3.557-8.716-7.799-21.851-14.075-35.565-16.993-8.605-1.831-30.38-1.762-41.185.131m136.443 45.169c-9.55 15.055-18.855 38.116-22.377 55.455-4.191 20.636-4.468 44.592-.72 62.295 5.406 25.53 19.362 50.14 37.247 65.679l5.593 4.86 8.407-4.634c38.717-21.34 78.748-62.406 92.694-95.09 2.876-6.74 2.79-9.645-.451-15.227-15.722-27.081-53.965-57.527-87.336-69.532-7.353-2.645-27.523-8.556-29.195-8.556-.467 0-2.205 2.138-3.862 4.75m41.077 49.952c-1.914.989-4.502 3.327-5.75 5.196-5.772 8.64.771 20.509 11.22 20.351 5.324-.081 8.814-2.06 11.554-6.553 6.617-10.852-5.853-24.765-17.024-18.994m-156.876 46.804c-2.946.829-5.731 1.739-6.189 2.022-1.312.811 2.752 11.444 6.581 17.218 7.01 10.57 18.125 16.21 33.464 16.98 10.941.549 18.936-.976 30.623-5.842l7.466-3.108-.661-4.638c-.364-2.551-1.005-5.011-1.425-5.468-1.583-1.722-24.752-11.817-33.937-14.787-11.766-3.805-27.216-4.828-35.922-2.377"/></svg>