<svg xmlns="http://www.w3.org/2000/svg" width="1024" height="1024"><path fill="#e8af1e" fill-rule="evenodd" d="M162.373 556.75c.279.962 1.026 3.775 1.66 6.25.634 2.475 3.104 8.581 5.49 13.57 15.307 32.005 48.398 56.67 86.423 64.419 28.439 5.795 58.799 2.339 83.954-9.559 24.9-11.776 45.94-31.26 56.609-52.421 2.716-5.387 8.491-21.035 8.491-23.007 0-.664-41.037-1.002-121.567-1.002-115.306 0-121.542.09-121.06 1.75m457.299 4c2.084 8.087 9.249 22.862 15.4 31.761 9.614 13.906 27.689 28.929 45.428 37.755 28.826 14.342 64.597 17.412 95.979 8.236 32.054-9.373 60.411-31.668 74.462-58.543 3.425-6.55 9.059-21.531 9.059-24.087 0-.491-52.762-.872-120.905-.872H618.19l1.482 5.75"/><path fill-rule="evenodd" d="M500.045 163.092c-15.118 2.964-29.659 16.379-33.773 31.158-1.444 5.189-1.864 5.75-4.306 5.75-4.517 0-25.617 3.897-40.647 7.506-26.258 6.306-57.707 17.882-92.298 33.972-20.713 9.635-31.37 13.422-33.677 11.967-.918-.579-2.411-3.763-3.318-7.075-2.028-7.411-4.826-12.053-10.178-16.888-11.303-10.212-28.921-12.6-43.774-5.935-7.996 3.589-16.951 12.968-20.18 21.136-3.202 8.099-3.25 24.075-.098 32.706 5.606 15.352 23.853 34.288 37.592 39.011l3.296 1.133-6.092 12.486c-6.047 12.393-11.566 23.757-45.641 93.981a109055.58 109055.58 0 0 1-30.109 62c-6.818 14.025-14.41 29.88-16.87 35.234l-4.472 9.734-6.35.016c-5.879.015-6.602.268-9.75 3.416-2.994 2.994-3.4 4.021-3.4 8.593 0 7.659 3.628 24.12 7.561 34.304 4.74 12.272 9.369 20.781 16.432 30.203 30.304 40.428 77.687 62.373 129.93 60.178 39.954-1.68 73.489-15.68 100.908-42.128 15.429-14.883 26.153-31.164 33.143-50.317 5.12-14.029 7.92-30.994 6.05-36.66-1.841-5.579-5.181-7.573-12.684-7.573-5.704 0-6.482-.242-7.253-2.25-.476-1.237-10.422-22.05-22.104-46.25-11.681-24.2-23.375-48.5-25.985-54-2.611-5.5-12.956-26.875-22.99-47.5-19.406-39.891-26.184-54.221-25.766-54.471.142-.085 4.533-.977 9.758-1.983 14.6-2.81 30.004-7.751 52.738-16.914 38.123-15.366 59.013-21.487 92.652-27.151l2.891-.487-.685 48.753c-.891 63.429-2.374 191.963-3.146 272.753-.337 35.2-.769 65.575-.96 67.5-.191 1.925-.38 9.644-.419 17.154L466 699.807l-22.25.395c-21.188.376-22.63.527-30.212 3.161-19.456 6.757-33.007 21.183-37.155 39.554l-1.545 6.839-17.669.469c-15.939.424-18.402.732-25.157 3.145-14.45 5.162-25.617 13.771-33.873 26.115-9.197 13.749-12.474 26.52-11.968 46.627l.329 13.057 3.266 2.916 3.266 2.915h217.033c238.578 0 221.092.465 224.418-5.967 2.081-4.024 2.056-25.451-.042-35.825-3.697-18.284-17.376-36.809-33.253-45.031-12.468-6.458-16.56-7.349-36.322-7.915l-17.635-.505-.473-4.92c-.802-8.355-7.553-20.458-15.693-28.137-13.796-13.014-26.125-16.7-55.863-16.7H556.32l-.69-62.75c-.78-70.99-2.082-170.35-3.683-281.096-.599-41.44-.886-75.548-.638-75.796.745-.745 19.378 2.49 32.191 5.588 14.728 3.562 38.96 11.591 55 18.223 27.397 11.329 32.436 13.255 41.5 15.865 5.225 1.505 14.074 3.535 19.665 4.511 9.61 1.677 10.12 1.887 9.345 3.864-.45 1.15-7.217 15.366-15.037 31.591-7.82 16.225-16.808 34.9-19.973 41.5-3.165 6.6-13.737 28.425-23.494 48.5-16.617 34.191-31.487 65.329-36.413 76.25L611.95 531h-6.075c-5.575 0-6.355.28-9.475 3.4-2.178 2.178-3.433 4.425-3.493 6.25-.69 21.21 8.706 47.343 24.668 68.612 11.955 15.929 32.36 33.124 49.689 41.871 37.063 18.71 83.11 21.863 123.227 8.439 40.602-13.586 75.259-46.534 88.961-84.572 3.556-9.874 6.513-24.061 6.532-31.35.015-5.329-.287-6.153-3.384-9.25-3.102-3.102-3.92-3.4-9.327-3.4h-5.927l-8.29-17.124a26307.694 26307.694 0 0 0-19.298-39.75c-14.097-28.975-25.088-51.752-29.253-60.626-1.808-3.85-8.998-18.7-15.979-33s-15.629-32.254-19.216-39.898c-3.588-7.643-7.603-15.928-8.923-18.41-1.32-2.482-2.284-4.553-2.143-4.603.141-.049 3.394-1.664 7.23-3.589 10.263-5.151 24.859-19.875 29.739-30 4.606-9.557 6.14-16.732 5.572-26.068-.626-10.289-3.719-17.666-10.461-24.949-15.118-16.329-40.293-17.847-56.29-3.395-5.219 4.716-10.012 12.867-10.025 17.051-.005 1.727-.836 4.161-1.847 5.41-1.738 2.146-2.106 2.203-6.75 1.046-2.702-.674-13.687-5.194-24.412-10.046-55.872-25.273-83.682-34.575-122.607-41.009-6.541-1.081-13.243-2.095-14.893-2.253-2.678-.256-3.058-.716-3.542-4.287-.79-5.837-5.676-14.117-11.951-20.256-11.068-10.828-27.519-15.375-43.962-12.152m3.092 25.277c-5.167 1.87-11.173 7.468-13.46 12.546-1.477 3.279-2.081 6.747-2.121 12.172l-.056 7.587-14.5 1.671c-38.21 4.404-73.219 14.44-116.5 33.396-34.433 15.081-39.133 17.001-45.564 18.613-8.286 2.078-19.021 2.107-25.877.071-3.818-1.134-6.651-2.922-10.108-6.378-4.168-4.169-4.966-5.645-6.04-11.175-1.008-5.188-1.951-7.091-5.077-10.242-3.753-3.784-3.973-3.86-9.837-3.436-4.901.354-6.545.957-8.98 3.29-12.21 11.698-4.251 33.646 16.483 45.456 7.28 4.147 18.106 7.76 26.929 8.987 21.98 3.057 42.73-1.308 82.409-17.338 53.094-21.449 94.962-30.595 140.018-30.586 48.065.01 96.465 10.853 145.144 32.517 12.096 5.383 28.79 10.887 41 13.519 13.524 2.914 33.987 3.193 44.5.605 16.224-3.994 31.896-14.606 37.922-25.678 5.908-10.856 4.071-24.026-4.053-29.047-2.797-1.729-4.573-2.067-8.951-1.704-7.627.633-10.698 3.725-12.991 13.084-2.22 9.059-7.024 14.648-15.27 17.766-4.802 1.816-7.093 2.064-15.157 1.644-12.392-.645-18.152-2.54-48.5-15.948-51.947-22.951-82.021-31.872-126.05-37.388l-14.05-1.761.422-5.834c.833-11.504-3.855-20.622-12.927-25.143-5.845-2.913-12.892-3.388-18.758-1.266m-6.405 87.307c-.59 1.021-1.36 45.293-3.266 187.824-.817 61.05-1.927 135.75-2.467 166s-.986 58.487-.991 62.75L490 700h42.218l-.637-36.25c-.351-19.937-1.097-73.825-1.658-119.75-1.891-154.911-3.741-267.151-4.414-267.827-.988-.992-28.218-1.462-28.777-.497m-227.243 76.358c-.381 1.202-6.272 13.665-13.091 27.696C249.579 393.761 244 405.357 244 405.498c0 .141-6.794 14.15-15.097 31.13a17854.55 17854.55 0 0 0-29.597 60.872c-7.975 16.5-14.907 30.427-15.403 30.95-.497.522-.903 1.31-.903 1.75 0 .44 20.058.8 44.574.8h44.575l-.508-90.1c-.279-49.555-.722-90.314-.983-90.575-.261-.262-.787.508-1.169 1.709m456.008-.024c-.351 1.106-5.377 11.794-11.17 23.75A39919.404 39919.404 0 0 0 691.495 423a45590.838 45590.838 0 0 1-32.302 66.75L639.192 531h87.655l.01-90.5c.006-49.775-.154-90.5-.356-90.5-.201 0-.653.905-1.004 2.01m25.955 88.688L751.404 531h88.48l-6.066-12.25c-11.52-23.262-50.958-103.868-59.324-121.25-2.912-6.05-9.277-19.123-14.144-29.052l-8.85-18.051-.048 90.301m-455.379 1.052L296 531h44.083c24.246 0 43.917-.337 43.714-.75-.203-.413-8.71-17.625-18.905-38.25-10.194-20.625-23.903-48.491-30.464-61.925a11520.804 11520.804 0 0 0-25.105-51L296.146 352.5l-.073 89.25m-133.416 116.5c.333 1.788 1.9 6.66 3.481 10.828 13.325 35.128 48.388 63.182 90.06 72.057 14.768 3.145 40.002 3.162 54.536.035 24.773-5.329 46.152-16.448 63.541-33.049 9.693-9.253 15.424-16.556 20.767-26.462 3.79-7.025 9.894-22.633 9.938-25.409.016-.993-24.931-1.25-121.455-1.25H162.05l.607 3.25m456.936 2.123c4.505 17.251 15.083 34.47 29.518 48.05 44.318 41.691 112.962 47.165 163.827 13.064 8.839-5.926 22.506-18.617 28.657-26.61 7.45-9.683 15.716-26.628 17.865-36.627l.699-3.25H618.19l1.403 5.373M422.5 725.392c-10.335 3.252-18.927 11.616-21.939 21.358l-.696 2.25h111.068c68.222 0 111.067-.361 111.067-.935 0-4.673-5.998-13.145-12.349-17.444-10.115-6.845-6.818-6.628-99.583-6.554-64.215.051-84.494.358-87.568 1.325m-74.172 48.635c-9.215.97-16.906 4.515-23.666 10.908-8.49 8.03-13.623 19.429-13.65 30.315L311 820h401l-.024-4.25c-.091-15.658-10.129-31.183-24.518-37.916-5.404-2.529-8.511-3.232-17.274-3.908-13.314-1.027-312.031-.934-321.856.101"/><path fill="#c97518" fill-rule="evenodd" d="M503.137 188.369c-5.167 1.87-11.173 7.468-13.46 12.546-1.477 3.279-2.081 6.747-2.121 12.172l-.056 7.587-14.5 1.671c-38.21 4.404-73.219 14.44-116.5 33.396-34.433 15.081-39.133 17.001-45.564 18.613-8.286 2.078-19.021 2.107-25.877.071-3.818-1.134-6.651-2.922-10.108-6.378-4.168-4.169-4.966-5.645-6.04-11.175-1.008-5.188-1.951-7.091-5.077-10.242-3.753-3.784-3.973-3.86-9.837-3.436-4.901.354-6.545.957-8.98 3.29-12.21 11.698-4.251 33.646 16.483 45.456 7.28 4.147 18.106 7.76 26.929 8.987 21.98 3.057 42.73-1.308 82.409-17.338 53.094-21.449 94.962-30.595 140.018-30.586 48.065.01 96.465 10.853 145.144 32.517 12.096 5.383 28.79 10.887 41 13.519 13.524 2.914 33.987 3.193 44.5.605 16.224-3.994 31.896-14.606 37.922-25.678 5.908-10.856 4.071-24.026-4.053-29.047-2.797-1.729-4.573-2.067-8.951-1.704-7.627.633-10.698 3.725-12.991 13.084-2.22 9.059-7.024 14.648-15.27 17.766-4.802 1.816-7.093 2.064-15.157 1.644-12.392-.645-18.152-2.54-48.5-15.948-51.947-22.951-82.021-31.872-126.05-37.388l-14.05-1.761.422-5.834c.833-11.504-3.855-20.622-12.927-25.143-5.845-2.913-12.892-3.388-18.758-1.266m-6.405 87.307c-.59 1.021-1.36 45.293-3.266 187.824-.817 61.05-1.927 135.75-2.467 166s-.986 58.487-.991 62.75L490 700h42.218l-.637-36.25c-.351-19.937-1.097-73.825-1.658-119.75-1.891-154.911-3.741-267.151-4.414-267.827-.988-.992-28.218-1.462-28.777-.497m54.633 34.824c.003 5.5.171 7.622.373 4.716.203-2.905.201-7.405-.004-10-.206-2.594-.371-.216-.369 5.284m.984 76.5c0 4.675.173 6.587.383 4.25.211-2.337.211-6.163 0-8.5-.21-2.337-.383-.425-.383 4.25M271.31 414.5c.005 3.3.192 4.529.415 2.732.222-1.797.218-4.497-.01-6-.229-1.503-.411-.032-.405 3.268m.138 46c-.001 18.15.134 25.716.3 16.814.165-8.903.166-23.753.001-33-.166-9.248-.301-1.964-.301 16.186m454.895-16c.003 4.4.179 6.076.39 3.724.212-2.352.209-5.952-.006-8s-.388-.124-.384 4.276M553.32 458c0 3.575.182 5.038.403 3.25.222-1.788.222-4.712 0-6.5-.221-1.788-.403-.325-.403 3.25m173.08 14.5c.001 8.25.156 11.492.344 7.204.188-4.287.187-11.037-.002-15-.19-3.962-.343-.454-.342 7.796m-258.057 27c.003 4.4.179 6.076.39 3.724.212-2.352.209-5.952-.006-8s-.388-.124-.384 4.276m258.064 8.5c0 9.075.152 12.788.337 8.25.185-4.538.185-11.962 0-16.5s-.337-.825-.337 8.25m-455.029 8c0 6.325.163 8.913.361 5.75.198-3.163.198-8.337 0-11.5-.198-3.163-.361-.575-.361 5.75m480.004 3.5c.002 6.6.164 9.17.359 5.711.196-3.459.195-8.859-.003-12s-.358-.311-.356 6.289m-197.008 16c.002 6.05.167 8.396.366 5.213.199-3.182.197-8.132-.004-11-.201-2.867-.364-.263-.362 5.787m-87.046 42c.005 3.85.185 5.302.402 3.228.216-2.075.213-5.225-.008-7-.221-1.776-.398-.078-.394 3.772M555.36 614c0 5.225.169 7.362.375 4.75s.206-6.888 0-9.5-.375-.475-.375 4.75m-89 46c0 5.225.169 7.362.375 4.75s.206-6.888 0-9.5-.375-.475-.375 4.75m-43.86 65.392c-10.335 3.252-18.927 11.616-21.939 21.358l-.696 2.25h111.068c68.222 0 111.067-.361 111.067-.935 0-4.673-5.998-13.145-12.349-17.444-10.115-6.845-6.818-6.628-99.583-6.554-64.215.051-84.494.358-87.568 1.325m229.75 24.336c2.063.216 5.438.216 7.5 0 2.063-.215.375-.392-3.75-.392s-5.812.177-3.75.392m-303.922 24.299c-9.215.97-16.906 4.515-23.666 10.908-8.49 8.03-13.623 19.429-13.65 30.315L311 820h401l-.024-4.25c-.091-15.658-10.129-31.183-24.518-37.916-5.404-2.529-8.511-3.232-17.274-3.908-13.314-1.027-312.031-.934-321.856.101"/></svg>