<svg xmlns="http://www.w3.org/2000/svg" width="1024" height="1024"><path fill="#0db3ac" fill-rule="evenodd" d="M681.775 670.559c-3.848 2.088-4.775 4.384-4.775 11.826 0 9.529-1.663 15.784-5.968 22.443-3.149 4.873-4.917 6.458-10.085 9.041-4.345 2.171-7.703 3.131-10.952 3.131-4.707 0-7.712-1.588-19.893-10.511-7.094-5.197-15.102-1.912-15.102 6.196 0 4.815 2.066 8.26 8.454 14.099 15.283 13.968 39.262 12.843 55.804-2.618 11.702-10.938 18.52-24.144 19.376-37.537.436-6.809.206-8.697-1.413-11.629-3.198-5.788-9.582-7.623-15.446-4.441m-8.328 118.195c-1.621 1.609-4.395 4.75-6.165 6.98-1.77 2.23-5.571 5.228-8.446 6.661-9.76 4.863-17.11 2.957-28.043-7.27-7.519-7.033-10.834-7.839-14.816-3.6-6.505 6.923 2.524 21.658 17.899 29.212 5.075 2.493 6.649 2.76 16.124 2.734 9.896-.027 10.867-.219 16.876-3.328 16.475-8.525 26.316-26.04 17.775-31.636-4.587-3.006-8.002-2.93-11.204.247m-123.711 50.938c-2.354.614-4.741 5.428-4.714 9.508.048 7.214 7.245 17.528 15.68 22.471 10.139 5.942 24.394 7.947 34.563 4.861 5.852-1.775 15.045-7.754 17.737-11.535 4.066-5.711 1.327-12.181-5.757-13.598-2.592-.518-4.021-.006-7.952 2.855-7.201 5.24-10.724 6.746-15.775 6.746-8.55 0-16.68-5.439-21.064-14.09-3.509-6.925-6.762-8.771-12.718-7.218"/><path fill="#17cac1" fill-rule="evenodd" d="M271.943 478.25c-3.048 12.679-3.741 32.853-1.594 46.407 4.136 26.116 14.51 46.198 36.594 70.843 15.994 17.848 22.148 32.501 20.035 47.705-1.077 7.748-2.038 10.461-11.251 31.761-13.225 30.575-16.829 42.744-18.859 63.685-3.29 33.925 7.832 70 31.091 100.849 33.476 44.399 81.138 70.526 143.541 78.684 14.889 1.947 58.983 1.617 73-.546 27.757-4.283 51.302-11.477 74-22.608 65.982-32.357 110.577-86.801 124.121-151.53 2.396-11.451 2.729-15.324 2.799-32.5.087-21.264-.775-28.095-5.618-44.5-3.738-12.664-12.36-30.884-14.268-30.152-.75.288-5.648 3.449-10.884 7.024-9.481 6.473-44.823 24.628-47.943 24.628-.902 0-3.117.652-4.923 1.449-15.553 6.864-39.346 11.266-66.071 12.225-9.783.351-18.001.983-18.261 1.404-.26.421 2.374 4.965 5.854 10.098 22.725 33.517 17.985 71.446-12.554 100.455-15.572 14.791-34.2 24.474-56.806 29.528-13.676 3.057-42.685 3.37-55.507.599-26.221-5.667-49.347-18.762-63.149-35.758-11.171-13.755-18.286-33.233-18.266-50 .043-35.148 22.381-59.051 55.12-58.983 10.972.023 19.163 1.849 35.171 7.841 17.77 6.651 25.885 8.398 38.685 8.33 25.501-.135 49.308-12.709 61.944-32.717 6.23-9.865 6.228-9.871-5.444-14.861-15.484-6.619-29.398-13.916-48.27-25.315-24.87-15.023-32.678-18.261-48.699-20.194-19.282-2.327-42.087 4.042-60.354 16.856-6.6 4.629-10.511 5.141-14.617 1.912-6.391-5.027-4.857-12.073 4.24-19.484l5.543-4.515-.244-6.185c-.331-8.359-2.415-18.778-5.386-26.927-7.672-21.037-22.079-34.237-58.713-53.791-27.136-14.485-42.74-24.611-54.943-35.653-3.229-2.923-6.101-5.314-6.381-5.314-.28 0-1.51 4.163-2.733 9.25m409.832 192.309c-3.848 2.088-4.775 4.384-4.775 11.826 0 9.529-1.663 15.784-5.968 22.443-3.149 4.873-4.917 6.458-10.085 9.041-4.345 2.171-7.703 3.131-10.952 3.131-4.707 0-7.712-1.588-19.893-10.511-7.094-5.197-15.102-1.912-15.102 6.196 0 4.815 2.066 8.26 8.454 14.099 15.283 13.968 39.262 12.843 55.804-2.618 11.702-10.938 18.52-24.144 19.376-37.537.436-6.809.206-8.697-1.413-11.629-3.198-5.788-9.582-7.623-15.446-4.441m-8.328 118.195c-1.621 1.609-4.395 4.75-6.165 6.98-1.77 2.23-5.571 5.228-8.446 6.661-9.76 4.863-17.11 2.957-28.043-7.27-7.519-7.033-10.834-7.839-14.816-3.6-6.505 6.923 2.524 21.658 17.899 29.212 5.075 2.493 6.649 2.76 16.124 2.734 9.896-.027 10.867-.219 16.876-3.328 16.475-8.525 26.316-26.04 17.775-31.636-4.587-3.006-8.002-2.93-11.204.247m-123.711 50.938c-2.354.614-4.741 5.428-4.714 9.508.048 7.214 7.245 17.528 15.68 22.471 10.139 5.942 24.394 7.947 34.563 4.861 5.852-1.775 15.045-7.754 17.737-11.535 4.066-5.711 1.327-12.181-5.757-13.598-2.592-.518-4.021-.006-7.952 2.855-7.201 5.24-10.724 6.746-15.775 6.746-8.55 0-16.68-5.439-21.064-14.09-3.509-6.925-6.762-8.771-12.718-7.218"/><path fill="#0093da" fill-rule="evenodd" d="M785.013 219.621c-6.888 4.289-19.349 9.131-28.496 11.074-7.052 1.498-32.211 1.369-37.135-.189-2.055-.65-2.133-.33-2.595 10.662l-.477 11.332 3.187 4c1.753 2.2 6.217 8.387 9.92 13.75 4.206 6.091 7.393 9.75 8.492 9.75 2.959 0 14.25-4.006 20.591-7.305 7.35-3.825 20.976-17.177 24.712-24.217 4.482-8.447 10.567-32.67 8.132-32.376-.464.056-3.313 1.639-6.331 3.519m-183.513.455c-18.666 2.573-36.495 10.385-47.868 20.974-3.923 3.652-8.115 7.16-9.316 7.795-3.743 1.979-9.158 1.421-11.611-1.197-12.139-12.952-15.239-15.681-21.613-19.03-12.006-6.309-20.103-7.966-39.092-7.999-18.46-.031-24.021.727-48.754 6.65-19.926 4.772-18.706 2.98-11.729 17.231 13.202 26.967 37.485 44.534 65.105 47.101 7.768.722 24.378-1.195 24.378-2.814 0-2.676-7.075-13.807-11.753-18.49-6.522-6.53-11.331-9.034-19.601-10.205-7.006-.992-9.317-1.925-11.766-4.749-2.279-2.628-2.851-5.863-1.746-9.866 1.941-7.031 12.193-8.682 25.632-4.127 12.542 4.25 21.504 11.462 30.065 24.194 5.786 8.606 12.048 22.149 12.794 27.674.596 4.409.416 4.94-2.743 8.091-3.998 3.985-12.317 7.33-23.382 9.401-4.4.823-8.546 1.655-9.212 1.848-1.544.446-6.36 10.047-9.19 18.315-7.362 21.517-10.493 42.992-13.13 90.075-2.736 48.854-7.851 65.679-31.173 102.552-4.175 6.6-10.715 17.285-14.533 23.745l-6.943 11.745 2.257 8.755c1.242 4.815 2.557 11.377 2.922 14.581.539 4.722.961 5.712 2.228 5.226 8.003-3.071 18.148-4.854 30.136-5.297 15.635-.577 24.918.666 37.121 4.969 10.784 3.804 15.955 6.427 36.162 18.344 18.216 10.742 36.297 20.044 51.355 26.42 5.5 2.328 11.177 4.92 12.614 5.758 3.425 1.997 5.886 6.278 5.886 10.238 0 5.633-7.036 20.999-13.599 29.699-1.32 1.751-2.401 3.509-2.401 3.906 0 1.141 33.544-.408 43.5-2.008 16.93-2.723 30.319-6.175 39.284-10.132 1.806-.797 4.025-1.449 4.93-1.449 3.272 0 37.045-17.404 48.036-24.754 6.188-4.138 11.25-7.832 11.25-8.209 0-.377-2.651-4.702-5.89-9.611-8.717-13.21-22.735-29.045-40.655-45.926-8.758-8.25-18.111-17.25-20.783-20-20.607-21.205-28.842-45.4-28.589-84l.112-17-5.348-.811c-45.505-6.906-71.299-18.446-93.15-41.673-7.472-7.943-17.694-22.248-19.736-27.62-1.525-4.01-.426-8.58 2.801-11.65 6.461-6.145 12.306-4.21 17.299 5.726 4.73 9.413 14.769 21.451 24.145 28.953 17.261 13.81 33.571 19.726 72.973 26.467 42.3 7.237 57.519 12.547 67.74 23.636 6.735 7.307 7.775 10.769 8.4 27.972.791 21.796 3.476 30.033 12.866 39.473 4.879 4.905 13.949 9.552 21.336 10.932 5.431 1.015 6.304.806 4.726-1.131-2.182-2.679-5.247-15.182-5.247-21.404 0-8.334 2.047-13.966 11.67-32.109 4.307-8.118 7.958-15.234 8.115-15.813.157-.578-2.044-1.649-4.891-2.379-2.847-.729-8.756-3.118-13.132-5.308-6.518-3.262-8.219-4.611-9.409-7.458-2.677-6.408 1.462-13.303 7.987-13.303 1.593 0 6.798 1.757 11.568 3.905 11.476 5.167 16.114 6.336 25.092 6.321 10.431-.016 17.852-2.948 24.636-9.732 10.556-10.556 11.158-24.655 1.876-43.994-5.626-11.723-15.253-24.444-37.08-49-30.074-33.834-40.93-47.585-59.81-75.756-11.551-17.235-20.478-28.012-28.424-34.317-8.479-6.728-24.073-14.111-34.698-16.429-10.637-2.321-31.136-3.282-41-1.922m43.439 82.343c-6.486 1.672-10.379 4.817-13.353 10.784-10.586 21.244 13.848 42.428 31.837 27.6 11.95-9.85 10.712-28.057-2.442-35.919-5.516-3.296-10.093-4-16.042-2.465M767.11 403.396c-7.529 4.172-6.388 13.333 2.405 19.308 7.74 5.259 16.484 3.845 18.294-2.959 1.742-6.552-1.04-11.186-9.14-15.223-5.67-2.825-8.072-3.059-11.559-1.126"/><path fill-rule="evenodd" d="M451.628 77.573c-32.189 5.006-62.067 19.691-83.15 40.869-12.995 13.053-19.022 23.871-20.175 36.213-.746 7.995 1.348 13.893 6.625 18.661 7.725 6.979 17.162 7.384 30.204 1.295 4.198-1.959 12.748-5.035 19-6.835 10.701-3.08 12.278-3.269 26.868-3.231 13.703.036 16.659.358 25.5 2.775 18.435 5.038 32.779 13.115 46.356 26.101 6.261 5.989 13.595 14.488 11.644 13.494-9.144-4.657-30.008-8.856-44.199-8.895-9.458-.026-27.97 2.427-42.301 5.605-13.183 2.923-34.489 9.615-37.62 11.816-13.986 9.831.491 47.538 27.719 72.195 10.814 9.794 21.29 15.675 37.401 20.995 5.5 1.816 8.961 3.317 7.691 3.336-1.303.018-2.035.476-1.681 1.049.346.559 1.124.71 1.729.336.738-.456.857-.049.362 1.234-10.232 26.517-14.499 48.917-16.558 86.914-3.463 63.899-5.615 71.97-30.036 112.611-6.738 11.214-12.569 20.739-12.957 21.167-.389.428-2.696-1.748-5.128-4.835-4.767-6.05-20.412-19.207-30.922-26.003-3.575-2.312-14.6-8.46-24.5-13.664-9.9-5.203-20.7-11.183-24-13.288-15.385-9.812-30.967-22.604-36.453-29.925-3.894-5.198-9.497-8.062-13.883-7.099-11.478 2.521-20.493 31.391-20.467 65.536.028 35.264 10.326 62.42 35.181 92.768 20.864 25.476 22.609 28.763 21.879 41.232-.459 7.83-.519 7.999-13.686 38.399-9.266 21.392-14.136 41.233-15.488 63.101-.663 10.729 1.078 31.822 3.59 43.5 11.33 52.664 54.687 104.347 110.327 131.513 51.49 25.141 120.581 31.363 183 16.482 56.579-13.488 108.585-46.652 145.048-92.495 24.975-31.399 40.119-65.309 46.203-103.451 2.514-15.758 2.266-42.186-.534-57.049-7.721-40.979-30.873-78.651-71.003-115.531-26.462-24.319-33.504-33.987-38.859-53.349-2.986-10.799-4.859-30.251-3.898-40.501l.727-7.764 4.158.686c13.944 2.299 25.484 8.269 27.832 14.397.54 1.409 1.36 8.88 1.822 16.602.462 7.721 1.59 16.946 2.507 20.5 5.272 20.431 22.063 37.467 42.842 43.469 13.168 3.803 30.959-.038 35.625-7.692 3-4.921 2.576-9.674-1.573-17.617-4.467-8.551-5.544-17.386-3.022-24.786 1.828-5.367 16.989-32.642 19.133-34.421.759-.63 4.334-1.763 7.943-2.518 23.706-4.96 41.576-27.269 41.542-51.861-.009-6.824-3.262-20.045-6.91-28.091-6.827-15.056-23.727-37.724-48.104-64.523-13.4-14.731-21.92-25.286-21.266-26.345.328-.53.108-.662-.489-.293-.597.369-1.36.226-1.696-.316-.335-.543.646-1.293 2.181-1.667 4.166-1.015 19.085-9.031 24.82-13.335C800.639 268.449 813 243.18 813 214.577c0-11.855-1.674-18.46-5.785-22.827-2.17-2.305-3.418-2.75-7.711-2.75-4.142 0-6.258.698-11.063 3.65-20.515 12.605-27.447 15.478-42.021 17.417-8.904 1.185-19.431.632-27.215-1.429-4.098-1.086-4.444-1.481-7.564-8.638-6.885-15.794-18.823-30.679-33.108-41.281-15.075-11.187-30.233-16.983-49.091-18.77l-10.893-1.032-9.525-9.402c-11.481-11.334-14.473-13.765-28.024-22.767-17.312-11.501-39.128-21.086-59.5-26.142-18.461-4.582-50.864-5.988-69.872-3.033M461 99.025c-33.149 4.015-65.221 19.699-81.073 39.648-5.22 6.568-9.924 15.663-8.723 16.864.271.271 4.723-1.258 9.894-3.399 17.444-7.219 31.792-10.14 49.783-10.134 47.648.017 87.905 24.7 110.29 67.624 2.832 5.43 5.251 10.008 5.375 10.175.125.167 3.516-1.824 7.537-4.425 17.002-10.999 36.393-16.313 59.686-16.358l10.269-.02-.646-2.75c-1.746-7.439-9.544-23.828-15.792-33.19-21.15-31.69-59.204-55.24-101.1-62.566-10.977-1.919-35.297-2.705-45.5-1.469m174.347 69.725c3.94 7.887 7.116 17.191 8.902 26.077l1.271 6.326 10.99 3.728c13.496 4.577 21.515 8.758 32.24 16.809 4.538 3.406 8.25 5.626 8.25 4.933 0-2.788-3.425-12.519-6.729-19.121-10.634-21.246-29.611-37.843-50.203-43.903-8.386-2.469-8.477-2.368-4.721 5.151m149.666 50.871c-6.888 4.289-19.349 9.131-28.496 11.074-7.052 1.498-32.211 1.369-37.135-.189-2.055-.65-2.133-.33-2.595 10.662l-.477 11.332 3.187 4c1.753 2.2 6.217 8.387 9.92 13.75 4.206 6.091 7.393 9.75 8.492 9.75 2.959 0 14.25-4.006 20.591-7.305 7.35-3.825 20.976-17.177 24.712-24.217 4.482-8.447 10.567-32.67 8.132-32.376-.464.056-3.313 1.639-6.331 3.519m-183.513.455c-18.666 2.573-36.495 10.385-47.868 20.974-3.923 3.652-8.115 7.16-9.316 7.795-3.743 1.979-9.158 1.421-11.611-1.197-12.139-12.952-15.239-15.681-21.613-19.03-12.006-6.309-20.103-7.966-39.092-7.999-18.46-.031-24.021.727-48.754 6.65-19.926 4.772-18.706 2.98-11.729 17.231 13.202 26.967 37.485 44.534 65.105 47.101 7.768.722 24.378-1.195 24.378-2.814 0-2.676-7.075-13.807-11.753-18.49-6.522-6.53-11.331-9.034-19.601-10.205-7.006-.992-9.317-1.925-11.766-4.749-2.279-2.628-2.851-5.863-1.746-9.866 1.941-7.031 12.193-8.682 25.632-4.127 12.542 4.25 21.504 11.462 30.065 24.194 5.786 8.606 12.048 22.149 12.794 27.674.596 4.409.416 4.94-2.743 8.091-3.998 3.985-12.317 7.33-23.382 9.401-4.4.823-8.546 1.655-9.212 1.848-1.544.446-6.36 10.047-9.19 18.315-7.362 21.517-10.493 42.992-13.13 90.075-2.736 48.854-7.851 65.679-31.173 102.552-4.175 6.6-10.715 17.285-14.533 23.745l-6.943 11.745 2.257 8.755c1.242 4.815 2.557 11.377 2.922 14.581.539 4.722.961 5.712 2.228 5.226 8.003-3.071 18.148-4.854 30.136-5.297 15.635-.577 24.918.666 37.121 4.969 10.784 3.804 15.955 6.427 36.162 18.344 18.216 10.742 36.297 20.044 51.355 26.42 5.5 2.328 11.177 4.92 12.614 5.758 3.425 1.997 5.886 6.278 5.886 10.238 0 5.994-6.798 20.469-14.664 31.222l-3.442 4.707 5.538 7.903c17.078 24.372 19.668 52.164 7.173 76.976-13.293 26.396-41.633 46.76-75.659 54.367-13.676 3.057-42.685 3.37-55.507.599-26.221-5.667-49.347-18.762-63.149-35.758-11.171-13.755-18.286-33.233-18.266-50 .043-35.148 22.381-59.051 55.12-58.983 10.972.023 19.163 1.849 35.171 7.841 17.77 6.651 25.885 8.398 38.685 8.33 25.501-.135 49.308-12.709 61.944-32.717 6.23-9.865 6.228-9.871-5.444-14.86-15.069-6.441-27.191-12.79-46.291-24.247-20.816-12.486-24.929-14.613-34.402-17.791-24.902-8.353-53.184-3.278-77.304 13.874-5.816 4.136-9.956 4.558-13.943 1.422-6.434-5.061-4.706-12.514 4.584-19.769l5.396-4.214-.675-9.193c-1.269-17.283-6.725-31.848-16.431-43.86-9.297-11.507-20.025-19.089-49.934-35.287-27.227-14.746-42.304-24.67-53.757-35.383-2.625-2.456-4.973-4.266-5.217-4.022-.873.873-3.438 12.009-4.606 19.995-1.47 10.052-.701 32.674 1.44 42.364 4.979 22.532 14.791 40.378 34.64 62.997 15.835 18.045 21.125 28.96 21.086 43.503-.025 9.38-1.56 14.515-10.252 34.306-16.851 38.368-20.255 51.552-20.19 78.194.031 12.486.515 18.238 2.204 26.188 4.871 22.928 14.951 44.411 30.167 64.291 33.204 43.383 81.746 69.597 142.985 77.215 15.568 1.936 58.536 1.61 72.5-.551 56.05-8.675 103.346-32.323 141.541-70.771 29.761-29.958 48.31-63.849 56.58-103.372 2.396-11.451 2.729-15.324 2.799-32.5.087-21.254-.774-28.078-5.613-44.5-8.552-29.023-26.932-55.518-60.352-87-8.758-8.25-18.111-17.25-20.783-20-20.607-21.205-28.842-45.4-28.589-84l.112-17-5.348-.811c-45.505-6.906-71.299-18.446-93.15-41.673-7.472-7.943-17.694-22.248-19.736-27.62-1.525-4.01-.426-8.58 2.801-11.65 6.461-6.145 12.306-4.21 17.299 5.726 4.73 9.413 14.769 21.451 24.145 28.953 17.261 13.81 33.571 19.726 72.973 26.467 42.3 7.237 57.519 12.547 67.74 23.636 6.735 7.307 7.775 10.769 8.4 27.972.791 21.796 3.476 30.033 12.866 39.473 4.879 4.905 13.949 9.552 21.336 10.932 5.431 1.015 6.304.806 4.726-1.131-2.182-2.679-5.247-15.182-5.247-21.404 0-8.334 2.047-13.966 11.67-32.109 4.307-8.118 7.958-15.234 8.115-15.813.157-.578-2.044-1.649-4.891-2.379-2.847-.729-8.756-3.118-13.132-5.308-6.518-3.262-8.219-4.611-9.409-7.458-2.677-6.408 1.462-13.303 7.987-13.303 1.593 0 6.798 1.757 11.568 3.905 11.476 5.167 16.114 6.336 25.092 6.321 10.431-.016 17.852-2.948 24.636-9.732 10.556-10.556 11.158-24.655 1.876-43.994-5.626-11.723-15.253-24.444-37.08-49-30.074-33.834-40.93-47.585-59.81-75.756-11.551-17.235-20.478-28.012-28.424-34.317-8.479-6.728-24.073-14.111-34.698-16.429-10.637-2.321-31.136-3.282-41-1.922m43.439 82.343c-6.486 1.672-10.379 4.817-13.353 10.784-10.586 21.244 13.848 42.428 31.837 27.6 11.95-9.85 10.712-28.057-2.442-35.919-5.516-3.296-10.093-4-16.042-2.465M767.11 403.396c-7.529 4.172-6.388 13.333 2.405 19.308 7.74 5.259 16.484 3.845 18.294-2.959 1.742-6.552-1.04-11.186-9.14-15.223-5.67-2.825-8.072-3.059-11.559-1.126M557.685 700.537c-6.102 4.196-17.539 9.257-26.185 11.587-5.852 1.577-11.893 2.272-22.5 2.588-17.965.537-29.401-1.463-46.42-8.117-20.836-8.148-29.737-9.335-41.878-5.585-22.522 6.957-30.465 35.358-17.597 62.924 5.263 11.273 17.432 23.582 29.395 29.733 20.256 10.415 41.486 14.614 62.506 12.363 20.295-2.174 38.73-8.671 52.518-18.51 13.266-9.466 24.817-24.944 28.376-38.02 1.576-5.789 1.346-20.135-.431-26.958-1.823-7-6.533-16.145-10.851-21.071l-3.118-3.558-3.815 2.624"/><path fill="#e8af1e" fill-rule="evenodd" d="M461 99.025c-33.149 4.015-65.221 19.699-81.073 39.648-5.22 6.568-9.924 15.663-8.723 16.864.271.271 4.723-1.258 9.894-3.399 17.444-7.219 31.792-10.14 49.783-10.134 47.648.017 87.905 24.7 110.29 67.624 2.832 5.43 5.251 10.008 5.375 10.175.125.167 3.516-1.824 7.537-4.425 17.002-10.999 36.393-16.313 59.686-16.358l10.269-.02-.646-2.75c-1.746-7.439-9.544-23.828-15.792-33.19-21.15-31.69-59.204-55.24-101.1-62.566-10.977-1.919-35.297-2.705-45.5-1.469m174.347 69.725c3.94 7.887 7.116 17.191 8.902 26.077l1.271 6.326 10.99 3.728c13.496 4.577 21.515 8.758 32.24 16.809 4.538 3.406 8.25 5.626 8.25 4.933 0-2.788-3.425-12.519-6.729-19.121-10.634-21.246-29.611-37.843-50.203-43.903-8.386-2.469-8.477-2.368-4.721 5.151"/></svg>