<svg xmlns="http://www.w3.org/2000/svg" width="1024" height="1024"><path fill="#93461f" fill-rule="evenodd" d="M792.5 203c3.266 3.3 6.162 6 6.437 6 .275 0-2.171-2.7-5.437-6-3.266-3.3-6.162-6-6.437-6-.275 0 2.171 2.7 5.437 6m-599.145 82.5c-.003 4.95.166 7.101.376 4.78.209-2.321.212-6.371.005-9-.206-2.629-.378-.73-.381 4.22M834 324.5c3.543 3.575 6.667 6.5 6.942 6.5.275 0-2.399-2.925-5.942-6.5s-6.667-6.5-6.942-6.5c-.275 0 2.399 2.925 5.942 6.5M895.32 467c0 3.575.182 5.038.403 3.25.222-1.788.222-4.712 0-6.5-.221-1.788-.403-.325-.403 3.25M496 571.618c-8.962.625-21.918 2.339-30.952 4.094l-8.451 1.642 6.451 5.888c3.549 3.239 13.877 10.876 22.952 16.972 9.075 6.096 18.361 12.58 20.636 14.408l4.136 3.325 6.364-4.798c3.5-2.639 10.639-7.647 15.864-11.129 11.175-7.446 24.341-17.576 28.317-21.787l2.817-2.983-2.317-.573c-13.034-3.227-50.644-6.118-65.817-5.059M290 807.5c4.651 4.675 8.681 8.5 8.956 8.5.275 0-3.305-3.825-7.956-8.5s-8.681-8.5-8.956-8.5c-.275 0 3.305 3.825 7.956 8.5"/><path fill="#e8af1e" fill-rule="evenodd" d="M272.265 269.542c-13.734 3.698-26.589 13.556-34.996 26.835-7.407 11.699-10.125 29.182-6.836 43.964 6.556 29.471 34.767 50.421 65.636 48.744.962-.052 2.872-3.048 4.932-7.736 1.849-4.208 5.768-11.641 8.707-16.517 6.207-10.296 6.274-9.856-2.749-18.21-7.464-6.909-13.935-10.31-23.333-12.26-8.184-1.698-11.319-3.426-12.671-6.979-2.485-6.538.775-13.746 7.349-16.248 9.375-3.568 32.098 5.152 45.555 17.483 6.01 5.506 7.519 6.458 8.229 5.188.713-1.273 5.481-5.457 19.27-16.909 1.216-1.011-4.339-11.016-11.329-20.404-9.964-13.383-23.943-23.412-37.581-26.965-7.297-1.9-23.103-1.893-30.183.014m447.859-.022c-16.053 4.49-32.792 18.632-43.656 36.88l-5.894 9.901 3.42 2.599c1.881 1.43 6.848 5.609 11.038 9.286l7.617 6.687 6.085-5.687c13.083-12.226 33.722-20.819 44.956-18.715 6.921 1.296 10.986 10.657 7.535 17.354-1.978 3.838-3.69 4.669-14.725 7.149-2.75.617-6.972 2.07-9.382 3.228-5.228 2.511-15.071 10.518-18.02 14.66l-2.109 2.962 5.184 8.338c2.851 4.586 6.816 12.163 8.812 16.838l3.628 8.5 5.944-.324c17.909-.978 32.447-7.236 44.645-19.218 6.126-6.017 8.53-9.293 11.752-16.012 4.189-8.735 6.998-19.371 7.029-26.608.078-18.825-10.524-38.84-26.222-49.5-10.714-7.276-16.6-9.123-30.261-9.495-8.505-.232-13.566.111-17.376 1.177m-307.316 44.386c-11.153 2.439-14.519 3.557-24.471 8.132-48.526 22.307-82.044 80.19-79.02 136.462 1.924 35.799 14.861 66.154 40.701 95.5 5.085 5.775 10.192 12.525 11.35 15 2.306 4.929 2.439 9.494 1.619 55.5-.342 19.202-.186 21.685 1.819 29 7.204 26.284 24.389 43.879 53.249 54.52 9.301 3.43 11.465 4.93 12.382 8.586 1.336 5.322 9.316 16.868 15.855 22.94 21.425 19.894 64.596 27.249 98.208 16.733 21.968-6.874 38.397-19.89 45.963-36.416 1.4-3.058 3.331-6.265 4.291-7.127.96-.861 6.246-3.486 11.746-5.832 28.414-12.119 43.869-28.405 50.682-53.404 1.99-7.304 2.149-9.869 1.827-29.5-.798-48.694-.791-48.891 2.128-55 1.445-3.025 5.898-9.1 9.895-13.5 20.064-22.087 31.318-42.197 37.891-67.712 5.739-22.273 6.387-42.61 2.038-64.007-6.746-33.194-25.464-64.654-51.167-85.998-13.15-10.919-26.442-17.808-44.316-22.966-6.959-2.009-10.086-2.293-24.478-2.226-13.605.064-17.874.454-24.329 2.222-14.174 3.884-27.674 10.919-39.697 20.687-10.582 8.598-12.091 9.5-15.872 9.495-4.125-.006-5.694-.946-17.218-10.304-9.976-8.102-26.887-16.82-38.384-19.788-11.751-3.034-31.288-3.49-42.692-.997m-10.762 110.672c-7.801 7.047-10.729 23.022-6.71 36.605 5.293 17.893 22.418 20.201 30.33 4.088 2.59-5.275 2.834-6.716 2.834-16.771 0-10.006-.243-11.46-2.686-16.09-1.477-2.8-4.305-6.512-6.285-8.25-3.005-2.639-4.417-3.16-8.561-3.16-4.287 0-5.501.487-8.922 3.578m200.425-.418c-1.98 1.738-4.808 5.45-6.285 8.25-2.443 4.63-2.686 6.084-2.686 16.09 0 10.222.212 11.424 3 17 10.374 20.748 32.034 9.237 31.985-17-.019-10.399-2.397-17.33-7.928-23.102-3.909-4.08-4.586-4.398-9.351-4.398-4.339 0-5.695.491-8.735 3.16m-165.289 90.87c-2.017 1.23-4.094 3.777-5.297 6.496-4.588 10.374-6.221 32.502-3.386 45.886 2.015 9.509 6.084 17.71 13.259 26.72 7.12 8.939 17.024 16.87 37.742 30.22 17.544 11.305 19.507 12.847 19.478 15.308-.042 3.486-3.675 9.849-7.691 13.469-5.459 4.922-10.165 6.383-20.287 6.3-11.089-.092-19.934-3.007-28.093-9.261-10.984-8.42-12.177-9.168-14.605-9.168-3.199 0-7.995 2.558-9.272 4.945-1.893 3.536-1.212 10.324 1.426 14.205 3.181 4.681 13.411 12.4 21.102 15.922 9.568 4.381 17.12 5.928 28.942 5.928 15.34 0 22.484-2.157 38.087-11.501 3.073-1.84 3.104-1.837 6.5.714 4.68 3.515 12.345 7.247 18.845 9.175 6.969 2.068 23.475 2.12 33.253.104 14.503-2.99 31.148-13.624 35.703-22.809 2.142-4.318 2.265-5.228 1.196-8.798-2.043-6.817-10.437-10.053-16.111-6.211-1.36.921-4.301 3.328-6.536 5.349-12.798 11.571-32.254 15.117-46.12 8.405-5.764-2.791-10.81-9.211-11.93-15.179-.81-4.316-.324-4.744 20.422-17.981 18.382-11.728 30.366-21.175 36.769-28.986 5.805-7.08 11.834-19.638 13.473-28.062 2.346-12.064-.246-37.896-4.66-46.431-1.923-3.719-6.995-6.781-11.241-6.785-2.479-.003-4.234.88-6.75 3.396-3.89 3.89-4.136 5.895-1.997 16.285.772 3.748 1.724 10.144 2.116 14.213l.714 7.399-3.367-.724c-20.489-4.403-41.595-6.014-68.744-5.249-20.408.575-23.872.968-46.662 5.293l-3.04.577.717-8.847c.395-4.866 1.19-10.872 1.766-13.347 1.347-5.782 1.375-11.613.067-14.055-1.338-2.501-6.124-4.946-9.67-4.941-1.54.002-4.293.914-6.118 2.026"/><path fill-rule="evenodd" d="M412.635 105.135c-19.308 2.479-38.849 9.88-55.18 20.897-13.044 8.799-27.443 25.697-32.041 37.6l-1.595 4.132-12.206.057c-32.117.152-59.177 11.762-83.141 35.672-17.74 17.699-29.639 40.664-33.425 64.507-1.597 10.059-1.286 28.392.64 37.683l1.696 8.184-10.163 10.316c-5.59 5.675-12.505 13.242-15.367 16.817-14.003 17.491-29.581 45.937-36.295 66.276-9.75 29.539-12.742 63.205-8.021 90.276 3.976 22.8 16.261 45.609 25.11 46.622 3.286.376 3.162-1.518 1.397 21.326-3.343 43.256 6.858 89.059 26.904 120.801 5.457 8.639 14.678 17.129 21.072 19.4 2.739.973 4.98 2.046 4.98 2.384 0 1.257 10.548-1.103 12.979-2.904 2.791-2.067 6.342-11.342 5.707-14.901-.219-1.221-.063-2.013.345-1.761s1.057 2.139 1.443 4.192c1.164 6.207 7.353 27.008 10.15 34.117 3.494 8.879 12.43 26.802 18.2 36.507 10.925 18.374 32.659 43.563 50.176 58.154 20.277 16.889 44.906 28.962 61.5 30.148 5.905.422 7.512.176 10.275-1.569 1.801-1.138 3.702-3.194 4.225-4.568 1.164-3.062 2.129-3.135 4.595-.345 1.048 1.185 6.271 5.649 11.607 9.921 37.92 30.353 80.96 48.904 113.497 48.92 27.731.014 65.326-14.959 100.149-39.887 11.587-8.295 28.311-21.938 31.35-25.576l1.698-2.033-.532 2.125c-.779 3.11 3.163 10.079 6.75 11.934 12.129 6.272 50.477-14.898 80.269-44.313 35.243-34.797 56.366-73.439 66.245-121.184.41-1.982.941-1.189 2.835 4.23 3.109 8.897 5.474 12.749 9.489 15.455 6.417 4.324 13.374 2.053 21.735-7.095 16.342-17.88 29.752-51.293 34.979-87.152 2.119-14.537 2.365-47.067.446-58.848-1.265-7.764-1.254-7.864 1.055-9.447 5.137-3.523 10.177-10.195 14.884-19.705 8.922-18.027 12.66-38.244 11.649-63-1.981-48.511-22.89-95.79-58.785-132.925l-11.823-12.231 1.659-4.922c1.318-3.909 1.656-8.831 1.641-23.922-.017-17.835-.187-19.552-2.762-28-12.257-40.207-40.216-70.154-77.816-83.35-12.332-4.328-23.243-6.15-36.83-6.15h-11.795l-3.109-6.643c-17.685-37.791-69.175-62.476-116.791-55.992-23.716 3.229-47.838 14.251-63.589 29.053l-3.8 3.572-6.2-5.169c-26.003-21.679-59.77-31.834-92.065-27.686m1.179 23.875c-26.383 4.187-48.354 17.652-62.755 38.457l-4.131 5.967 5.786 2.887c10.863 5.422 14.65 11.017 12.292 18.16-2.722 8.25-9.759 9.549-21.94 4.049-12.151-5.487-19.405-6.787-35.066-6.283-11.755.377-14.728.839-23 3.575-27.47 9.085-50.789 31.056-61.074 57.543-3.167 8.156-6.764 26.162-5.468 27.373.449.419 1.02.19 1.269-.508 1.094-3.066 10.945-13.579 17.076-18.224 8.197-6.21 22.464-13.408 31.197-15.739 9.097-2.428 31.039-2.406 40 .04 8.204 2.239 18.423 6.866 27.786 12.581 10.879 6.639 24.639 22.666 33.105 38.558 1.743 3.271 3.301 6.08 3.464 6.243.163.162 3.438-1.252 7.278-3.144 26.469-13.04 60.396-15.307 89.055-5.952 12.08 3.943 25.421 10.796 34.822 17.886l8.608 6.493 2.691-2.561c9.734-9.262 29.718-19.782 45.854-24.137 9.077-2.45 11.381-2.658 29.837-2.685 16.078-.024 21.275.317 26.5 1.738 11.107 3.021 22.297 6.85 27.217 9.312 2.594 1.299 5.139 2.361 5.654 2.361.516 0 2.381-2.587 4.145-5.75 8.395-15.05 22.236-30.214 35.401-38.787 28.305-18.432 59.429-19.258 87.916-2.335 6.695 3.978 20.238 16.359 24.47 22.372l2.112 3-.552-5.5c-1.42-14.161-7.963-31.107-16.739-43.352-8.406-11.731-23.232-24.38-36.353-31.016-13.951-7.056-24.884-9.598-41.361-9.617-14.276-.017-23.187 1.795-33.91 6.893-8.679 4.126-14.069 4.177-18.077.169-2.403-2.403-2.923-3.761-2.923-7.632 0-4.044.472-5.154 3.344-7.863 1.84-1.735 6.452-4.666 10.25-6.515 3.799-1.848 7.051-3.477 7.228-3.619.903-.726-6.015-9.864-12.726-16.808-11.616-12.02-22.844-18.961-38.825-23.999-33.142-10.45-71.728-1.289-95.771 22.738-13.958 13.947-19.345 14.246-31.437 1.742-12.722-13.154-30.15-22.552-49.563-26.726-8.746-1.88-25.181-2.577-32.686-1.385M272.265 269.542c-13.514 3.639-26.849 13.755-34.714 26.335-7.718 12.344-10.457 29.457-7.118 44.464 6.562 29.499 34.738 50.423 65.636 48.744.962-.052 2.872-3.048 4.932-7.736 1.849-4.208 5.768-11.641 8.707-16.517 6.207-10.296 6.274-9.856-2.749-18.21-7.464-6.909-13.935-10.31-23.333-12.26-8.184-1.698-11.319-3.426-12.671-6.979-2.485-6.538.775-13.746 7.349-16.248 9.375-3.568 32.098 5.152 45.555 17.483 6.01 5.506 7.519 6.458 8.229 5.188.713-1.273 5.481-5.457 19.27-16.909 1.216-1.011-4.339-11.016-11.329-20.404-9.964-13.383-23.943-23.412-37.581-26.965-7.297-1.9-23.103-1.893-30.183.014m447.859-.022c-16.053 4.49-32.792 18.632-43.656 36.88l-5.894 9.901 3.42 2.599c1.881 1.43 6.848 5.609 11.038 9.286l7.617 6.687 6.085-5.687c13.083-12.226 33.722-20.819 44.956-18.715 6.734 1.261 10.88 10.419 7.725 17.066-1.999 4.213-3.817 5.306-10.711 6.436-2.862.47-7.703 1.792-10.757 2.939-5.879 2.207-17.253 10.9-20.825 15.917l-2.133 2.995 5.184 8.338c2.851 4.586 6.816 12.163 8.812 16.838l3.628 8.5 5.944-.324c18-.983 32.452-7.181 44.558-19.109 6.201-6.11 8.614-9.396 11.839-16.121 4.189-8.735 6.998-19.371 7.029-26.608.078-18.825-10.524-38.84-26.222-49.5-10.714-7.276-16.6-9.123-30.261-9.495-8.505-.232-13.566.111-17.376 1.177m-307.316 44.383c-11.159 2.444-14.524 3.563-24.471 8.135-48.526 22.307-82.044 80.19-79.02 136.462 2.012 37.432 15.506 67.878 44.087 99.473 3.248 3.59 6.842 8.552 7.987 11.027 2.279 4.924 2.414 9.625 1.596 55.5-.342 19.202-.186 21.685 1.819 29 7.231 26.381 25.199 44.604 54.189 54.957 8.186 2.924 10.538 4.55 11.373 7.867 1.405 5.577 7.567 14.77 14.551 21.709 9.145 9.087 21.144 15.483 36.581 19.498 12.595 3.276 32.109 4.347 45.707 2.508 29.702-4.018 53.672-19.242 63.256-40.176 1.4-3.058 3.345-6.284 4.323-7.169.978-.885 6.135-3.423 11.46-5.639 28.067-11.681 44.126-28.565 50.936-53.555 1.99-7.304 2.149-9.869 1.827-29.5-.798-48.694-.791-48.891 2.128-55 1.445-3.025 5.898-9.1 9.895-13.5 20.064-22.087 31.318-42.197 37.891-67.712 8.857-34.373 5.583-67.184-9.914-99.352-16.482-34.216-43.923-60.226-74.509-70.625-14.476-4.922-23.223-6.19-38-5.508-22.808 1.054-42.615 8.848-60.216 23.697-9.09 7.669-11.306 8.989-15.1 8.995-4.19.006-6.129-1.049-13.65-7.429-12.676-10.754-25.472-17.796-40.181-22.114-12.313-3.614-31.989-4.299-44.545-1.549m-213.087 31.388C167.03 382.527 149.84 425.165 149.847 469c.002 16.579 1.477 27.505 5.405 40.048 1.257 4.014 2.727 7.422 3.267 7.573.54.151 2.556-2.229 4.481-5.289 7.176-11.406 23.334-25.958 32.225-29.021 7.411-2.554 13.775 2.566 13.775 11.083 0 4.266-.37 4.832-8.364 12.785-7.051 7.014-9.076 9.813-12.895 17.821-7.83 16.419-10.741 31.605-10.741 56.038 0 24.608 5.013 51.463 13.764 73.735C194.72 663.845 202.359 678 203.837 678c.412 0 1.316-2.124 2.011-4.72 3.517-13.15 17.568-36.826 23.535-39.658 5.55-2.633 10.535-1.773 14.521 2.505 1.922 2.063 2.096 3.421 2.1 16.312.008 27.171 6.812 53.513 21.068 81.561 18.095 35.601 47.138 68.166 75.689 84.865 3.706 2.168 7.817 4.262 9.135 4.652 2.768.821 2.973 1.955-2.397-13.269-3.648-10.342-5.381-21.596-4.108-26.67.778-3.098 5.958-6.569 9.812-6.574 5.24-.008 7.746 2.093 11.841 9.926 5.778 11.053 12.227 19.105 26.109 32.606 26.211 25.489 57.454 45.049 88.584 55.457 15.815 5.288 24.995 6.526 37.263 5.025 25.339-3.099 64.402-22.342 93.74-46.178 19.231-15.624 37.101-35.206 43.333-47.483 3.596-7.085 6.405-9.864 10.99-10.871 3.77-.828 8.903 2.009 10.822 5.981 1.796 3.718.117 18.663-3.497 31.127-1.375 4.745-2.329 8.799-2.118 9.009.21.21 3.497-1.489 7.306-3.777 22.724-13.647 48.153-38.727 64.715-63.826 13.483-20.432 22.269-40.47 28.151-64.203 4.173-16.835 5.737-29.377 4.899-39.292-1.043-12.337 2.919-18.492 11.906-18.501 6.587-.007 14.962 9.444 23.479 26.496 2.198 4.4 4.544 9.688 5.213 11.75.669 2.063 1.662 3.75 2.208 3.75 1.665 0 11.442-21.8 15.249-34 7.517-24.093 10.055-43.056 9.349-69.857-.414-15.726-.889-20.15-3.031-28.275-4.196-15.918-8.658-23.897-19.416-34.726-9.239-9.298-9.298-9.389-9.298-14.35 0-4.374.434-5.426 3.51-8.502 3.149-3.149 3.892-3.441 7.25-2.848 8.431 1.491 24.381 15.357 32.934 28.633 2.093 3.249 4.071 5.911 4.394 5.916 1.145.017 6.921-19.629 8.523-28.991 3.456-20.195.283-50.926-7.589-73.5-7.382-21.172-22.895-47.765-38.136-65.377l-7.249-8.377-2.209 8.095c-9.572 35.07-36.978 58.743-74.327 64.205l-7.761 1.134 1.237 4.768c3.591 13.847 4.437 39.715 1.894 57.949-4.678 33.536-18.788 62.762-44.316 91.793-5.949 6.765-8.704 10.722-9.095 13.063-.308 1.847-.148 15.145.355 29.552 1.286 36.817-.747 51.39-9.65 69.195-10.63 21.257-31.877 39.229-57.851 48.933-3.672 1.372-4.993 2.546-6.625 5.89-5.343 10.947-17.193 23.101-31.669 32.484-43.917 28.461-114.981 22.001-148.783-13.525-4.786-5.03-11.011-13.81-15.399-21.719-.584-1.053-3.284-2.671-6-3.596-21.011-7.157-42.019-23.71-53.263-41.967-5.51-8.947-10.158-21.641-12.296-33.576-1.355-7.567-1.645-25.401-.895-55.101l.484-19.177-2.984-3.49c-20.938-24.487-25.859-31.36-33.765-47.156-6.654-13.295-11.317-26.637-14.371-41.121-2.425-11.505-2.718-15.012-2.741-32.879-.02-15.049.421-22.446 1.778-29.883 2.07-11.339 1.958-11.577-5.475-11.602-10.611-.035-28.495-6.565-40.601-14.823-6.636-4.527-17.379-15.414-22.221-22.519-6.58-9.654-13.088-26.122-13.088-33.116 0-1.406-.395-2.557-.878-2.557s-3.363 2.831-6.401 6.291m202.325 79.287c-7.801 7.047-10.729 23.022-6.71 36.605 5.293 17.893 22.418 20.201 30.33 4.088 2.59-5.275 2.834-6.716 2.834-16.771 0-10.006-.243-11.46-2.686-16.09-1.477-2.8-4.305-6.512-6.285-8.25-3.005-2.639-4.417-3.16-8.561-3.16-4.287 0-5.501.487-8.922 3.578m200.425-.418c-1.98 1.738-4.808 5.45-6.285 8.25-2.443 4.63-2.686 6.084-2.686 16.09 0 10.222.212 11.424 3 17 3.919 7.838 8.209 10.845 14.622 10.248 6.469-.602 10.221-3.669 14.082-11.51 2.944-5.981 3.293-7.593 3.291-15.214-.001-10.934-2.282-17.723-7.938-23.626-3.909-4.08-4.586-4.398-9.351-4.398-4.339 0-5.695.491-8.735 3.16m-165.289 90.87c-2.017 1.23-4.094 3.777-5.297 6.496-4.588 10.374-6.221 32.502-3.386 45.886 2.015 9.509 6.084 17.71 13.259 26.72 7.12 8.939 17.024 16.87 37.742 30.22 17.544 11.305 19.507 12.847 19.478 15.308-.042 3.486-3.675 9.849-7.691 13.469-5.459 4.922-10.165 6.383-20.287 6.3-11.089-.092-19.934-3.007-28.093-9.261-10.984-8.42-12.177-9.168-14.605-9.168-3.199 0-7.995 2.558-9.272 4.945-1.893 3.536-1.212 10.324 1.426 14.205 3.181 4.681 13.411 12.4 21.102 15.922 9.568 4.381 17.12 5.928 28.942 5.928 15.34 0 22.484-2.157 38.087-11.501 3.073-1.84 3.104-1.837 6.5.714 4.68 3.515 12.345 7.247 18.845 9.175 6.969 2.068 23.475 2.12 33.253.104 14.503-2.99 31.148-13.624 35.703-22.809 2.142-4.318 2.265-5.228 1.196-8.798-2.043-6.817-10.437-10.053-16.111-6.211-1.36.921-4.301 3.328-6.536 5.349-12.798 11.571-32.254 15.117-46.12 8.405-5.764-2.791-10.81-9.211-11.93-15.179-.81-4.316-.324-4.744 20.422-17.981 18.382-11.728 30.366-21.175 36.769-28.986 5.805-7.08 11.834-19.638 13.473-28.062 2.346-12.064-.246-37.896-4.66-46.431-1.923-3.719-6.995-6.781-11.241-6.785-2.479-.003-4.234.88-6.75 3.396-3.89 3.89-4.136 5.895-1.997 16.285.772 3.748 1.724 10.144 2.116 14.213l.714 7.399-3.367-.724c-20.489-4.403-41.595-6.014-68.744-5.249-20.408.575-23.872.968-46.662 5.293l-3.04.577.717-8.847c.395-4.866 1.19-10.872 1.766-13.347 1.347-5.782 1.375-11.613.067-14.055-1.338-2.501-6.124-4.946-9.67-4.941-1.54.002-4.293.914-6.118 2.026M496 571.618c-8.962.625-21.918 2.339-30.952 4.094l-8.451 1.642 6.451 5.888c3.549 3.239 13.877 10.876 22.952 16.972 9.075 6.096 18.361 12.58 20.636 14.408l4.136 3.325 6.364-4.798c3.5-2.639 10.639-7.647 15.864-11.129 11.175-7.446 24.341-17.576 28.317-21.787l2.817-2.983-2.317-.573c-13.034-3.227-50.644-6.118-65.817-5.059"/><path fill="#c97518" fill-rule="evenodd" d="M413.814 129.009c-14.123 2.244-29.064 7.939-39.293 14.977-7.529 5.179-17.467 15.017-22.709 22.478l-4.893 6.965 5.791 2.89c10.905 5.443 15.113 11.867 12.269 18.732-3.139 7.578-10.361 8.906-20.979 3.857-10.461-4.974-19.7-6.908-33-6.908-13.039 0-21.816 1.784-34.257 6.963-22.321 9.292-44.019 31.594-52.75 54.217-3.235 8.383-6.841 26.337-5.535 27.558.449.419 1.02.19 1.269-.508 1.094-3.066 10.945-13.579 17.076-18.224 8.197-6.21 22.464-13.408 31.197-15.739 9.097-2.428 31.039-2.406 40 .04 8.204 2.239 18.423 6.866 27.786 12.581 10.879 6.639 24.639 22.666 33.105 38.558 1.743 3.271 3.301 6.08 3.464 6.243.163.162 3.438-1.252 7.278-3.144 26.466-13.038 60.231-15.298 89.094-5.962 11.83 3.826 25.29 10.737 34.623 17.776l8.411 6.344 7.37-5.924c9.501-7.638 28.358-16.969 41.369-20.47 9.26-2.491 11.479-2.692 30-2.717 17.779-.023 20.941.229 28.469 2.268 10.508 2.847 19.448 5.878 24.031 8.149 7.462 3.698 7.276 3.772 12.324-4.916 27.943-48.091 79.13-64.438 122.009-38.965 6.716 3.991 20.29 16.409 24.453 22.372l2.094 3-.576-6c-3.283-34.162-30.824-67.31-65.892-79.303-10.183-3.483-18.645-4.491-32.796-3.91-13.946.573-20.674 2.139-30.333 7.057-7.348 3.741-13.445 3.648-17.36-.267-2.403-2.403-2.923-3.761-2.923-7.632 0-4.095.461-5.143 3.534-8.042 1.944-1.834 6.557-4.761 10.25-6.506 3.694-1.744 6.869-3.3 7.056-3.457.947-.797-8.515-12.803-14.978-19.005-11.686-11.214-21.432-17.015-36.647-21.812-29.062-9.164-62.296-3.279-87.119 15.426-4.42 3.33-9.287 7.555-10.816 9.387-4.061 4.868-10.041 8.564-13.854 8.564-5.437 0-8.474-1.755-15.363-8.879-16.316-16.87-41.151-27.623-66.063-28.603-5.775-.227-13.059-.006-16.186.491M199.721 345.291C167.03 382.527 149.84 425.165 149.847 469c.002 16.579 1.477 27.505 5.405 40.048 1.257 4.014 2.727 7.422 3.267 7.573.54.151 2.556-2.229 4.481-5.289 7.176-11.406 23.334-25.958 32.225-29.021 7.411-2.554 13.775 2.566 13.775 11.083 0 4.266-.37 4.832-8.364 12.785-7.051 7.014-9.076 9.813-12.895 17.821C179.964 540.307 177 555.629 177 579.521c0 24.845 5.055 52.086 13.783 74.272C194.597 663.49 202.422 678 203.837 678c.411 0 1.316-2.124 2.011-4.72 1.916-7.164 8.514-20.598 14.634-29.796C226.002 635.187 230.032 632 235 632c3.35 0 8.581 2.827 9.796 5.295.597 1.213 1.296 10.08 1.552 19.705.373 14.003.966 19.611 2.965 28.064 9.716 41.082 29.709 76.635 60.499 107.584 13.568 13.637 33.654 28.371 42.084 30.869 2.768.821 2.973 1.955-2.397-13.269-3.648-10.342-5.381-21.596-4.108-26.67.778-3.098 5.958-6.569 9.812-6.574 5.24-.008 7.746 2.093 11.841 9.926 5.778 11.053 12.227 19.105 26.109 32.606 27.038 26.293 59.063 46.081 91.236 56.374 20.16 6.449 34.203 6.209 55.861-.955 43.446-14.37 99.299-57.156 115.933-88.808 3.862-7.349 5.379-8.936 9.817-10.265 4.332-1.298 8.913.529 11.596 4.624 2.707 4.131.928 17.52-5.231 39.391l-.675 2.397 4.905-2.683c15.015-8.211 37.897-27.977 52.516-45.365 15.776-18.763 30.044-43.283 37.276-64.06 7.778-22.345 12.113-45.966 10.954-59.681-1.043-12.337 2.919-18.492 11.906-18.501 6.587-.007 14.962 9.444 23.479 26.496 2.198 4.4 4.544 9.688 5.213 11.75.669 2.063 1.659 3.75 2.2 3.75 1.498 0 10.318-19.171 14.285-31.048 7.31-21.886 10.577-42.942 10.575-68.163-.002-22.796-2.865-36.727-10.681-51.972-3.614-7.049-6.038-10.182-12.885-16.651-8.248-7.794-8.433-8.071-8.433-12.663 0-8.689 5.223-13.64 12.322-11.68 8.635 2.385 23.075 15.322 31.178 27.934 2.2 3.424 4.229 6.229 4.509 6.234.28.005 1.507-2.803 2.727-6.241 8.567-24.136 9.506-51.811 2.73-80.478-4.106-17.375-15.548-44.793-20.441-48.983-1.057-.905-1.694-2.015-1.415-2.467.28-.452.005-.822-.61-.822s-.88-.385-.589-.855c.754-1.22-10.585-17.474-19.34-27.724l-7.428-8.697-2.212 8.106c-5.887 21.568-18.147 38.387-36.931 50.665-12.013 7.852-24.368 12.21-39.59 13.965l-5.59.644 1.247 4.806c3.601 13.885 4.45 39.73 1.904 57.987-4.75 34.05-19.632 64.452-45.748 93.456-4.964 5.513-7.243 8.888-7.647 11.326-.317 1.91-.291 10.076.058 18.147 1.142 26.451.938 44.501-.602 53.293-3.753 21.428-12.514 38.022-27.659 52.385-10.182 9.657-19.258 15.415-36.982 23.463-6.109 2.773-6.902 3.512-10.5 9.767-7.723 13.429-26.76 29.245-44.403 36.891-44.605 19.329-104.602 9.815-134.048-21.258-5.49-5.793-12.159-14.962-15.229-20.939-1.145-2.229-2.762-3.422-5.895-4.351-7.419-2.198-23.795-11.163-31.211-17.086-21.841-17.444-32.745-37.996-35.712-67.31-.805-7.963-.852-17.801-.161-34.181 1.32-31.336 1.354-31.1-5.589-38.761-24.365-26.888-38.122-52.79-44.806-84.36-2.439-11.525-2.729-14.982-2.753-32.879-.021-15.126.415-22.408 1.789-29.883 2.083-11.338 1.971-11.577-5.463-11.602-10.611-.035-28.495-6.565-40.601-14.823-6.636-4.527-17.379-15.414-22.221-22.519-6.58-9.654-13.088-26.122-13.088-33.116 0-1.406-.395-2.557-.878-2.557s-3.363 2.831-6.401 6.291"/></svg>