<svg xmlns="http://www.w3.org/2000/svg" width="1024" height="1024"><path fill-rule="evenodd" d="M545.717 72.043c-24.015 2.516-50.002 9.944-70.661 20.197-14.179 7.037-25.223 14.764-36.056 25.227-4.125 3.984-10.547 8.911-14.271 10.949-17.82 9.752-30.354 25.133-36.738 45.084-1.722 5.381-2.355 10.273-2.738 21.151-.462 13.094-.304 14.829 2.108 23.237 3.026 10.552 7.309 19.743 12.167 26.112 12.788 16.765 12.905 16.978 13.304 24.039.317 5.6-.042 7.529-2.279 12.257-4.914 10.388-13.984 15.534-28.782 16.33-11.925.641-13.302.954-15.743 3.575-5.435 5.833-.274 13.957 11.198 17.627 13.058 4.177 16.893 4.674 35.274 4.574 16.028-.086 19.071-.382 27.777-2.699 30.493-8.114 52.596-26.783 69.531-58.726 10.15-19.146 15.947-44.213 14.795-63.977-.337-5.775-1.013-12.191-1.504-14.257-.805-3.392-.683-3.802 1.255-4.218 8.891-1.911 22.307-2.863 48.646-3.452l30.5-.683 10.786 5.284c12.823 6.282 17.722 9.055 27.714 15.69 9.519 6.32 34.146 24.491 35.602 26.267.605.74 1.392 5.124 1.747 9.742 1.607 20.906 7.544 55.971 12.508 73.867l1.869 6.74-4.266 8.26c-7.736 14.978-15.617 41.403-19.085 63.993l-1.688 11-3.594 1.417c-24.375 9.613-50.105 31.147-63.434 53.088-3.541 5.829-4.034 6.223-10.438 8.335-3.696 1.219-9.139 3.276-12.095 4.572-2.956 1.295-5.544 2.355-5.75 2.355-.207 0-.376-1.947-.376-4.326 0-5.909-2.559-23.672-5.108-35.452-4.546-21.013-12.878-37.032-26.823-51.57-7.485-7.803-11.761-10.583-21.618-14.053a3399.183 3399.183 0 0 1-15.951-5.679c-7.743-2.78-10.397-3.245-19-3.326-8.824-.083-10.659.215-15.607 2.535-9.382 4.4-13.982 12.931-10.55 19.568 2.189 4.233 7.627 8.736 14.914 12.351 9.152 4.54 12.182 7.205 17.917 15.759 6.397 9.54 16.024 22.308 21.091 27.971l3.828 4.278-.797 6.222c-1.498 11.708-.868 47.365 1.019 57.597l1.728 9.376-3.771 3.261-3.772 3.261-2.16-8.637c-3.152-12.602-9.807-31.292-14.898-41.84-2.443-5.062-4.447-10.012-4.453-11-.025-4.102-3.231-11.892-7.603-18.467-8.155-12.267-23.578-22.807-40.886-27.941-9.013-2.674-30.683-3.695-40.89-1.926-9.041 1.566-20.443 6.945-24.488 11.552-3.518 4.006-3.712 5.138-1.707 9.938 1.702 4.073 3.02 4.839 12.085 7.032 3.85.932 11.206 3.71 16.346 6.174 8.314 3.985 10.624 5.747 20.905 15.943 6.358 6.304 14.285 13.512 17.617 16.016l6.058 4.554.105 18.165c.102 17.585.205 18.456 3.23 27.329 1.719 5.041 4.516 11.922 6.216 15.29 1.701 3.368 2.888 6.454 2.64 6.856-.249.403-2.436 2.156-4.86 3.897l-4.407 3.165-1.856-5.186c-10.798-30.182-30.433-53.905-53.963-65.198-12.315-5.91-19.372-7.456-34.121-7.474-18.441-.023-29.856 3.406-44.899 13.487C299.734 494.405 288 507.67 288 514.473c0 4.022 2.443 7.396 6.616 9.14 4.017 1.678 9.772.666 18.526-3.259l5.641-2.53 8.359 1.694c4.597.932 13.983 3.485 20.858 5.673 6.875 2.189 17.164 5.205 22.864 6.703l10.363 2.723 3.459 11.423c4.054 13.39 8.812 25.221 14.773 36.737 3.062 5.915 3.822 8.131 2.663 7.767-4.734-1.487-37.36-3.534-56.122-3.522-37.707.025-62.055 5.265-90.522 19.48-37.113 18.532-62.188 47.745-72.959 84.998-4.99 17.257-5.992 25.369-5.992 48.5s1.002 31.243 5.992 48.5c7.37 25.492 24.731 53.5 33.162 53.5 3.252 0 7.646-2.874 9.397-6.146.586-1.094 1.702-8.653 2.481-16.797 2.315-24.207 5.782-37.568 14.418-55.557 4.777-9.952 15.714-26.709 17.556-26.9 1.045-.108 1.042-.147 1.426 15.4.547 22.115-.467 33.216-4.502 49.29-3.301 13.153-3.26 17.933.178 20.637 1.449 1.14 3.362 2.054 4.25 2.031 3.242-.084 8.233-3.658 16.714-11.966 19.275-18.884 31.598-38.098 38.827-60.54 4.81-14.929 5.832-22.507 5.996-44.452l.154-20.5 3.595-5c3.994-5.556 7.949-13.123 9.72-18.598l1.164-3.598 11.722-.652c10.363-.577 16.094-1.55 23.973-4.068l2.25-.719v13.391c0 21.207 3.668 38.164 11.727 54.216 7.933 15.8 15.44 22.203 24.889 21.228 4.593-.474 6.036-.126 11.566 2.786 8.505 4.48 21.771 9.031 34.13 11.708 8.622 1.869 13.262 2.205 30.188 2.19 17.847-.015 21.374-.307 32.767-2.71 7.021-1.481 17.075-4.072 22.34-5.759 5.266-1.687 9.717-2.92 9.891-2.741.174.179 2.405 3.026 4.958 6.326 2.553 3.3 7.804 9.263 11.668 13.251l7.025 7.251-7.823 7.38-7.824 7.381-9.501.687c-35.9 2.597-71.819 18.249-97.11 42.316-10.27 9.774-14.948 16.562-15.639 22.693-.423 3.748-.119 4.765 2.081 6.965 3.204 3.204 6.551 3.294 24.271.655 17.796-2.65 37.064-4.68 62.761-6.611l8.865-.667-1.865 3.273c-2.845 4.991-18.119 20.127-24.865 24.64-17.418 11.654-34.87 17.466-61 20.317-14.754 1.61-18.5 3.725-18.5 10.446 0 3.826 7.817 11.653 15.855 15.877 25.055 13.167 62.829 16.97 96.2 9.687 37.437-8.171 73.486-32.511 93.659-63.239 25.3-38.537 28.972-79.325 10.743-119.328-4.074-8.939-11.277-20.491-15.808-25.352l-3.149-3.378 3 .662c1.65.365 11.597.933 22.103 1.263 15.517.488 21.035.278 29.389-1.119 5.689-.951 10.558-1.33 10.897-.846.336.48 2.607 3.781 5.047 7.334 2.441 3.554 8.204 11.123 12.807 16.82 4.604 5.696 9.49 12.048 10.857 14.114 3.94 5.954 8.238 23.63 9.489 39.028 1.237 15.231 2.514 19.226 6.865 21.476 3.989 2.063 6.993 1.203 12.388-3.546 8.295-7.301 16.229-23.597 19.198-39.43 2.018-10.763 1.561-32.77-.863-41.515-5.543-19.995-16.363-35.798-33.17-48.447-20.369-15.33-42.82-22.756-76.007-25.141-5.5-.395-9.408-.918-8.685-1.163.723-.244 1.743-1.572 2.267-2.951.758-1.992 1.412-2.371 3.186-1.845 9.423 2.793 19.547 3.911 35.232 3.893 19.966-.023 27.171-1.541 42.34-8.92l9.34-4.543 5.66 5.364c6.882 6.522 16.291 13.197 25.66 18.203 6.228 3.328 7.777 4.806 14.051 13.403 3.879 5.314 9.887 14.278 13.352 19.919 9.392 15.292 13.483 17.455 20.368 10.768 3.918-3.804 4.131-4.293 5.673-12.959 2.984-16.767-.797-39.445-9.429-56.566-11.629-23.066-34.079-38.644-64.444-44.717-6.648-1.33-13.812-1.71-31.936-1.696-22.073.017-23.25-.075-21.282-1.669 1.145-.927 5.262-2.404 9.147-3.282 16.281-3.676 41.116-16.633 49.924-26.045 1.334-1.425 2.933-2.591 3.555-2.591.621 0 3.355 1.414 6.075 3.142 9.257 5.882 20.925 11.648 30.946 15.294 16.469 5.993 17.62 6.666 27.584 16.148 10.568 10.055 13.305 11.299 18.916 8.6 5.838-2.809 7.199-6.81 6.696-19.684-.35-8.95-.978-12.51-3.367-19.102-9.516-26.249-31.226-45.424-57.537-50.818-11.063-2.268-31.739-2.08-43.745.397-5.199 1.072-9.591 1.812-9.76 1.643-.169-.168 1.214-2.298 3.072-4.732 13.005-17.032 26.941-48.323 30.625-68.764.632-3.506 2.321-8.231 3.753-10.5 6.32-10.009 14.684-31.914 18.796-49.22 3.782-15.92 5.605-32.308 5.441-48.904-.108-10.944.291-16.758 1.479-21.5.981-3.922 1.86-13.045 2.215-23 1.51-42.352-10.3-84.026-34.431-121.5-3.896-6.05-9.124-14.15-11.618-18-2.494-3.85-8.392-11.378-13.106-16.728-32.741-37.155-81.954-62.364-138.144-70.762-15.964-2.386-47.924-3.406-61.652-1.967m-7.644 22.544c-24.761 3.604-49.398 12.679-68.39 25.191l-6.901 4.546 8.841 2.882c18.128 5.908 31.81 16.214 42.053 31.675.139.21 5.106-.427 11.038-1.415 7.755-1.291 18.935-1.96 39.786-2.381l29-.585 5.348-2.962c9.645-5.343 16.841-15.326 19.295-26.771 1.237-5.766.623-18.566-1.121-23.391-1.061-2.934-1.626-3.221-9.326-4.731-19.653-3.853-50.934-4.778-69.623-2.058m100.008 12.163c1.397 6.014 1.052 19.95-.658 26.546-1.936 7.471-4.335 12.325-10.144 20.522-2.462 3.475-4.32 6.457-4.128 6.627.192.17 2.343 1.315 4.78 2.545 8.394 4.235 27.435 16.407 41.716 26.666 16.607 11.931 20.455 14.061 27.877 15.433 14.797 2.735 35.48-7.071 44.474-21.086l3.226-5.027-5.785-7.738c-7.097-9.493-19.588-22.529-28.939-30.204-16.773-13.766-42.018-28.037-61.83-34.952-11.488-4.01-11.672-3.999-10.589.668m-199.457 39.887c-18.885 5.799-31.861 26.027-31.985 49.863-.081 15.337 5.008 29.079 16.217 43.796 10.016 13.152 13.343 23.998 11.177 36.437-1.227 7.044-5.599 16.428-9.733 20.888-1.326 1.431-2.156 2.856-1.844 3.168 1.053 1.053 15.717-1.78 21.679-4.188 9.265-3.742 16.378-8.461 25.288-16.776 12.71-11.862 21.758-26.142 27.715-43.743 10.563-31.211 6.713-58.35-10.726-75.606-13.176-13.038-32.332-18.586-47.788-13.839M752 204.14c-6.746 6.079-17.988 13.242-25.504 16.251-3.675 1.471-11.293 3.388-16.928 4.26-9.493 1.469-10.222 1.742-9.923 3.717.177 1.173 1.031 8.657 1.898 16.632 1.562 14.367 7.018 44.174 10.114 55.25l1.607 5.75h7.237c7.345 0 22.124 2.154 28.499 4.153 1.925.604 7.343 2.583 12.041 4.399 4.697 1.816 11.268 3.61 14.601 3.987l6.06.686.638-3.863c.996-6.03.77-31.006-.366-40.388-1.608-13.291-4.884-28.536-8.59-39.974-3.291-10.158-14.828-35.044-16.206-34.957-.373.023-2.703 1.867-5.178 4.097m-42.651 122.786c-3.74 1.628-11.471 24.399-17.265 50.848-3.818 17.43-3.815 17.226-.196 17.226 4.773 0 20.015 4.841 29.776 9.457 12.891 6.097 22.001 12.246 31.289 21.121l8.017 7.658 1.908-4.45c9.283-21.658 17.497-57.852 18.363-80.919l.286-7.632-5.614-.509c-3.088-.28-10.969-2.4-17.514-4.71-6.544-2.31-15.049-5.082-18.899-6.159-7.809-2.185-26.778-3.4-30.151-1.931m-223.273 41.238-3.424.983 2.924 2.401c1.608 1.321 4.571 3.571 6.584 5l3.66 2.599 4.09-2.706c2.25-1.489 4.09-3.118 4.09-3.62 0-1.241-10.008-5.821-12.5-5.721-1.1.044-3.541.523-5.424 1.064m23.211 15.102c-2.317 1.779-4.229 3.522-4.25 3.874-.108 1.858 23.058 30.683 26.739 33.27 4.83 3.395 10.284 3.958 12.909 1.333 1.412-1.412 1.485-2.231.495-5.537-1.453-4.848-10.396-19.67-15.575-25.814-4.073-4.831-11.887-10.403-14.551-10.376-.855.009-3.45 1.471-5.767 3.25m152.744 36.799c-5.208 2.764-11.958 6.869-15 9.123-5.649 4.184-26.031 24.296-26.031 25.686 0 .422 3.411 1.298 7.579 1.946 25.441 3.955 55.256 21.467 71.744 42.139 5.585 7.002 14.677 24.053 14.677 27.525 0 3.136 1.839 1.224 8.397-8.734 8.491-12.891 21.3-38.876 26.216-53.183l3.756-10.932-10.529-10.068c-19.781-18.911-41.353-28.602-63.548-28.548-7.417.018-8.248.261-17.261 5.046M405 416.658c-.825.275-2.175.736-3 1.024-.919.321.049.997 2.5 1.746 2.2.672 5.955 2.458 8.344 3.969 2.39 1.511 4.547 2.546 4.793 2.299.247-.246.699-1.991 1.005-3.877.556-3.425.55-3.431-4.619-4.624-5.487-1.267-6.63-1.335-9.023-.537m25.833 10.263c-.091 2.793-.204 5.723-.25 6.509-.097 1.673 23.041 22.807 27.488 25.107 3.802 1.966 6.528 1.14 8.44-2.558 3.157-6.105 1.492-9.904-8.45-19.283-7.023-6.625-17.32-12.744-23.811-14.151l-3.25-.704-.167 5.08M547.5 439.536c-1.65.756-5.117 1.394-7.705 1.419-4.617.044-4.719.115-5.5 3.795-1.018 4.802-1.045 46.832-.03 47.848.421.421 2.221-.592 4-2.251 1.779-1.658 6.641-5.752 10.804-9.097l7.568-6.082-.782-7.834c-1.157-11.592-4.034-29.346-4.74-29.253-.338.045-1.965.7-3.615 1.455m-75 33.519c-2.2.994-4.788 2.05-5.75 2.345-1.557.478-1.748 2.057-1.735 14.319.015 14.234 1.201 21.763 5.086 32.281 1.117 3.025 2.686 6.512 3.487 7.749l1.456 2.248 3.742-2.362c2.058-1.299 6.116-3.565 9.016-5.035 5.205-2.637 5.267-2.722 4.657-6.386-1.448-8.703-4.716-19.732-9.326-31.473-6.641-16.915-5.822-15.861-10.633-13.686m125 3.759c-11.605 4.69-19.514 8.78-29.411 15.208-9.306 6.045-21.885 15.826-25.408 19.758-1.78 1.987-1.759 2.042 1 2.572 1.55.298 5.294.836 8.319 1.196 36.546 4.343 72.302 25.844 91.527 55.036 9.575 14.54 15.772 31.024 17.122 45.545.351 3.779.997 6.871 1.435 6.871 1.022 0 16.032-20.939 22.925-31.982 11.045-17.692 14.748-29.394 13.611-43.017-1.398-16.774-7.043-28.447-20.098-41.568-18.263-18.352-44.184-31.129-65.022-32.05-8.084-.357-9.712-.11-16 2.431m-245.75 12.831c-1.308.375-1.75 1.559-1.75 4.685 0 2.301-.444 5.732-.987 7.625-.705 2.456-.66 3.645.154 4.148 1.687 1.043 30.749 9.056 34.902 9.624 7.132.975 12.517-8.132 8.464-14.316-1.968-3.004-13.441-8.596-21.033-10.251-6.122-1.335-17.371-2.198-19.75-1.515m-20.25 2.543c-8.26 4.337-19.974 14.743-14.025 12.46.811-.311 5.262-1.096 9.891-1.743l8.417-1.178.597-3.613c.819-4.948.767-8.123-.13-8.07-.413.025-2.55.989-4.75 2.144m72.75 27.59c-2.337 3.576-4.244 7.676-4.237 9.112.029 5.818 15.722 47.11 17.904 47.11.348 0 3.904-3.293 7.902-7.318l7.269-7.318-2.652-7.432c-3.787-10.611-10.528-24.3-15.97-32.432-2.576-3.85-4.972-7.275-5.325-7.612-.353-.337-2.554 2.314-4.891 5.89m108.742 17.658c-27.54 8.453-49.912 22.409-72.992 45.535-17.148 17.182-28.609 32.675-38.103 51.51l-6.397 12.69.059 15.165c.068 17.367 2.114 30.839 6.533 43.028 2.826 7.793 7.077 16.004 8.855 17.103.508.314 2.979.11 5.493-.453 4.435-.995 4.915-.852 16.315 4.86 20.853 10.449 34.609 13.667 57.745 13.506 16.529-.114 28.479-2.121 45-7.556 20.835-6.854 52.181-24.739 67.641-38.594 10.086-9.039 19.795-20.107 29.174-33.257 7.745-10.859 8.54-12.412 9.183-17.959 1.372-11.821-1.749-31.127-7.489-46.318-3.346-8.856-10.927-19.367-20.902-28.984-22.808-21.987-50.635-32.849-83.607-32.638-6.424.041-11.149.717-16.508 2.362m262.557 10.814c-.401 2.888-.801 6.108-.889 7.158-.111 1.326 1.515 2.911 5.34 5.203 8.344 4.999 27.63 13.53 31.876 14.099 3.304.443 4.093.115 6.445-2.679 4.287-5.095 3.671-8.457-2.675-14.604-8.25-7.991-23.82-14.427-34.901-14.427h-4.466l-.73 5.25m-29.049-2.146c-4.792 1.168-11.983 4.067-17.934 7.229l-9.935 5.278-1.794 8.445c-.987 4.644-2.245 9.457-2.795 10.694-.549 1.237-.759 2.25-.466 2.25.294 0 3.667-1.333 7.496-2.963 16.316-6.943 35.021-22.254 36.555-29.921.753-3.767.329-3.806-11.127-1.012m83.015 34.514c-1.756 2.679-1.755 2.68 2.114 5.938 2.129 1.792 3.975 3.158 4.102 3.036.277-.265-3.474-10.668-4.056-11.25-.222-.222-1.194.802-2.16 2.276M329.25 607.657c-2.337.252-4.25.682-4.25.955 0 .274 1.781 3.45 3.957 7.058 3.578 5.933 6.872 14.311 8.458 21.517.655 2.977-.229 2.94 15.085.637 12.639-1.901 32.5-9.183 32.5-11.916 0-.583 1.84-4.21 4.089-8.061 2.249-3.851 3.937-7.137 3.75-7.303-1.909-1.696-53.073-4.019-63.589-2.887m-42.736 7.369c-13.957 4.474-35.523 15.756-46.744 24.454-26.34 20.417-40.574 48.676-43.888 87.129-1.91 22.16.73 42.754 8.35 65.141 4.188 12.305 5.768 14.833 5.768 9.233 0-4.752 3.902-21.539 7.188-30.926 6.476-18.5 19.548-38.671 31.392-48.44 3.473-2.865 11.401-8.423 17.618-12.35 14.981-9.464 31.659-22.955 38.499-31.142 3.045-3.644 7.171-10 9.169-14.125 3.504-7.231 3.634-7.894 3.634-18.5 0-9.857-.28-11.598-2.696-16.753-1.483-3.164-5.035-8.226-7.895-11.25-6.197-6.552-7.263-6.681-20.395-2.471m416.986 9.017c-6.05.386-12.882.76-15.182.83-4.073.124-4.343.354-10.414 8.877-3.428 4.813-7.136 9.761-8.239 10.996-1.103 1.235-1.667 2.585-1.253 3 .415.415 9.604.754 20.421.754 21.586 0 24.615-.567 36.589-6.853 6.941-3.644 18.495-14.162 17.045-15.516-1.001-.935-21.057-3.269-25.467-2.963-1.375.095-7.45.489-13.5.875m54.5 9.594-4.5 4.503 7.751 7.359c9.147 8.686 21.173 16.48 26.536 17.199 3.432.461 4.146.143 7.017-3.127 1.758-2.003 3.196-4.363 3.196-5.246s-3.304-4.857-7.343-8.83c-5.55-5.461-9.603-8.357-16.601-11.86-5.093-2.549-9.776-4.605-10.408-4.568-.631.037-3.173 2.094-5.648 4.57m44.289 39.774c-1.767 1.149-3.209 2.539-3.205 3.089.01 1.501 9.797 11.953 10.517 11.232.735-.735-2.412-15.527-3.415-16.051-.377-.197-2.131.581-3.897 1.73m-314.789 8.01c-3.765 1.686-9.044 7.195-10.439 10.894-1.529 4.057-1.305 11.313.456 14.718 3.204 6.195 12.792 7.731 19.306 3.093 6.405-4.56 10.216-18.866 6.639-24.921-3.011-5.098-9.559-6.65-15.962-3.784m138.61 16.124c-5.714 5.78-10.214 10.659-10 10.843 1.384 1.188 33.678 4.057 44.89 3.988 15.038-.093 24.883-1.807 33.828-5.89 6.087-2.778 12.154-6.583 12.165-7.627.019-1.765-18.271-7.021-32.993-9.481-4.675-.782-15.025-1.628-23-1.882l-14.5-.461-10.39 10.51m-326.783 10.771c-1.555 1.273-6.73 5.126-11.5 8.56l-8.674 6.246-.329 30.689c-.182 16.879-.276 30.817-.209 30.974.067.156 2.645-3.894 5.729-9 11.876-19.661 17.449-36.971 18.363-57.035.319-7.013.325-12.75.013-12.75-.311 0-1.839 1.042-3.393 2.316m415.803 4.706c-4.395 3.989-6.124 6.199-5.578 7.13 1.997 3.398 20.238 26.637 23.952 30.513 4.154 4.335 7.567 5.396 11.951 3.714 2.659-1.021 4.757-6.129 3.985-9.702-.849-3.927-4.711-11.71-8.772-17.677-3.507-5.153-12.969-15.364-16.668-17.986-2.5-1.773-2.501-1.772-8.87 4.008m-135.849 20.134-9.219 5.14 1.719 2.921c2.456 4.173 16.346 19.937 21.036 23.875l3.965 3.329 12.859.052c9.557.039 14.004.487 17.32 1.745 2.453.932 4.621 1.533 4.817 1.337.585-.585-4.772-10.637-8.962-16.817-9.147-13.49-24.61-26.747-31.18-26.73-1.901.004-6.766 2.032-12.355 5.148M748.5 769.672c-1.65.876-3.122 1.692-3.272 1.815-.15.123.406 3.101 1.235 6.618.829 3.517 1.514 8.308 1.522 10.645.023 6.529 1.528 5.061 3.361-3.278 1.713-7.795 2.216-17.502.904-17.432-.413.022-2.1.756-3.75 1.632m-151 19.218c-8.378 2.44-13.973 5.537-19.726 10.918-6.991 6.54-9.274 11.131-11.281 22.692-.955 5.5-2.824 13.78-4.154 18.4-10.333 35.906-38.328 63.812-75.339 75.103-5.775 1.762-11.175 3.438-12 3.724-3.984 1.381 19.132 5.263 31.372 5.269 44.085.02 87.867-22.384 111.676-57.145 10.065-14.696 15.476-28.029 18.443-45.449 2.642-15.509.879-22.462-7.724-30.467l-5.267-4.9-10 .054c-6.415.034-12.151.68-16 1.801M536 813.562c-19.977 4.313-34.486 10.227-49.428 20.148-4.692 3.116-8.382 5.813-8.2 5.995.891.892 63.249-3.085 64.357-4.103 1.067-.983 6.271-19.699 6.271-22.557 0-1.397-5.067-1.195-13 .517"/><path fill="#93461f" fill-rule="evenodd" d="M538.073 94.587c-24.761 3.604-49.398 12.679-68.39 25.191l-6.901 4.546 8.841 2.882c18.128 5.908 31.81 16.214 42.053 31.675.139.21 5.106-.427 11.038-1.415 7.755-1.291 18.935-1.96 39.786-2.381l29-.585 5.348-2.962c9.645-5.343 16.841-15.326 19.295-26.771 1.237-5.766.623-18.566-1.121-23.391-1.061-2.934-1.626-3.221-9.326-4.731-19.653-3.853-50.934-4.778-69.623-2.058m100.008 12.163c1.397 6.014 1.052 19.95-.658 26.546-1.936 7.471-4.335 12.325-10.144 20.522-2.462 3.475-4.32 6.457-4.128 6.627.192.17 2.343 1.315 4.78 2.545 8.394 4.235 27.435 16.407 41.716 26.666 16.607 11.931 20.455 14.061 27.877 15.433 14.797 2.735 35.48-7.071 44.474-21.086l3.226-5.027-5.785-7.738c-7.097-9.493-19.588-22.529-28.939-30.204-16.773-13.766-42.018-28.037-61.83-34.952-11.488-4.01-11.672-3.999-10.589.668m-199.457 39.887c-18.885 5.799-31.861 26.027-31.985 49.863-.081 15.337 5.008 29.079 16.217 43.796 10.016 13.152 13.343 23.998 11.177 36.437-1.227 7.044-5.599 16.428-9.733 20.888-1.326 1.431-2.156 2.856-1.844 3.168 1.053 1.053 15.717-1.78 21.679-4.188 9.265-3.742 16.378-8.461 25.288-16.776 12.71-11.862 21.758-26.142 27.715-43.743 10.563-31.211 6.713-58.35-10.726-75.606-13.176-13.038-32.332-18.586-47.788-13.839M384.328 197.5c.005 3.85.185 5.302.402 3.228.216-2.075.213-5.225-.008-7-.221-1.776-.398-.078-.394 3.772M752 204.14c-6.746 6.079-17.988 13.242-25.504 16.251-3.675 1.471-11.293 3.388-16.928 4.26-9.493 1.469-10.222 1.742-9.923 3.717.177 1.173 1.031 8.657 1.898 16.632 1.562 14.367 7.018 44.174 10.114 55.25l1.607 5.75h7.237c7.345 0 22.124 2.154 28.499 4.153 1.925.604 7.343 2.583 12.041 4.399 4.697 1.816 11.268 3.61 14.601 3.987l6.06.686.638-3.863c.996-6.03.77-31.006-.366-40.388-1.608-13.291-4.884-28.536-8.59-39.974-3.291-10.158-14.828-35.044-16.206-34.957-.373.023-2.703 1.867-5.178 4.097m-42.651 122.786c-3.74 1.628-11.471 24.399-17.265 50.848-3.818 17.43-3.815 17.226-.196 17.226 4.773 0 20.015 4.841 29.776 9.457 12.891 6.097 22.001 12.246 31.289 21.121l8.017 7.658 1.908-4.45c9.283-21.658 17.497-57.852 18.363-80.919l.286-7.632-5.614-.509c-3.088-.28-10.969-2.4-17.514-4.71-6.544-2.31-15.049-5.082-18.899-6.159-7.809-2.185-26.778-3.4-30.151-1.931m-223.273 41.238-3.424.983 2.924 2.401c1.608 1.321 4.571 3.571 6.584 5l3.66 2.599 4.09-2.706c2.25-1.489 4.09-3.118 4.09-3.62 0-1.241-10.008-5.821-12.5-5.721-1.1.044-3.541.523-5.424 1.064m23.211 15.102c-2.317 1.779-4.229 3.522-4.25 3.874-.108 1.858 23.058 30.683 26.739 33.27 4.83 3.395 10.284 3.958 12.909 1.333 1.412-1.412 1.485-2.231.495-5.537-1.453-4.848-10.396-19.67-15.575-25.814-4.073-4.831-11.887-10.403-14.551-10.376-.855.009-3.45 1.471-5.767 3.25m152.744 36.799c-5.208 2.764-11.958 6.869-15 9.123-5.649 4.184-26.031 24.296-26.031 25.686 0 .422 3.411 1.298 7.579 1.946 25.441 3.955 55.256 21.467 71.744 42.139 5.585 7.002 14.677 24.053 14.677 27.525 0 3.136 1.839 1.224 8.397-8.734 8.491-12.891 21.3-38.876 26.216-53.183l3.756-10.932-10.529-10.068c-19.781-18.911-41.353-28.602-63.548-28.548-7.417.018-8.248.261-17.261 5.046M405 416.658c-.825.275-2.175.736-3 1.024-.919.321.049.997 2.5 1.746 2.2.672 5.955 2.458 8.344 3.969 2.39 1.511 4.547 2.546 4.793 2.299.247-.246.699-1.991 1.005-3.877.556-3.425.55-3.431-4.619-4.624-5.487-1.267-6.63-1.335-9.023-.537m25.833 10.263c-.091 2.793-.204 5.723-.25 6.509-.097 1.673 23.041 22.807 27.488 25.107 3.802 1.966 6.528 1.14 8.44-2.558 3.157-6.105 1.492-9.904-8.45-19.283-7.023-6.625-17.32-12.744-23.811-14.151l-3.25-.704-.167 5.08M547.5 439.536c-1.65.756-5.117 1.394-7.705 1.419-4.617.044-4.719.115-5.5 3.795-1.018 4.802-1.045 46.832-.03 47.848.421.421 2.221-.592 4-2.251 1.779-1.658 6.641-5.752 10.804-9.097l7.568-6.082-.782-7.834c-1.157-11.592-4.034-29.346-4.74-29.253-.338.045-1.965.7-3.615 1.455m-75 33.519c-2.2.994-4.788 2.05-5.75 2.345-1.557.478-1.748 2.057-1.735 14.319.015 14.234 1.201 21.763 5.086 32.281 1.117 3.025 2.686 6.512 3.487 7.749l1.456 2.248 3.742-2.362c2.058-1.299 6.116-3.565 9.016-5.035 5.205-2.637 5.267-2.722 4.657-6.386-1.448-8.703-4.716-19.732-9.326-31.473-6.641-16.915-5.822-15.861-10.633-13.686m125 3.759c-11.605 4.69-19.514 8.78-29.411 15.208-9.306 6.045-21.885 15.826-25.408 19.758-1.78 1.987-1.759 2.042 1 2.572 1.55.298 5.294.836 8.319 1.196 36.546 4.343 72.302 25.844 91.527 55.036 9.575 14.54 15.772 31.024 17.122 45.545.351 3.779.997 6.871 1.435 6.871 1.022 0 16.032-20.939 22.925-31.982 11.045-17.692 14.748-29.394 13.611-43.017-1.398-16.774-7.043-28.447-20.098-41.568-18.263-18.352-44.184-31.129-65.022-32.05-8.084-.357-9.712-.11-16 2.431m-245.75 12.831c-1.308.375-1.75 1.559-1.75 4.685 0 2.301-.444 5.732-.987 7.625-.705 2.456-.66 3.645.154 4.148 1.687 1.043 30.749 9.056 34.902 9.624 7.132.975 12.517-8.132 8.464-14.316-1.968-3.004-13.441-8.596-21.033-10.251-6.122-1.335-17.371-2.198-19.75-1.515m-20.25 2.543c-8.26 4.337-19.974 14.743-14.025 12.46.811-.311 5.262-1.096 9.891-1.743l8.417-1.178.597-3.613c.819-4.948.767-8.123-.13-8.07-.413.025-2.55.989-4.75 2.144m72.75 27.59c-2.337 3.576-4.244 7.676-4.237 9.112.029 5.818 15.722 47.11 17.904 47.11.348 0 3.904-3.293 7.902-7.318l7.269-7.318-2.652-7.432c-3.787-10.611-10.528-24.3-15.97-32.432-2.576-3.85-4.972-7.275-5.325-7.612-.353-.337-2.554 2.314-4.891 5.89m108.742 17.658c-27.54 8.453-49.912 22.409-72.992 45.535-17.148 17.182-28.609 32.675-38.103 51.51l-6.397 12.69.059 15.165c.068 17.367 2.114 30.839 6.533 43.028 2.826 7.793 7.077 16.004 8.855 17.103.508.314 2.979.11 5.493-.453 4.435-.995 4.915-.852 16.315 4.86 20.853 10.449 34.609 13.667 57.745 13.506 16.529-.114 28.479-2.121 45-7.556 20.835-6.854 52.181-24.739 67.641-38.594 10.086-9.039 19.795-20.107 29.174-33.257 7.745-10.859 8.54-12.412 9.183-17.959 1.372-11.821-1.749-31.127-7.489-46.318-3.346-8.856-10.927-19.367-20.902-28.984-22.808-21.987-50.635-32.849-83.607-32.638-6.424.041-11.149.717-16.508 2.362m262.557 10.814c-.401 2.888-.801 6.108-.889 7.158-.111 1.326 1.515 2.911 5.34 5.203 8.344 4.999 27.63 13.53 31.876 14.099 3.304.443 4.093.115 6.445-2.679 4.287-5.095 3.671-8.457-2.675-14.604-8.25-7.991-23.82-14.427-34.901-14.427h-4.466l-.73 5.25m-29.049-2.146c-4.792 1.168-11.983 4.067-17.934 7.229l-9.935 5.278-1.794 8.445c-.987 4.644-2.245 9.457-2.795 10.694-.549 1.237-.759 2.25-.466 2.25.294 0 3.667-1.333 7.496-2.963 16.316-6.943 35.021-22.254 36.555-29.921.753-3.767.329-3.806-11.127-1.012m83.015 34.514c-1.756 2.679-1.755 2.68 2.114 5.938 2.129 1.792 3.975 3.158 4.102 3.036.277-.265-3.474-10.668-4.056-11.25-.222-.222-1.194.802-2.16 2.276M329.25 607.657c-2.337.252-4.25.682-4.25.955 0 .274 1.781 3.45 3.957 7.058 3.578 5.933 6.872 14.311 8.458 21.517.655 2.977-.229 2.94 15.085.637 12.639-1.901 32.5-9.183 32.5-11.916 0-.583 1.84-4.21 4.089-8.061 2.249-3.851 3.937-7.137 3.75-7.303-1.909-1.696-53.073-4.019-63.589-2.887m-42.736 7.369c-13.957 4.474-35.523 15.756-46.744 24.454-26.34 20.417-40.574 48.676-43.888 87.129-1.91 22.16.73 42.754 8.35 65.141 4.188 12.305 5.768 14.833 5.768 9.233 0-4.752 3.902-21.539 7.188-30.926 6.476-18.5 19.548-38.671 31.392-48.44 3.473-2.865 11.401-8.423 17.618-12.35 14.981-9.464 31.659-22.955 38.499-31.142 3.045-3.644 7.171-10 9.169-14.125 3.504-7.231 3.634-7.894 3.634-18.5 0-9.857-.28-11.598-2.696-16.753-1.483-3.164-5.035-8.226-7.895-11.25-6.197-6.552-7.263-6.681-20.395-2.471m416.986 9.017c-6.05.386-12.882.76-15.182.83-4.073.124-4.343.354-10.414 8.877-3.428 4.813-7.136 9.761-8.239 10.996-1.103 1.235-1.667 2.585-1.253 3 .415.415 9.604.754 20.421.754 21.586 0 24.615-.567 36.589-6.853 6.941-3.644 18.495-14.162 17.045-15.516-1.001-.935-21.057-3.269-25.467-2.963-1.375.095-7.45.489-13.5.875m54.5 9.594-4.5 4.503 7.751 7.359c9.147 8.686 21.173 16.48 26.536 17.199 3.432.461 4.146.143 7.017-3.127 1.758-2.003 3.196-4.363 3.196-5.246s-3.304-4.857-7.343-8.83c-5.55-5.461-9.603-8.357-16.601-11.86-5.093-2.549-9.776-4.605-10.408-4.568-.631.037-3.173 2.094-5.648 4.57m44.289 39.774c-1.767 1.149-3.209 2.539-3.205 3.089.01 1.501 9.797 11.953 10.517 11.232.735-.735-2.412-15.527-3.415-16.051-.377-.197-2.131.581-3.897 1.73m-314.789 8.01c-3.765 1.686-9.044 7.195-10.439 10.894-1.529 4.057-1.305 11.313.456 14.718 3.204 6.195 12.792 7.731 19.306 3.093 6.405-4.56 10.216-18.866 6.639-24.921-3.011-5.098-9.559-6.65-15.962-3.784m138.61 16.124c-5.714 5.78-10.214 10.659-10 10.843 1.384 1.188 33.678 4.057 44.89 3.988 15.038-.093 24.883-1.807 33.828-5.89 6.087-2.778 12.154-6.583 12.165-7.627.019-1.765-18.271-7.021-32.993-9.481-4.675-.782-15.025-1.628-23-1.882l-14.5-.461-10.39 10.51m-326.783 10.771c-1.555 1.273-6.73 5.126-11.5 8.56l-8.674 6.246-.329 30.689c-.182 16.879-.276 30.817-.209 30.974.067.156 2.645-3.894 5.729-9 11.876-19.661 17.449-36.971 18.363-57.035.319-7.013.325-12.75.013-12.75-.311 0-1.839 1.042-3.393 2.316m415.803 4.706c-4.395 3.989-6.124 6.199-5.578 7.13 1.997 3.398 20.238 26.637 23.952 30.513 4.154 4.335 7.567 5.396 11.951 3.714 2.659-1.021 4.757-6.129 3.985-9.702-.849-3.927-4.711-11.71-8.772-17.677-3.507-5.153-12.969-15.364-16.668-17.986-2.5-1.773-2.501-1.772-8.87 4.008m-135.849 20.134-9.219 5.14 1.719 2.921c2.456 4.173 16.346 19.937 21.036 23.875l3.965 3.329 12.859.052c9.557.039 14.004.487 17.32 1.745 2.453.932 4.621 1.533 4.817 1.337.585-.585-4.772-10.637-8.962-16.817-9.147-13.49-24.61-26.747-31.18-26.73-1.901.004-6.766 2.032-12.355 5.148M748.5 769.672c-1.65.876-3.122 1.692-3.272 1.815-.15.123.406 3.101 1.235 6.618.829 3.517 1.514 8.308 1.522 10.645.023 6.529 1.528 5.061 3.361-3.278 1.713-7.795 2.216-17.502.904-17.432-.413.022-2.1.756-3.75 1.632m-151 19.218c-8.378 2.44-13.973 5.537-19.726 10.918-6.991 6.54-9.274 11.131-11.281 22.692-.955 5.5-2.824 13.78-4.154 18.4-10.333 35.906-38.328 63.812-75.339 75.103-5.775 1.762-11.175 3.438-12 3.724-3.984 1.381 19.132 5.263 31.372 5.269 44.085.02 87.867-22.384 111.676-57.145 10.065-14.696 15.476-28.029 18.443-45.449 2.642-15.509.879-22.462-7.724-30.467l-5.267-4.9-10 .054c-6.415.034-12.151.68-16 1.801M536 813.562c-19.977 4.313-34.486 10.227-49.428 20.148-4.692 3.116-8.382 5.813-8.2 5.995.891.892 63.249-3.085 64.357-4.103 1.067-.983 6.271-19.699 6.271-22.557 0-1.397-5.067-1.195-13 .517"/></svg>