<svg xmlns="http://www.w3.org/2000/svg" width="1024" height="1024"><path fill-rule="evenodd" d="M325 145.489c-25.665 5.137-56.784 19.887-78.59 37.252-15.084 12.011-32.898 31.538-42.748 46.86-28.051 43.629-34.89 93.281-19.135 138.91l3.488 10.103-2.975 6.142C178.227 398.82 175 415.988 175 438.165c0 22.962 5.036 41.766 15.532 57.991 5.392 8.335 17.651 21.304 26.417 27.947 7.58 5.745 27.244 15.939 35.726 18.52 3.204.976 5.964 1.861 6.133 1.967.17.106-.898 3.055-2.373 6.552C250.833 564.428 245 589.4 245 600.099c0 2.146-.414 3.901-.92 3.901-2.183 0-19.242-6.546-26.58-10.199-15.533-7.733-30.634-20.611-39.389-33.594-4.32-6.406-10.856-19.656-13.062-26.482-2.84-8.785-10.181-13.048-17.894-10.391-8.24 2.84-14.155 10.155-14.155 17.509 0 10.214 9.675 48.412 16.116 63.625 14.797 34.951 42.31 62.298 76.057 75.6 6.52 2.57 23.476 6.911 27.042 6.923 1.722.006 3.123.772 3.831 2.095.614 1.147.967 2.201.785 2.343-.182.141-3.706 1.054-7.831 2.027-9.03 2.132-25.082 8.044-34 12.523-26.062 13.088-46.818 34.853-56.623 59.372-7.046 17.621-10.108 38.432-8.353 56.766 1.889 19.73 7.108 27.883 17.85 27.883 5.409 0 9.478-3.614 13.126-11.659 10.176-22.444 31.156-47.082 51-59.892 14.278-9.217 29.909-15.529 47.205-19.062 8.456-1.728 8.764-1.725 10.781.1 2.467 2.233 1.48 3.596-3.898 5.386-1.876.625-6.151 2.686-9.5 4.582-31.025 17.562-46.827 51.887-42.641 92.626 2.495 24.293 10.818 40.894 22.012 43.908 3.421.921 4.735.794 8.303-.802 7.321-3.276 9.772-7.592 11.744-20.681 2.832-18.79 11.446-32.396 28.52-45.048C315.607 831.248 341.83 818 347 818c1.003 0 7.151 3.234 13.662 7.186 36.163 21.95 77.483 35.267 123.764 39.888 16.967 1.694 53.3.67 70.32-1.982 25.477-3.97 44.601-9.342 66.663-18.728 16.473-7.009 20.374-8.997 35.469-18.082l12.379-7.45 7.6 2.698c20.572 7.303 36.689 17.074 48.349 29.311 9.068 9.516 13.054 17.375 16.423 32.38 3.154 14.044 4.683 17.319 9.505 20.364 15.087 9.523 30.099-10.493 32.315-43.085 1.348-19.838-1.926-36.473-10.726-54.5-5.609-11.49-6.875-13.277-15.663-22.118-9.711-9.769-14.016-12.971-24.31-18.083-3.163-1.57-5.75-3.144-5.75-3.498 0-.354.692-1.408 1.537-2.342 1.388-1.534 2.149-1.571 7.827-.381 9.018 1.89 24.293 6.924 32.858 10.827 14.108 6.429 31.277 18.877 41.647 30.194 8.095 8.834 19.077 25.078 24.178 35.762C840.289 847.34 843.311 850 850.542 850c4.564 0 5.912-.46 8.812-3.006 6.774-5.948 9.888-17.661 9.967-37.494.1-25.203-5.889-45.422-19.43-65.595-14.853-22.129-44.463-41.103-77.715-49.801-10.27-2.687-10.314-2.711-8.5-4.752 1.202-1.352 4.21-2.488 8.824-3.333 15.827-2.898 36.502-11.6 49.5-20.833 9.741-6.919 24.006-21.176 30.998-30.982 14.339-20.108 22.06-40.89 31.531-84.866 1.008-4.682 1.52-9.936 1.2-12.321-1.221-9.101-9.114-15.946-18.444-15.995-6.436-.034-9.925 3.666-15.71 16.66-13.54 30.408-34.585 49.846-67.075 61.954-4.95 1.845-9.5 3.356-10.111 3.359-.611.003-1.368-2.168-1.682-4.824-1.599-13.495-8.384-38.386-13.258-48.632-1.298-2.729-2.267-5.013-2.154-5.076.113-.062 4.255-1.592 9.205-3.399 29.511-10.774 52.968-30.181 64.741-53.564 4.008-7.962 8.537-22.205 10.332-32.5 3.849-22.076-.15-55.156-8.736-72.259l-1.887-3.759 2.929-8.298c14.441-40.914 10.758-89.257-9.771-128.266-21.536-40.921-55.93-70.73-102.72-89.025-18.564-7.259-26.359-8.794-44.909-8.847-15.304-.044-16.155.059-19 2.288-8.856 6.939-8.161 10.468 14.011 71.166 3.114 8.525 6.934 19.1 8.49 23.5 1.556 4.4 5.778 16.081 9.383 25.958 3.604 9.877 6.399 18.113 6.209 18.303-.189.189-3.068-2.177-6.396-5.259-10.063-9.316-21.457-25.363-29.45-41.476-3.949-7.96-8.45-15.92-10.003-17.689-7.603-8.659-18.015-5.51-24.605 7.441-8.771 17.241-10.701 51.616-4.281 76.271 7.373 28.312 22.281 54.682 42.585 75.324 19.079 19.397 41.625 32.191 64.741 36.739l6.104 1.201 2.74 6.093c10.962 24.38 1.661 49.293-23.32 62.463l-6.39 3.368-10.902-6.105c-22.755-12.743-53.864-24.847-78.395-30.503-6.325-1.458-13.188-3.114-15.25-3.68L599 448.92l1.978-2.71c1.088-1.491 3.604-7.66 5.591-13.71 4.106-12.501 4.204-17.591.538-27.967-2.31-6.538-5.73-11.294-11.455-15.927-3.076-2.49-4.81-3.076-9.939-3.359-5.437-.3-6.852.031-11.328 2.648-5.77 3.374-11.735 11.404-14.098 18.977-2.097 6.721-1.149 18.809 2.192 27.966 1.473 4.036 2.53 7.444 2.349 7.573-.18.128-7.303-.325-15.828-1.008-27.385-2.194-77.797-1.588-93.712 1.126l-3.212.547 2.451-5.541c1.348-3.048 3.179-8.743 4.069-12.656 1.358-5.973 1.425-8.093.418-13.213-2.22-11.285-8.566-20.819-16.374-24.598-5.511-2.668-13.426-2.728-18.498-.14-4.183 2.134-10.182 8.315-12.591 12.973-2.599 5.026-4.785 16.2-4.239 21.667.555 5.561 4.891 19.182 7.627 23.962l1.734 3.03-11.087 2.383c-28.367 6.097-62.891 19.834-86.466 34.404l-7.379 4.561-3.789-1.932c-11.869-6.055-23.662-16.917-27.522-25.348-4.033-8.81-4.935-16.262-3.012-24.905.895-4.02 2.904-10.011 4.466-13.313l2.839-6.003 9.888-2.111c22.061-4.707 37.357-13.032 59.226-32.232 25.475-22.366 43.05-59.424 47.337-99.814 2.563-24.14-3.875-54.605-13.373-63.287-6.338-5.794-13.85-5.823-20.181-.077-1.585 1.438-5.452 8.014-8.594 14.614-6.454 13.554-12.169 23.224-18.914 32-5.117 6.657-15.241 17.704-15.755 17.19-.32-.32 3.466-11.228 22.629-65.19 20.703-58.299 21.759-62.225 18.448-68.628-2.684-5.19-8.039-6.839-21.934-6.756-6.6.04-14.925.657-18.5 1.373m-9.334 32.532c-49.334 16.396-87.91 52.958-103.551 98.145-5.304 15.323-6.473 22.723-6.453 40.834.022 18.653 1.283 26.203 6.454 38.623 5.737 13.781 19.106 25.048 37.884 31.928 10.777 3.949 28.775 4.602 40.908 1.486 18.064-4.641 30.449-12.45 47.092-29.696 16.662-17.266 24.333-31.271 31.111-56.799 2.27-8.547 6.867-29.473 6.886-31.342.012-1.203-4.117 2.974-13.147 13.3-10.844 12.401-30.85 31.77-41.35 40.034-3.3 2.598-10.275 6.786-15.5 9.307-7.998 3.859-10.408 4.575-15.24 4.53-5.1-.047-6.075-.404-8.75-3.203-4.248-4.446-4.114-9.501.469-17.697 4.764-8.519 8.122-18.379 34.557-101.471 4.461-14.025 9.42-29.213 11.019-33.75 3.5-9.933 4.13-9.719-12.389-4.229m373.677-2.771c.464 1.139 14.133 42.659 31.687 96.25 3.783 11.55 8.08 25.05 9.55 30 1.469 4.95 4.19 12.026 6.046 15.725 3.673 7.321 4.166 11.343 1.921 15.684-4.898 9.472-22.66 5.715-42.378-8.963-9.39-6.991-44.27-40.678-45.962-44.39-.609-1.338-2.085-2.955-3.279-3.594-2.058-1.102-2.145-.988-1.69 2.188.893 6.229 6.7 26.773 10.344 36.591C672.738 360.974 708.733 391 747 391c24.029 0 47.415-12.401 57.518-30.5 7.741-13.867 11.201-31.652 10.078-51.804-1.093-19.605-5.173-35.891-12.824-51.196-9.737-19.475-28.622-41.382-46.736-54.213-12.888-9.13-34.697-19.962-50.908-25.285-12.967-4.258-15.599-4.748-14.785-2.752M800.5 404.103c-8.176 4.726-19.064 8.89-28.802 11.016-5.031 1.098-9.256 2.106-9.391 2.241-.134.134.939 3.596 2.385 7.692 3.8 10.766 4.386 26.462 1.394 37.366-4.741 17.284-12.183 28.083-27.699 40.199l-8.405 6.563 6.631 7.41c3.648 4.076 7.07 7.41 7.605 7.41.535 0 2.168-.821 3.628-1.825s4.229-2.431 6.154-3.171c24.33-9.354 43.528-26.182 53.054-46.504 2.062-4.4 4.201-10.475 4.753-13.5 3.935-21.567 3.96-23.954.418-40-2.081-9.431-4.492-16.439-5.96-17.325-.421-.254-3.015.839-5.765 2.428m-590.446 2.271c-4.902 11.437-6.588 34.462-3.645 49.788 5.921 30.837 25.131 51.264 60.591 64.43l6.5 2.414 5.714-6.253c3.143-3.439 5.618-6.534 5.5-6.877-.117-.343-3.695-3.381-7.95-6.751-9.237-7.316-15.281-14.742-20.194-24.813-4.929-10.104-6.815-18.716-6.855-31.312-.032-9.853 1.897-19.387 5.679-28.074.564-1.296-1.216-2.053-10.105-4.296-5.934-1.498-15.289-4.758-20.789-7.246-5.5-2.487-10.559-4.762-11.241-5.057-.764-.329-1.996 1.227-3.205 4.047M476.5 466c-32.762 2.538-75.322 11.622-99.44 21.227-28.812 11.473-47.314 22.377-64.459 37.986-22.337 20.337-36.737 48.48-39.547 77.287-1.978 20.282.52 44.711 6.994 68.383 7.294 26.673 25.028 61.392 42.413 83.037 9.672 12.042 26.803 30.236 33.031 35.08 3.181 2.475 7.185 5.631 8.896 7.013 8.212 6.631 28.11 18.594 36.828 22.142 3.94 1.603 7.641 3.257 8.224 3.675 6.159 4.418 37.744 12.287 63.56 15.837 15.664 2.154 55.585 2.44 71 .508 27.306-3.421 55.449-10.931 75.134-20.051 53.094-24.598 95.342-72.928 114.242-130.689 9.35-28.577 12.07-44.466 11.972-69.935-.078-20.103-1.832-31.211-7.434-47.085-10.02-28.388-36.571-54.938-72.371-72.368-25.514-12.422-52.943-20.503-93.447-27.53-24.485-4.248-70.804-6.437-95.596-4.517M173.536 596.75c11.291 27.087 35.694 50.246 61.424 58.292 11.65 3.643 13.248 3.733 12.586.708-1.428-6.521-2.546-14.604-2.546-18.398 0-4.999.202-4.853-12.863-9.273-13.742-4.649-35.145-16.119-45.038-24.136C175.738 594.736 173.463 593 172.755 593c-.43 0-.078 1.688.781 3.75m668.355.113c-8.674 7.631-23.405 17.27-35.289 23.091-10.067 4.93-16.851 7.371-32.352 11.639-.743.205-1.266 2.08-1.289 4.626-.022 2.354-.863 8.219-1.869 13.031-1.006 4.813-1.418 8.75-.916 8.75.502 0 3.93-.743 7.618-1.65 9.56-2.352 25.052-9.351 32.562-14.71 7.251-5.174 22.041-20.553 27.151-28.23C840.72 608.583 848 594.825 848 593.581c0-1.399-2.025-.311-6.109 3.282m-90.61 122.821C749.109 721.558 741 734.508 741 736.102c0 .494 1.344.898 2.987.898 3.27 0 18.745 3.814 29.013 7.151 9.967 3.239 26.405 11.254 33.825 16.493 8.447 5.964 23.929 20.916 30.292 29.255 5.371 7.038 5.782 6.556 3.327-3.899-3.134-13.344-13.522-30.571-24.102-39.969-12.956-11.51-26.456-18.224-48.342-24.041-5.775-1.535-11.426-3.091-12.557-3.457-1.325-.429-2.807-.019-4.162 1.151m-492.781.425c-8.204 1.184-25.568 6.389-31.84 9.545-14.755 7.425-31.703 22.76-39.102 35.381-5.795 9.884-12.253 28.965-9.804 28.965.465 0 3.522-3.215 6.795-7.145 20.809-24.985 47.571-41.172 79.951-48.36 6.6-1.465 12.109-2.772 12.241-2.904.133-.132-1.839-3.919-4.383-8.416-2.968-5.248-5.203-8.131-6.241-8.053-.889.067-4.317.511-7.617.987m39 70.383c-23.336 11.494-36.223 29.316-39.019 53.962l-.676 5.955 3.712-4.955c11.91-15.897 25.919-26.692 50.785-39.134l10.803-5.405-6.803-7.409c-3.741-4.075-7.477-7.418-8.302-7.428-.825-.01-5.55 1.976-10.5 4.414m405.034 4.006c-3.174 4.145-6.397 7.886-7.162 8.314-.937.524 2.123 2.387 9.368 5.704 19.007 8.701 30.459 16.69 43.52 30.361 4.225 4.421 7.967 9.18 8.317 10.574.35 1.394 1.038 2.287 1.53 1.983 2.43-1.502-.627-18.644-4.983-27.934-5.764-12.293-19.193-25.139-33.173-31.732-11.964-5.642-10.873-5.813-17.417 2.73"/><path fill="#ca5318" fill-rule="evenodd" d="M315.666 178.021c-49.334 16.396-87.91 52.958-103.551 98.145-5.304 15.323-6.473 22.723-6.453 40.834.022 18.653 1.283 26.203 6.454 38.623 5.737 13.781 19.106 25.048 37.884 31.928 10.777 3.949 28.775 4.602 40.908 1.486 18.064-4.641 30.449-12.45 47.092-29.696 16.662-17.266 24.333-31.271 31.111-56.799 2.27-8.547 6.867-29.473 6.886-31.342.012-1.203-4.117 2.974-13.147 13.3-10.844 12.401-30.85 31.77-41.35 40.034-3.3 2.598-10.275 6.786-15.5 9.307-7.998 3.859-10.408 4.575-15.24 4.53-5.1-.047-6.075-.404-8.75-3.203-4.248-4.446-4.114-9.501.469-17.697 4.764-8.519 8.122-18.379 34.557-101.471 4.461-14.025 9.42-29.213 11.019-33.75 3.5-9.933 4.13-9.719-12.389-4.229m373.677-2.771c.464 1.139 14.133 42.659 31.687 96.25 3.783 11.55 8.08 25.05 9.55 30 1.469 4.95 4.19 12.026 6.046 15.725 3.673 7.321 4.166 11.343 1.921 15.684-4.898 9.472-22.66 5.715-42.378-8.963-9.39-6.991-44.27-40.678-45.962-44.39-.609-1.338-2.085-2.955-3.279-3.594-2.058-1.102-2.145-.988-1.69 2.188.893 6.229 6.7 26.773 10.344 36.591C672.738 360.974 708.733 391 747 391c24.029 0 47.415-12.401 57.518-30.5 7.741-13.867 11.201-31.652 10.078-51.804-1.093-19.605-5.173-35.891-12.824-51.196-9.737-19.475-28.622-41.382-46.736-54.213-12.888-9.13-34.697-19.962-50.908-25.285-12.967-4.258-15.599-4.748-14.785-2.752M800.5 404.103c-8.176 4.726-19.064 8.89-28.802 11.016-5.031 1.098-9.256 2.106-9.391 2.241-.134.134.939 3.596 2.385 7.692 3.8 10.766 4.386 26.462 1.394 37.366-4.741 17.284-12.183 28.083-27.699 40.199l-8.405 6.563 6.631 7.41c3.648 4.076 7.07 7.41 7.605 7.41.535 0 2.168-.821 3.628-1.825s4.229-2.431 6.154-3.171c24.33-9.354 43.528-26.182 53.054-46.504 2.062-4.4 4.201-10.475 4.753-13.5 3.935-21.567 3.96-23.954.418-40-2.081-9.431-4.492-16.439-5.96-17.325-.421-.254-3.015.839-5.765 2.428m-590.446 2.271c-4.902 11.437-6.588 34.462-3.645 49.788 5.921 30.837 25.131 51.264 60.591 64.43l6.5 2.414 5.714-6.253c3.143-3.439 5.618-6.534 5.5-6.877-.117-.343-3.695-3.381-7.95-6.751-9.237-7.316-15.281-14.742-20.194-24.813-4.929-10.104-6.815-18.716-6.855-31.312-.032-9.853 1.897-19.387 5.679-28.074.564-1.296-1.216-2.053-10.105-4.296-5.934-1.498-15.289-4.758-20.789-7.246-5.5-2.487-10.559-4.762-11.241-5.057-.764-.329-1.996 1.227-3.205 4.047M476.5 466c-32.762 2.538-75.322 11.622-99.44 21.227-28.812 11.473-47.314 22.377-64.459 37.986-22.337 20.337-36.737 48.48-39.547 77.287-1.978 20.282.52 44.711 6.994 68.383 7.294 26.673 25.028 61.392 42.413 83.037 9.672 12.042 26.803 30.236 33.031 35.08 3.181 2.475 7.185 5.631 8.896 7.013 8.212 6.631 28.11 18.594 36.828 22.142 3.94 1.603 7.641 3.257 8.224 3.675 6.159 4.418 37.744 12.287 63.56 15.837 15.664 2.154 55.585 2.44 71 .508 27.306-3.421 55.449-10.931 75.134-20.051 53.094-24.598 95.342-72.928 114.242-130.689 9.35-28.577 12.07-44.466 11.972-69.935-.078-20.103-1.832-31.211-7.434-47.085-10.02-28.388-36.571-54.938-72.371-72.368-25.514-12.422-52.943-20.503-93.447-27.53-24.485-4.248-70.804-6.437-95.596-4.517M173.536 596.75c11.291 27.087 35.694 50.246 61.424 58.292 11.65 3.643 13.248 3.733 12.586.708-1.428-6.521-2.546-14.604-2.546-18.398 0-4.999.202-4.853-12.863-9.273-13.742-4.649-35.145-16.119-45.038-24.136C175.738 594.736 173.463 593 172.755 593c-.43 0-.078 1.688.781 3.75m668.355.113c-8.674 7.631-23.405 17.27-35.289 23.091-10.067 4.93-16.851 7.371-32.352 11.639-.743.205-1.266 2.08-1.289 4.626-.022 2.354-.863 8.219-1.869 13.031-1.006 4.813-1.418 8.75-.916 8.75.502 0 3.93-.743 7.618-1.65 9.56-2.352 25.052-9.351 32.562-14.71 7.251-5.174 22.041-20.553 27.151-28.23C840.72 608.583 848 594.825 848 593.581c0-1.399-2.025-.311-6.109 3.282m-90.61 122.821C749.109 721.558 741 734.508 741 736.102c0 .494 1.344.898 2.987.898 3.27 0 18.745 3.814 29.013 7.151 9.967 3.239 26.405 11.254 33.825 16.493 8.447 5.964 23.929 20.916 30.292 29.255 5.371 7.038 5.782 6.556 3.327-3.899-3.134-13.344-13.522-30.571-24.102-39.969-12.956-11.51-26.456-18.224-48.342-24.041-5.775-1.535-11.426-3.091-12.557-3.457-1.325-.429-2.807-.019-4.162 1.151m-492.781.425c-8.204 1.184-25.568 6.389-31.84 9.545-14.755 7.425-31.703 22.76-39.102 35.381-5.795 9.884-12.253 28.965-9.804 28.965.465 0 3.522-3.215 6.795-7.145 20.809-24.985 47.571-41.172 79.951-48.36 6.6-1.465 12.109-2.772 12.241-2.904.133-.132-1.839-3.919-4.383-8.416-2.968-5.248-5.203-8.131-6.241-8.053-.889.067-4.317.511-7.617.987m39 70.383c-23.336 11.494-36.223 29.316-39.019 53.962l-.676 5.955 3.712-4.955c11.91-15.897 25.919-26.692 50.785-39.134l10.803-5.405-6.803-7.409c-3.741-4.075-7.477-7.418-8.302-7.428-.825-.01-5.55 1.976-10.5 4.414m405.034 4.006c-3.174 4.145-6.397 7.886-7.162 8.314-.937.524 2.123 2.387 9.368 5.704 19.007 8.701 30.459 16.69 43.52 30.361 4.225 4.421 7.967 9.18 8.317 10.574.35 1.394 1.038 2.287 1.53 1.983 2.43-1.502-.627-18.644-4.983-27.934-5.764-12.293-19.193-25.139-33.173-31.732-11.964-5.642-10.873-5.813-17.417 2.73"/></svg>