<svg xmlns="http://www.w3.org/2000/svg" width="1024" height="1024"><path fill="#098671" fill-rule="evenodd" d="M760.25 713.625c-2.137.926-1.38 4.463 1.708 7.98 8.486 9.665 7.168 28.506-2.703 38.638-3.228 3.313-3.536 4.058-2.682 6.5 2.013 5.759 12.073 2.781 19.859-5.879 5.072-5.641 6.568-10.22 6.568-20.104 0-8.661-1.728-14.367-5.978-19.732-4.11-5.19-12.912-9.075-16.772-7.403m-190.229 27.493c-4.039 8.337-7.049 12.05-12.725 15.692-9.234 5.925-20.649 7.498-33.389 4.601-7.697-1.751-9.907-1.079-9.907 3.015 0 4.18 9.851 11.717 17.5 13.388 12.736 2.784 19.255 2.276 29.195-2.275 6.137-2.809 15.506-11.686 17.576-16.654 3.497-8.389 2.83-20.69-1.239-22.868-3.235-1.731-3.955-1.208-7.011 5.101m118.551 17.453c-2.444 2.444-1.867 5.778 1.558 8.992 7.051 6.617 9.395 19.981 5.167 29.46-2.063 4.626-9.627 12.261-14.954 15.094-4.175 2.22-4.898 5.473-1.685 7.579 2.13 1.395 3.354 1.469 8.511.51 9.069-1.687 14.42-4.719 19.301-10.938 5.174-6.593 7.53-13.382 7.53-21.701 0-8.987-2.379-15.938-7.272-21.246-6.407-6.951-15.201-10.705-18.156-7.75m-78.906 45.291c-9.461 15.328-24.784 21.748-42.166 17.666-12.457-2.926-13.2-2.958-14.447-.627-1.365 2.551-.473 4.435 4.115 8.687 10.85 10.057 25.229 12.427 41.867 6.9 6.736-2.237 15.022-9.917 18.039-16.718 2.739-6.177 3.326-17.378 1.054-20.116-2.476-2.983-4.708-1.873-8.462 4.208m-121.427 1.158c-9.807 9.321-12.654 10.48-25.739 10.48-10.614 0-11.263-.128-18.5-3.642-4.125-2.004-8.233-3.881-9.128-4.172-4.257-1.385-5.254 6.052-1.494 11.148 5.419 7.345 13.869 12.485 24.016 14.608 15.967 3.341 34.091-4.737 40.253-17.942 2.998-6.423 3.202-13.975.419-15.465-2.879-1.54-3.055-1.451-9.827 4.985"/><path fill="#6c3e0b" fill-rule="evenodd" d="M392.45 526.407c-10.171 4.43-12.33 18.101-4.012 25.404 13.973 12.269 33.772-6.713 21.819-20.918-4.609-5.477-11.529-7.221-17.807-4.486m135 0c-10.171 4.43-12.33 18.101-4.012 25.404 13.973 12.269 33.772-6.713 21.819-20.918-4.609-5.477-11.529-7.221-17.807-4.486"/><path fill="#8a5115" fill-rule="evenodd" d="M493.353 176.75c-5.148 15.423-17.721 28.632-32.711 34.369l-5.38 2.058-.521 5.74c-1.052 11.601-10.103 24.841-19.847 29.033-8.532 3.67-11.969 2.112-19.738-8.95-4.616-6.571-9.33-9.517-13.422-8.388-2.62.723-3.802 2.03-6.227 6.883-2.777 5.559-2.993 6.782-3 16.998-.008 12.578 1.644 18.808 6.574 24.789 3.639 4.414 7.583 4.893 14.155 1.718 6.274-3.031 11.022-2.67 14.175 1.077 5.266 6.258 1.618 14.837-7.846 18.451-4.234 1.617-4.37 1.81-5.504 7.815-1.802 9.544-7.792 29.983-11.738 40.052-4.639 11.837-9.417 18.791-17.704 25.772-9.029 7.605-18.557 12.364-40.619 20.29-46.533 16.716-56.548 21.64-70.436 34.632-8.727 8.164-14.401 16.203-20.5 29.049C240.913 483.731 221.185 552 213.949 593.5c-1.156 6.631-2.169 17.145-2.264 23.5-.156 10.479.058 11.988 2.412 17 1.421 3.025 3.806 6.946 5.3 8.712 3.464 4.095 12.127 9.361 21.649 13.158 15.246 6.08 56.355 16.11 96.954 23.655 25.739 4.783 26.797 5.277 31.317 14.614 4.587 9.478 14.196 21.525 28.294 35.476C409.561 741.44 419.702 749 423.614 749c2.991 0 2.979-1.185-.082-7.759-2.985-6.412-7.276-12.733-14.114-20.794-6.044-7.124-7.027-9.562-5.423-13.435 1.616-3.901 6.03-5.658 10.041-3.997 6.666 2.761 22.027 22.605 27.54 35.577 2.705 6.364 4.189 7.476 7.325 5.49 4.353-2.756-4.621-25.184-15.438-38.582-3.108-3.85-6.047-8.012-6.532-9.25-1.956-4.994 3.522-11.087 8.812-9.799 6.416 1.561 21.033 20.678 27.877 36.458 3.087 7.119 4.182 6.543 4.31-2.265.223-15.393-11.77-37.927-26.188-49.209-12.593-9.853-17.8-11.924-78.742-31.307-64.667-20.568-96.492-31.141-99.807-33.157-4.132-2.513-5.175-7.604-2.497-12.191 3.232-5.533 5.366-5.746 20.946-2.091 1.933.454 2.649-.801 7.325-12.843 2.851-7.34 8.923-22.121 13.493-32.846 4.57-10.725 11.07-26.517 14.444-35.094 6.792-17.265 9.001-20.306 14.75-20.306 7.055 0 11.59 8.99 8.376 16.603-4.253 10.073-11.146 31.329-10.738 33.111 3.502 15.278 7.17 33.528 9.684 48.186 1.699 9.9 3.332 19.229 3.631 20.731.504 2.533 1.496 3.026 13.718 6.818 43.816 13.597 68.033 21.557 74.232 24.403 20.467 9.395 36.714 23.711 45.874 40.422l3.906 7.126h4.759c12.847 0 29.356-4.137 37.992-9.521 12.992-8.098 22.99-20.67 27.307-34.337 1.58-5.001 3.213-14.559 4.565-26.714 1.157-10.411 3.65-26.578 5.539-35.928 3.714-18.379 5.848-31.14 7.443-44.5 1.79-14.998 4.058-46.191 4.058-55.817 0-8.986.11-9.447 2.923-12.26 3.761-3.76 8.758-3.961 12.771-.512 2.776 2.385 2.81 2.553 3.142 15.75.366 14.529-1.027 38.86-3.399 59.377l-1.507 13.037 4.123 11.963c7.877 22.856 14.166 33.805 26.402 45.962 14.392 14.3 40.933 28.862 96.545 52.971 18.5 8.02 18.297 7.963 20.348 5.697 2.366-2.615 12.665-23.108 12.592-25.058-.033-.885-3.83-4.31-8.437-7.61-13.746-9.845-64.314-47.502-68.823-51.25-6.183-5.141-13.458-14.002-16.684-20.321-1.564-3.064-5.845-16.114-9.512-29-18.78-65.982-29.662-95.464-40.83-110.619-9.085-12.329-24.839-22.516-45.154-29.199-12.356-4.064-36.612-10.332-37.305-9.64-.311.312-.896 3.363-1.299 6.779-.905 7.675-3.774 10.75-10.029 10.75-3.131 0-4.682-.661-7.011-2.99-2.823-2.824-2.978-3.392-2.759-10.151l.233-7.161-10.915-3.613c-12.726-4.213-21.148-9.046-28.492-16.351-6.196-6.163-10.446-14.506-9.441-18.534 2.209-8.85 13.17-9.353 18.428-.846 7.288 11.793 24.7 19.902 43.09 20.069 7.631.069 9.048-.226 13.855-2.889 6.441-3.568 12.223-9.892 15.632-17.098 1.382-2.922 2.513-5.565 2.513-5.874 0-.309-2.628-.562-5.84-.562-16.101 0-36.485-9.7-43.193-20.554-4.132-6.685.129-15.446 7.513-15.446 2.971 0 4.628.984 9.874 5.864 7.585 7.057 14.809 10.094 25.857 10.873 12.126.855 12.134.844 16.946-22.162.682-3.258 2.238-7.083 3.459-8.5 2.171-2.517 2.467-2.568 13.222-2.265 12.434.351 18.586-.866 20.268-4.007 2.094-3.913-.942-12.475-12.692-35.803-6.233-12.375-11.454-23.625-11.602-25-.148-1.375.346-7.207 1.098-12.96.874-6.692 1.149-14.438.763-21.5-.722-13.227-1.349-15.897-3.561-15.176-22.154 7.22-44.833 7.441-64.631.63-6.978-2.401-6.414-2.382-7.128-.244m31.147 30.272c-5.963 1.197-14.978 4.78-17.992 7.15-3.694 2.906-4.825 6.338-3.455 10.489 1.058 3.205 5.097 6.345 8.147 6.334.715-.002 4.894-1.402 9.286-3.11 5.604-2.18 10.375-3.262 16-3.629 4.408-.287 8.786-.92 9.729-1.405.943-.486 2.234-2.616 2.868-4.734 1.395-4.657-.188-8.853-4.083-10.823-2.742-1.387-14.188-1.539-20.5-.272m8.511 33.881c-3.158.865-6.563 5.874-7.336 10.792-1.429 9.087 3.069 16.319 10.131 16.29 4.482-.019 5.476-.619 7.434-4.485 2.491-4.919 3.011-9.287 1.737-14.594-1.563-6.515-6.164-9.593-11.966-8.003M392.45 526.407c-10.171 4.43-12.33 18.101-4.012 25.404 13.973 12.269 33.772-6.713 21.819-20.918-4.609-5.477-11.529-7.221-17.807-4.486m135 0c-10.171 4.43-12.33 18.101-4.012 25.404 13.973 12.269 33.772-6.713 21.819-20.918-4.609-5.477-11.529-7.221-17.807-4.486"/><path fill-rule="evenodd" d="M460.075 76.03c-12.796 2.676-25.897 9.047-36.996 17.99-5.942 4.788-8.135 5.983-11 5.997-5.645.028-16.983 2.693-24.079 5.66-28.444 11.894-46.717 37.268-47.492 65.945-.237 8.769-.616 10.707-2.837 14.5-7.912 13.511-10.166 22.407-10.104 39.878.061 17.308 2.369 26.275 10.036 38.994 4.111 6.819 5.719 10.693 6.927 16.693 2.852 14.156 8.077 25.466 17.596 38.09 4.534 6.012 13.792 13.674 18.677 15.458 2.853 1.041 3.218 1.55 2.681 3.735-1.19 4.838-7.419 14.716-11.862 18.811-6.372 5.874-17.75 11.25-39.592 18.709-35.45 12.105-48.973 18.279-64.347 29.378-22.656 16.355-34.264 36.939-50.833 90.132-18.535 59.506-28.937 112.355-26.051 132.363 3.576 24.788 21.882 41.405 57.327 52.038 10.987 3.296 47.509 12.229 59.701 14.603 5.129.999 9.518 2.008 9.753 2.243.235.235-.014 5.825-.553 12.422-2.088 25.558 2.567 58.993 11.457 82.288 14.201 37.214 42.42 70.563 79.926 94.458 8.132 5.181 29.226 15.639 40.09 19.876 46.964 18.318 113.62 24.292 169 15.147 65.237-10.772 121.275-37.14 161.375-75.934 33.952-32.845 53.895-70.627 61.698-116.891 2.135-12.655 2.958-43.441 1.546-57.82-2.163-22.031-6.16-41.257-12.205-58.704-1.821-5.255-2.564-8.706-1.92-8.92 3.889-1.297 14.963-10.012 23.006-18.107 13.294-13.381 19.045-23.829 23.026-41.833 2.355-10.648 2.457-20.967.425-42.963-1.926-20.851-.519-39.493 3.947-52.266 2.28-6.523 2.005-9.357-1.246-12.837-3.854-4.126-7.045-4.724-14.885-2.789-19.081 4.709-48.252 23.503-63.058 40.626-9.601 11.103-18.609 27.689-21.943 40.4-.952 3.63-2.016 6.6-2.365 6.6-.35 0-1.758-1.688-3.131-3.75-7.287-10.949-24.316-25.984-38.267-33.786-14.841-8.299-35.79-15.128-49.575-16.159-8.665-.648-11.121.233-13.506 4.846-2.109 4.079-1.387 7.519 4.025 19.18 5.009 10.792 10.365 26.88 13.541 40.669 5.045 21.906 6.393 26.746 9.502 34.118 8.467 20.074 27.203 40.304 45.896 49.553 7.512 3.717 8.316 4.726 6.794 8.527-.707 1.764-.89 1.638-33.803-23.132a13000.539 13000.539 0 0 0-20.877-15.669c-12.126-9.079-21.729-17.998-23.882-22.182-.769-1.493-3.528-9.915-6.133-18.715-22.392-75.658-26.413-87.608-36.004-107-12.53-25.334-28.086-40.408-51.558-49.963-7.447-3.032-21.094-7.231-29.24-8.998l-2.818-.611 4.876-5.335c5.766-6.309 11.012-16.031 14.619-27.093 2.707-8.298 6.64-26.049 6.64-29.962 0-2.094.543-2.279 8.293-2.826 21.672-1.53 33.937-13.501 32.416-31.639-.739-8.82-3.764-16.489-15.104-38.294-9.013-17.33-9.461-18.484-8.625-22.192 2.902-12.867 1.921-36.908-1.982-48.549l-1.831-5.462 5.667-6.067c17.706-18.96 19.898-47.816 5.267-69.36-6.496-9.565-15.512-15.117-22.337-13.752-1.681.336-5.128 1.883-7.66 3.436-11.569 7.098-23.709 8.449-39.104 4.354-4.125-1.097-12.9-3.447-19.5-5.221-10.624-2.857-13.777-3.263-27.5-3.544-8.525-.175-17.491.099-19.925.608m6.852 20.065c-7.29 1.032-17.754 5.017-23.687 9.022-2.607 1.759-7.725 6.278-11.374 10.041L425.231 122h-9.434c-15.661 0-27.678 4.895-38.499 15.684-11.033 10.999-15.553 23.081-15.084 40.316l.286 10.5-5.151 7.686c-7.261 10.834-7.86 13.049-7.785 28.814.073 15.523 1.387 20.366 8.794 32.428 5.144 8.376 5.154 8.402 7.728 19.958 2.989 13.417 8.418 24.181 16.24 32.198 3.566 3.655 7.081 6.447 7.811 6.204.73-.244 2.083-3.333 3.007-6.865 1.665-6.37 1.661-6.435-.482-7.923-8.939-6.203-16.2-17.16-19.268-29.075-2.214-8.6-2.26-25.459-.092-33.66 4.776-18.06 14.824-27.585 29.198-27.677 8.8-.056 14.468 2.377 21.894 9.4l5.392 5.1 2.129-2.707c3.758-4.778 3.7-6.958-.305-11.391-2.878-3.186-3.61-4.806-3.61-7.993 0-4.277 2.562-7.896 5.75-8.12.962-.068 4.765-.25 8.45-.404 8.266-.346 15.791-3.58 22.309-9.588 5.764-5.313 7.987-9.571 9.934-19.023 1.206-5.858 2.136-7.924 4.552-10.112 3.991-3.615 6.682-3.521 21.954.764 25.969 7.287 44.403 6.915 60.454-1.218 7.034-3.565 16.077-12.538 19.349-19.2 2.364-4.813 2.741-6.785 2.695-14.096-.057-9.053-2.577-16.998-6.526-20.571-1.796-1.626-2.191-1.581-7.677.881-17.188 7.713-32.023 7.541-59.362-.688-16.276-4.9-32.573-6.997-42.955-5.527m26.426 80.655c-5.148 15.423-17.721 28.632-32.711 34.369l-5.38 2.058-.521 5.74c-1.052 11.601-10.103 24.841-19.847 29.033-8.532 3.67-11.969 2.112-19.738-8.95-4.616-6.571-9.33-9.517-13.422-8.388-2.62.723-3.802 2.03-6.227 6.883-2.777 5.559-2.993 6.782-3 16.998-.008 12.578 1.644 18.808 6.574 24.789 3.639 4.414 7.583 4.893 14.155 1.718 6.274-3.031 11.022-2.67 14.175 1.077 5.266 6.258 1.618 14.837-7.846 18.451-4.234 1.617-4.37 1.81-5.504 7.815-1.802 9.544-7.792 29.983-11.738 40.052-4.639 11.837-9.417 18.791-17.704 25.772-9.029 7.605-18.557 12.364-40.619 20.29-46.533 16.716-56.548 21.64-70.436 34.632-8.727 8.164-14.401 16.203-20.5 29.049C240.913 483.731 221.185 552 213.949 593.5c-1.156 6.631-2.169 17.145-2.264 23.5-.156 10.479.058 11.988 2.412 17 1.421 3.025 3.806 6.946 5.3 8.712 3.464 4.095 12.127 9.361 21.649 13.158 15.246 6.08 56.355 16.11 96.954 23.655 25.739 4.783 26.797 5.277 31.317 14.614 4.587 9.478 14.196 21.525 28.294 35.476C409.561 741.44 419.702 749 423.614 749c2.991 0 2.979-1.185-.082-7.759-2.985-6.412-7.276-12.733-14.114-20.794-6.044-7.124-7.027-9.562-5.423-13.435 1.616-3.901 6.03-5.658 10.041-3.997 6.666 2.761 22.027 22.605 27.54 35.577 2.705 6.364 4.189 7.476 7.325 5.49 4.353-2.756-4.621-25.184-15.438-38.582-3.108-3.85-6.047-8.012-6.532-9.25-1.956-4.994 3.522-11.087 8.812-9.799 6.416 1.561 21.033 20.678 27.877 36.458 3.087 7.119 4.182 6.543 4.31-2.265.223-15.393-11.77-37.927-26.188-49.209-12.593-9.853-17.8-11.924-78.742-31.307-64.667-20.568-96.492-31.141-99.807-33.157-4.132-2.513-5.175-7.604-2.497-12.191 3.232-5.533 5.366-5.746 20.946-2.091 1.933.454 2.649-.801 7.325-12.843 2.851-7.34 8.923-22.121 13.493-32.846 4.57-10.725 11.07-26.517 14.444-35.094 6.792-17.265 9.001-20.306 14.75-20.306 7.055 0 11.59 8.99 8.376 16.603-4.253 10.073-11.146 31.329-10.738 33.111 3.502 15.278 7.17 33.528 9.684 48.186 1.699 9.9 3.332 19.229 3.631 20.731.504 2.533 1.496 3.026 13.718 6.818 43.816 13.597 68.033 21.557 74.232 24.403 20.467 9.395 36.714 23.711 45.874 40.422l3.906 7.126h4.759c12.847 0 29.356-4.137 37.992-9.521 12.992-8.098 22.99-20.67 27.307-34.337 1.58-5.001 3.213-14.559 4.565-26.714 1.157-10.411 3.65-26.578 5.539-35.928 3.714-18.379 5.848-31.14 7.443-44.5 1.79-14.998 4.058-46.191 4.058-55.817 0-8.986.11-9.447 2.923-12.26 3.761-3.76 8.758-3.961 12.771-.512 2.776 2.385 2.81 2.553 3.142 15.75.366 14.529-1.027 38.86-3.399 59.377l-1.507 13.037 4.123 11.963c7.877 22.856 14.166 33.805 26.402 45.962 14.392 14.3 40.933 28.862 96.545 52.971 18.5 8.02 18.297 7.963 20.348 5.697 2.366-2.615 12.665-23.108 12.592-25.058-.033-.885-3.83-4.31-8.437-7.61-13.746-9.845-64.314-47.502-68.823-51.25-6.183-5.141-13.458-14.002-16.684-20.321-1.564-3.064-5.845-16.114-9.512-29-18.78-65.982-29.662-95.464-40.83-110.619-9.085-12.329-24.839-22.516-45.154-29.199-12.356-4.064-36.612-10.332-37.305-9.64-.311.312-.896 3.363-1.299 6.779-.905 7.675-3.774 10.75-10.029 10.75-3.131 0-4.682-.661-7.011-2.99-2.823-2.824-2.978-3.392-2.759-10.151l.233-7.161-10.915-3.613c-12.726-4.213-21.148-9.046-28.492-16.351-6.196-6.163-10.446-14.506-9.441-18.534 2.209-8.85 13.17-9.353 18.428-.846 7.288 11.793 24.7 19.902 43.09 20.069 7.631.069 9.048-.226 13.855-2.889 6.441-3.568 12.223-9.892 15.632-17.098 1.382-2.922 2.513-5.565 2.513-5.874 0-.309-2.628-.562-5.84-.562-16.101 0-36.485-9.7-43.193-20.554-4.132-6.685.129-15.446 7.513-15.446 2.971 0 4.628.984 9.874 5.864 7.585 7.057 14.809 10.094 25.857 10.873 12.126.855 12.134.844 16.946-22.162.682-3.258 2.238-7.083 3.459-8.5 2.171-2.517 2.467-2.568 13.222-2.265 12.434.351 18.586-.866 20.268-4.007 2.094-3.913-.942-12.475-12.692-35.803-6.233-12.375-11.454-23.625-11.602-25-.148-1.375.346-7.207 1.098-12.96.874-6.692 1.149-14.438.763-21.5-.722-13.227-1.349-15.897-3.561-15.176-22.154 7.22-44.833 7.441-64.631.63-6.978-2.401-6.414-2.382-7.128-.244m31.147 30.272c-5.963 1.197-14.978 4.78-17.992 7.15-3.694 2.906-4.825 6.338-3.455 10.489 1.058 3.205 5.097 6.345 8.147 6.334.715-.002 4.894-1.402 9.286-3.11 5.604-2.18 10.375-3.262 16-3.629 4.408-.287 8.786-.92 9.729-1.405.943-.486 2.234-2.616 2.868-4.734 1.395-4.657-.188-8.853-4.083-10.823-2.742-1.387-14.188-1.539-20.5-.272m8.511 33.881c-3.158.865-6.563 5.874-7.336 10.792-1.429 9.087 3.069 16.319 10.131 16.29 4.482-.019 5.476-.619 7.434-4.485 2.491-4.919 3.011-9.287 1.737-14.594-1.563-6.515-6.164-9.593-11.966-8.003m313.812 221.638c-15.239 8.296-29.503 20.688-37.738 32.784C799.497 509.41 792 535.452 792 554.677c0 8.024-3.975 12.323-11.395 12.323-5.109 0-7.842-3.102-12.771-14.5-11.531-26.665-30.129-45.343-56.861-57.108-5.489-2.416-10.633-4.392-11.432-4.392-1.169 0-.983 1.244.956 6.396 3.563 9.467 7.132 22.389 10.443 37.819 6.907 32.184 19.855 49.901 46.311 63.368 13.115 6.676 15.833 9.079 15.937 14.09.086 4.169-3.054 23.563-5.396 33.327-12.271 51.157-56.491 92.04-99.5 91.992-13.296-.014-29.109-3.878-47.364-11.573-24.96-10.521-46.201-27.884-57.975-47.392l-3.548-5.877-4.141 5.352c-12.839 16.594-35.572 28.029-58.13 29.24l-10.366.557.661 7.601c1.287 14.794-3.091 24.902-12.768 29.48-4.579 2.167-6.018 3.511-8.347 7.794-3.387 6.23-7.372 8.56-16.967 9.919-4.223.598-7.541 1.678-8.81 2.867-7.957 7.45-25.086 4.774-39.773-6.215-17.83-13.34-41.833-39.554-49.925-54.524-1.362-2.521-2.492-3.196-6.296-3.767-2.549-.382-4.952-.38-5.339.006-1.189 1.183-1.74 18.334-1.036 32.251 2.105 41.609 16.566 75.159 45.298 105.092 33.172 34.558 73.978 53.689 134.034 62.84 18.614 2.836 71.792 2.641 90.513-.332 37.323-5.928 65.572-14.646 96.487-29.779 51.045-24.986 86.652-61.102 104.476-105.971 3.551-8.94 8.262-26.384 10.683-39.561 2.496-13.583 2.499-52.924.006-68.904-2.364-15.152-6.777-31.976-11.671-44.492-2.197-5.619-3.994-11.488-3.994-13.042 0-3.481 5.063-8.605 16.769-16.97 12.356-8.83 22.566-20.012 27.315-29.917 6.959-14.513 8.212-26.104 5.368-49.675-1.519-12.592-1.334-23.472.634-37.386.536-3.788.848-6.969.694-7.07-.154-.1-3.735 1.698-7.957 3.997M313.146 574.323c-.68 1.747-2.973 8.163-5.094 14.256l-3.858 11.08 6.653 1.92c3.659 1.057 7.103 1.921 7.653 1.921.55 0 1.375.45 1.833 1 1.039 1.248.462-2.392-3.117-19.677-2.715-13.112-2.883-13.546-4.07-10.5m264.376 29.927c-1.631 15.122-4.574 38.34-5.051 39.843-.815 2.567 4.08 16.726 8.253 23.873 7.694 13.176 23.896 27.401 40.776 35.8 17.454 8.685 38.279 13.997 49.906 12.73 15.177-1.653 33.925-10.715 43.831-21.185l2.737-2.893-9.409-3.712c-35.084-13.838-68.161-29.974-86.889-42.388-19.031-12.615-32.597-27.006-40.128-42.568-1.531-3.163-2.911-5.75-3.067-5.75-.157 0-.588 2.813-.959 6.25"/><path fill="#089c89" fill-rule="evenodd" d="M466.927 96.095c-7.29 1.032-17.754 5.017-23.687 9.022-2.607 1.759-7.725 6.278-11.374 10.041L425.231 122h-9.434c-15.661 0-27.678 4.895-38.499 15.684-11.033 10.999-15.553 23.081-15.084 40.316l.286 10.5-5.151 7.686c-7.261 10.834-7.86 13.049-7.785 28.814.073 15.523 1.387 20.366 8.794 32.428 5.144 8.376 5.154 8.402 7.728 19.958 2.989 13.417 8.418 24.181 16.24 32.198 3.566 3.655 7.081 6.447 7.811 6.204.73-.244 2.083-3.333 3.007-6.865 1.665-6.37 1.661-6.435-.482-7.923-8.939-6.203-16.2-17.16-19.268-29.075-2.214-8.6-2.26-25.459-.092-33.66 4.776-18.06 14.824-27.585 29.198-27.677 8.8-.056 14.468 2.377 21.894 9.4l5.392 5.1 2.129-2.707c3.758-4.778 3.7-6.958-.305-11.391-2.878-3.186-3.61-4.806-3.61-7.993 0-4.277 2.562-7.896 5.75-8.12.962-.068 4.765-.25 8.45-.404 8.266-.346 15.791-3.58 22.309-9.588 5.764-5.313 7.987-9.571 9.934-19.023 1.206-5.858 2.136-7.924 4.552-10.112 3.991-3.615 6.682-3.521 21.954.764 25.969 7.287 44.403 6.915 60.454-1.218 7.034-3.565 16.077-12.538 19.349-19.2 2.364-4.813 2.741-6.785 2.695-14.096-.057-9.053-2.577-16.998-6.526-20.571-1.796-1.626-2.191-1.581-7.677.881-17.188 7.713-32.023 7.541-59.362-.688-16.276-4.9-32.573-6.997-42.955-5.527m379.896 366.446c-15.239 8.296-29.503 20.688-37.738 32.784C799.497 509.41 792 535.452 792 554.677c0 8.024-3.975 12.323-11.395 12.323-5.109 0-7.842-3.102-12.771-14.5-8.666-20.039-21.622-35.909-38.465-47.116-7.987-5.314-22.722-12.486-28.615-13.927l-2.745-.672 2.448 6.504c3.602 9.571 7.16 22.442 10.483 37.926 6.907 32.184 19.855 49.901 46.311 63.368 13.115 6.676 15.833 9.079 15.937 14.09.086 4.169-3.054 23.563-5.396 33.327-7.346 30.623-27.855 60.514-52.699 76.807-22.506 14.759-45.683 18.569-71.093 11.688-11.39-3.085-28.313-9.82-37.301-14.847-17.049-9.534-34.222-25.166-42.596-38.772l-4.729-7.685-4.126 5.332c-12.823 16.572-35.568 28.009-58.114 29.219l-10.366.557.661 7.601c1.287 14.794-3.091 24.902-12.768 29.48-4.579 2.167-6.018 3.511-8.347 7.794-3.374 6.207-7.263 8.492-16.976 9.976-4.013.613-7.664 1.803-8.838 2.881-8.021 7.364-25.105 4.661-39.736-6.286-17.83-13.34-41.833-39.554-49.925-54.524-1.362-2.521-2.492-3.196-6.296-3.767-2.549-.382-4.952-.38-5.339.006-1.189 1.183-1.74 18.334-1.036 32.251 2.105 41.609 16.566 75.159 45.298 105.092 33.172 34.558 73.978 53.689 134.034 62.84 18.614 2.836 71.792 2.641 90.513-.332 37.323-5.928 65.572-14.646 96.487-29.779 51.045-24.986 86.652-61.102 104.476-105.971 3.551-8.94 8.262-26.384 10.683-39.561 2.496-13.583 2.499-52.924.006-68.904-2.364-15.152-6.777-31.976-11.671-44.492-2.197-5.619-3.994-11.488-3.994-13.042 0-3.481 5.063-8.605 16.769-16.97 12.356-8.83 22.566-20.012 27.315-29.917 6.959-14.513 8.212-26.104 5.368-49.675-1.519-12.592-1.334-23.472.634-37.386.536-3.788.848-6.969.694-7.07-.154-.1-3.735 1.698-7.957 3.997M760.25 713.625c-2.137.926-1.38 4.463 1.708 7.98 8.486 9.665 7.168 28.506-2.703 38.638-3.228 3.313-3.536 4.058-2.682 6.5 2.013 5.759 12.073 2.781 19.859-5.879 5.072-5.641 6.568-10.22 6.568-20.104 0-8.661-1.728-14.367-5.978-19.732-4.11-5.19-12.912-9.075-16.772-7.403m-190.229 27.493c-4.039 8.337-7.049 12.05-12.725 15.692-9.234 5.925-20.649 7.498-33.389 4.601-7.697-1.751-9.907-1.079-9.907 3.015 0 4.18 9.851 11.717 17.5 13.388 12.736 2.784 19.255 2.276 29.195-2.275 6.137-2.809 15.506-11.686 17.576-16.654 3.497-8.389 2.83-20.69-1.239-22.868-3.235-1.731-3.955-1.208-7.011 5.101m118.551 17.453c-2.444 2.444-1.867 5.778 1.558 8.992 7.051 6.617 9.395 19.981 5.167 29.46-2.063 4.626-9.627 12.261-14.954 15.094-4.175 2.22-4.898 5.473-1.685 7.579 2.13 1.395 3.354 1.469 8.511.51 9.069-1.687 14.42-4.719 19.301-10.938 5.174-6.593 7.53-13.382 7.53-21.701 0-8.987-2.379-15.938-7.272-21.246-6.407-6.951-15.201-10.705-18.156-7.75m-78.906 45.291c-9.461 15.328-24.784 21.748-42.166 17.666-12.457-2.926-13.2-2.958-14.447-.627-1.365 2.551-.473 4.435 4.115 8.687 10.85 10.057 25.229 12.427 41.867 6.9 6.736-2.237 15.022-9.917 18.039-16.718 2.739-6.177 3.326-17.378 1.054-20.116-2.476-2.983-4.708-1.873-8.462 4.208m-121.427 1.158c-9.807 9.321-12.654 10.48-25.739 10.48-10.614 0-11.263-.128-18.5-3.642-4.125-2.004-8.233-3.881-9.128-4.172-4.257-1.385-5.254 6.052-1.494 11.148 5.419 7.345 13.869 12.485 24.016 14.608 15.967 3.341 34.091-4.737 40.253-17.942 2.998-6.423 3.202-13.975.419-15.465-2.879-1.54-3.055-1.451-9.827 4.985"/></svg>