<svg xmlns="http://www.w3.org/2000/svg" width="1024" height="1024"><path fill="#000001" fill-rule="evenodd" d="M483 74.649c-1.375.207-7.675 1.068-14 1.914-22.152 2.963-50.489 11.789-72.142 22.47-25.797 12.725-46.612 27.63-66.918 47.918-19.358 19.341-33.096 37.318-46.918 61.393-16.92 29.473-28.944 63.927-33.958 97.303-1.903 12.674-2.574 21.012-5.58 69.387-1.883 30.294-2.821 38.553-5.933 52.22-4.628 20.331-10.731 32.384-29.237 57.746-19.156 26.252-27.462 40.124-35.072 58.573-11.269 27.321-15.275 51.198-13.271 79.098 2.046 28.478 7.89 48.989 24.168 84.829 5.496 12.1 10.879 25.15 11.963 29 4.141 14.701 3.494 31.075-1.818 46-7.355 20.668-24.718 49.077-46.068 75.375-4.632 5.706-9.095 11.984-9.917 13.952-2.126 5.089-.37 10.161 5.767 16.649 14.035 14.841 45.588 21.815 75.517 16.692 11.839-2.027 27.31-6.427 35.519-10.102 4.001-1.791 4.263-1.793 8.265-.033 16.599 7.297 54.19 11.168 77.133 7.943 28.173-3.96 53.648-14.22 73.831-29.735l5.832-4.483 11.168 2.589c23.806 5.517 40.295 7.483 69.669 8.307 42.433 1.19 88.526-5.411 123.5-17.685 21.844-7.667 46.999-21.983 60.059-34.181l6.115-5.713 1.67 8.713c3.007 15.693 1.783 34.05-3.406 51.067-2.569 8.426-2.475 13.051.349 17.247 3.254 4.834 6.944 6.316 15.713 6.313 9.093-.003 18.831-2.801 30.946-8.893 20.951-10.536 37.04-26.513 45.986-45.663 6.322-13.532 7.531-19.295 7.524-35.859-.006-13.014-.287-15.391-2.747-23.197-8.729-27.699-27.344-48.513-73.206-81.854-26.787-19.474-36.995-31.077-42.08-47.83-1.94-6.393-1.893-6.554 2.327-8.018 7.109-2.467 17.657-9.439 24.223-16.011 15.602-15.619 25.213-38.816 29.661-71.59 1.422-10.484 2.004-12.478 4.604-15.779 5.255-6.673 6.955-12.819 7.641-27.626l.621-13.404 8.764-2.324c21.695-5.752 36.137-15.385 42.528-28.367 2.268-4.607 2.705-6.799 2.688-13.5-.017-7.079-.43-8.864-3.584-15.5-3.673-7.729-10.549-16.94-22.397-30-17.815-19.638-26.461-37.024-28.155-56.615l-.615-7.114 5.886-5.895c13.306-13.328 24.334-31.809 28.955-48.526 3.589-12.984 4.404-33.084 1.941-47.861-3.87-23.217-12.119-44.29-24.854-63.489-21.647-32.634-57.309-61.536-96.274-78.025-7.086-2.998-16.033-7.09-19.883-9.092-18.546-9.645-24.79-12.487-34.5-15.703-19.069-6.317-39.231-10.575-59.856-12.642-9.582-.96-52.443-1.247-58.144-.389m4.5 23.444c-49.316 4.013-99.576 27.195-139.13 64.174-15.865 14.832-36.916 43.078-48.244 64.733-6.411 12.255-12.516 25.943-11.863 26.597.218.217 2.835-.918 5.816-2.523 11.766-6.335 29.37-8.066 43.108-4.24l6.686 1.862.619-6.598c1.438-15.329 8.402-30.759 18.332-40.614 19.402-19.256 51.135-19.339 69.952-.183 10.307 10.493 15.777 23.092 16.901 38.93.494 6.952.927 8.751 2.008 8.336 5.727-2.197 15.229-3.804 22.815-3.858 10.537-.074 19.18 1.913 28.5 6.553 6.175 3.075 16.548 12.016 18.753 16.164.977 1.838 1.269 1.771 6.385-1.453 26.487-16.693 44.884-40.339 54.456-69.991C586.662 183.38 588.712 181 595.5 181c5.244 0 9.07 2.785 10.389 7.561.751 2.72.453 5.358-1.38 12.205-9.467 35.357-31.905 63.748-66.627 84.303l-8.617 5.102-1.138 6.892c-.626 3.791-2.05 9.204-3.163 12.028-5.606 14.223-20 28.509-36.074 35.806l-5.893 2.675 2.751 3.269 2.752 3.269 6.714-1.568c37.742-8.818 82.71-34.098 110.371-62.046 22.109-22.34 35.321-45.061 43.027-73.996 4.183-15.706 6.483-18.861 13.667-18.752 8.513.129 22.163 9.261 39.586 26.485 28.906 28.574 39.078 51.335 37.998 85.019-.233 7.246-.009 11.63.584 11.432 1.972-.657 11.692-21.471 13.587-29.094 6.593-26.522-3.55-63.62-25.402-92.915-22.4-30.028-51.432-51.578-91.024-67.566-8.19-3.308-17.213-7.556-20.051-9.44-7.783-5.167-12.014-7.095-24.057-10.958-33.107-10.621-72.664-15.33-106-12.618M392 209.879c-13.036 4.271-21.518 15.086-23.996 30.598-1.809 11.321 2.076 25.791 9.331 34.755 2.093 2.586 2.425 2.671 6.188 1.587 5.473-1.575 20.16-1.536 24.803.066 3.574 1.233 3.996 1.165 6.386-1.032 5.737-5.274 10.97-15.861 12.684-25.666.889-5.086-1.092-16.49-3.892-22.405-3.099-6.544-9.194-12.969-14.943-15.752-4.866-2.356-12.792-3.385-16.561-2.151m275.956 19.371c-5.66 21.446-16.788 42.411-33.253 62.645-20.061 24.654-48.857 46.677-83.203 63.635-14.905 7.359-36.408 15.215-48.122 17.581l-6.121 1.236.498 10.577c.584 12.402-.656 19.556-4.838 27.926-8.034 16.078-28.043 25.314-48.168 22.233-14.253-2.182-25.03-7.035-34.47-15.522-2.79-2.509-5.272-4.561-5.516-4.561-1.118 0-3.092 15.448-3.066 24 .092 30.618 17.304 50.877 46.663 54.926 12.963 1.788 17.64 5.315 17.64 13.302 0 6.049-5.425 10.772-12.373 10.772-4.146 0-4.64 1.153-7.067 16.5-3.551 22.465-4.329 43.42-2.524 68 1.83 24.914 5.957 43.438 14.475 64.975 13.507 34.151 17.969 58.784 15.632 86.294-2.168 25.509-7.04 43.328-17.699 64.731-3.561 7.15-9.187 16.768-12.502 21.374-3.315 4.606-5.804 8.597-5.532 8.87.878.877 17.758 4.014 29.09 5.405 16.656 2.046 71.212 1.745 88-.485 52.196-6.933 92.47-22.815 118.955-46.91l5.955-5.417-2.25-2.919c-6.104-7.917-20.238-20.694-34.54-31.225-23.962-17.643-30.529-23.138-37.371-31.267-11.251-13.368-16.154-25.61-18.344-45.803-1.052-9.704-.66-28.235.712-33.727.473-1.89-.572-2.482-10.295-5.833-12.322-4.247-25.377-10.371-31.383-14.722-5.172-3.747-7.212-8.269-5.89-13.056 1.257-4.554 3.899-6.834 8.657-7.472 3.263-.438 5.327.263 13.327 4.527 29.985 15.98 73.919 22.613 97.431 14.708 16.29-5.477 27.974-17.21 35.634-35.785 2.532-6.14 6.901-23.604 8.197-32.763l.495-3.5-13.145-.125c-11.074-.105-14.532-.54-21.952-2.762-20.908-6.261-29.863-14.582-25.265-23.475 1.627-3.145 6.087-6.138 9.146-6.138.921 0 5.133 1.562 9.36 3.47 11.377 5.137 19.652 6.777 32.066 6.357 8.721-.296 11.347-.777 15.5-2.842l5-2.485.702-7c.386-3.85 1.114-12.195 1.618-18.545.967-12.186 2.511-16.815 6.473-19.411 1.239-.812 7.134-2.418 13.101-3.569 17.026-3.286 26.409-7.387 31.939-13.959 5.712-6.788 3.275-12.313-14.261-32.331-20.479-23.376-26.54-32.366-32.105-47.612-5.403-14.804-6.023-21.583-5.731-62.594.2-28.06-.059-38.426-1.076-42.979-1.878-8.415-7.089-18.869-14.276-28.648-6.219-8.459-29.788-32.852-31.743-32.852-.585 0-1.569 1.912-2.185 4.25m-357.238 38.78c-5.299 1.334-9.193 3.501-13.842 7.701-5.646 5.101-7.227 8.637-7.172 16.044.054 7.398 4.087 16.711 9.487 21.91 11.396 10.972 31.662 16.092 47.309 11.954 4.407-1.166 4.965-1.608 4.701-3.731-.82-6.596 3.928-22.741 8.427-28.656l2.471-3.248-2.97-4.316c-3.999-5.813-10.659-11.105-18.726-14.88-5.772-2.701-7.984-3.167-16.291-3.428-5.287-.167-11.314.126-13.394.65m150.08.845c-9.373 3.088-19.181 9.673-25.377 17.036l-2.592 3.081 4.095 6.132c4.616 6.912 6.945 13.883 7.914 23.686l.662 6.69 6 1.279c33.838 7.21 67.876-28.03 48.421-50.131-5.62-6.385-12.168-8.94-23.921-9.333-7.267-.244-10.84.123-15.202 1.56M387.5 299.377c-5.958 2.81-8.674 5.575-11.416 11.623-5.271 11.626.503 26.588 12.134 31.447 5.437 2.271 14.958 2.014 19.962-.539 12.093-6.169 16.963-19.616 11.418-31.525-5.465-11.737-19.988-16.717-32.098-11.006m-115.848 21.649c-.301 3.011-1.04 19.066-1.642 35.678-2.761 76.094-9.536 100.812-37.859 138.117-18.628 24.537-35.026 53.073-40.557 70.581-9.356 29.615-9.873 58.451-1.577 87.997 3.898 13.879 8.392 25.19 18.687 47.027 13.787 29.241 17.072 42.049 16.019 62.461-.608 11.794-3.456 22.991-9.44 37.113-7.725 18.233-25.002 45.853-41.524 66.386-4.817 5.987-8.759 11.262-8.759 11.722 0 1.038 8.752 3.629 16.605 4.915 17.973 2.943 43.427-.889 66.395-9.995 25.679-10.182 57.076-37.159 74.732-64.213 21.588-33.079 29.169-66.165 21.964-95.859-4.681-19.293-10.591-32.041-26.16-56.427-9.032-14.149-13.731-23.485-17.377-34.529-7.982-24.178-8.333-49.94-1.005-73.8 2.24-7.295 9.503-22.457 13.095-27.337 4.967-6.749 12.059-7.755 17.351-2.463 4.679 4.679 4.533 8.393-.741 18.872-8.674 17.235-11.983 30.732-11.945 48.731.044 21.352 4.979 36.219 19.266 58.042 13.837 21.137 19.507 32.122 25.42 49.255 9.993 28.954 10.098 58.38.307 86.388-13.068 37.382-42.534 75.776-72.657 94.671-2.337 1.466-4.25 3.064-4.25 3.55 0 .844 9.332 2.319 22.693 3.589 7.991.759 29.424-1.083 40.307-3.464 19.055-4.169 36.468-12.166 51.802-23.79 22.562-17.104 40.757-48.191 47.575-81.285 6.664-32.342 4.042-58.455-9.433-93.959-8.198-21.6-12.337-37.686-16.085-62.5-2.044-13.537-1.726-60.472.515-76 1.525-10.569 3.72-21.866 5.158-26.551.343-1.115-.859-2.033-4.278-3.268-14.536-5.249-29.393-18.729-36.572-33.181-7.033-14.158-10.664-33.118-8.863-46.286.467-3.417.679-6.383.47-6.592-.209-.209-2.786.923-5.727 2.516-22.547 12.211-48.71 10.906-64.007-3.194-5.482-5.053-11.095-15.881-12.673-24.444-2.39-12.978 2.083-32.559 10.586-46.344 4.43-7.181 4.481-7.356 2.281-7.92-4.528-1.162-16.878-8.167-22.981-13.036-5.543-4.422-8.146-7.314-13.21-14.674-1.236-1.796-1.407-1.481-1.906 3.5M670 327.524c-18.57 2.908-39.515 13.246-53.308 26.313-9.866 9.346-11.72 16.33-5.946 22.401 5.105 5.367 11.389 4.627 18.152-2.136 15.629-15.629 33.369-24.081 53.911-25.686 12.08-.944 12.191-1.031 12.191-9.517 0-8.574-.942-10.511-5.762-11.85-4.68-1.299-8.505-1.205-19.238.475m-320.169 18.855c-23.115 9.507-36.502 37.654-27.216 57.222 3.288 6.93 10.378 9.958 21.385 9.136 9.966-.745 18.706-4.764 26.946-12.393 8.11-7.509 12.386-14.41 14.508-23.412 2.448-10.382 2.568-10.121-6.349-13.766-8.452-3.456-14.98-8.492-19.543-15.077-1.559-2.249-3.11-4.078-3.448-4.065-.338.013-3.165 1.073-6.283 2.355M437 345.82c0 .451-1.672 2.774-3.716 5.162-4.665 5.45-13.917 11.485-21.056 13.735l-5.476 1.726.603 6.529c1.298 14.043 12.053 28.661 26.249 35.677 5.774 2.853 8.666 3.627 15.245 4.078 10.004.686 15.446-1.098 20.534-6.729 4.408-4.88 5.906-10.359 5.456-19.962-.716-15.285-10.76-29.867-25.723-37.345-6.968-3.483-12.116-4.703-12.116-2.871m226.232 35.638c-1.607 1.352-4.221 5.29-5.809 8.75-2.678 5.835-2.887 7.164-2.872 18.292.013 10.368.331 12.707 2.335 17.202 2.791 6.261 5.597 8.298 11.431 8.298 6.469 0 10.621-3.207 13.64-10.536 2.128-5.165 2.454-7.505 2.435-17.464-.035-18.362-4.498-27-13.95-27-3.096 0-5.101.684-7.21 2.458m-53.215 293.217c.021 18.528 1.415 26.491 6.523 37.246 4.128 8.693 12.91 17.844 26.468 27.579 30.147 21.648 43.208 33.078 53.873 47.146 6.767 8.927 15.548 26.753 18.155 36.854 4.048 15.685 3.629 36.758-1.029 51.724l-1.835 5.897 3.164-.674c14.586-3.107 37.08-21.195 44.926-36.127 9.237-17.577 8.944-39.718-.77-58.204-8.672-16.502-21.736-29.328-56.486-55.455-25.397-19.096-36.108-29.014-43.88-40.633-5.493-8.213-10.277-18.985-11.627-26.183l-.641-3.418-9.179.037c-5.049.02-13.342-.335-18.429-.789l-9.25-.825.017 15.825"/><path fill="#381f04" fill-rule="evenodd" d="M500.25 73.746c5.363.179 14.138.179 19.5 0 5.362-.18.975-.327-9.75-.327s-15.113.147-9.75.327M487.5 98.093c-49.316 4.013-99.576 27.195-139.13 64.174-15.865 14.832-36.916 43.078-48.244 64.733-6.411 12.255-12.516 25.943-11.863 26.597.218.217 2.835-.918 5.816-2.523 11.766-6.335 29.37-8.066 43.108-4.24l6.686 1.862.619-6.598c1.438-15.329 8.402-30.759 18.332-40.614 19.402-19.256 51.135-19.339 69.952-.183 10.307 10.493 15.777 23.092 16.901 38.93.494 6.952.927 8.751 2.008 8.336 5.727-2.197 15.229-3.804 22.815-3.858 10.537-.074 19.18 1.913 28.5 6.553 6.175 3.075 16.548 12.016 18.753 16.164.977 1.838 1.269 1.771 6.385-1.453 26.487-16.693 44.884-40.339 54.456-69.991C586.662 183.38 588.712 181 595.5 181c5.244 0 9.07 2.785 10.389 7.561.751 2.72.453 5.358-1.38 12.205-9.467 35.357-31.905 63.748-66.627 84.303l-8.617 5.102-1.138 6.892c-.626 3.791-2.05 9.204-3.163 12.028-5.606 14.223-20 28.509-36.074 35.806l-5.893 2.675 2.751 3.269 2.752 3.269 6.714-1.568c37.742-8.818 82.71-34.098 110.371-62.046 22.109-22.34 35.321-45.061 43.027-73.996 4.183-15.706 6.483-18.861 13.667-18.752 8.513.129 22.163 9.261 39.586 26.485 28.906 28.574 39.078 51.335 37.998 85.019-.233 7.246-.009 11.63.584 11.432 1.972-.657 11.692-21.471 13.587-29.094 6.593-26.522-3.55-63.62-25.402-92.915-22.4-30.028-51.432-51.578-91.024-67.566-8.19-3.308-17.213-7.556-20.051-9.44-7.783-5.167-12.014-7.095-24.057-10.958-33.107-10.621-72.664-15.33-106-12.618M719 152.275c0 .151 3.487 3.639 7.75 7.75l7.75 7.475-7.475-7.75c-6.943-7.198-8.025-8.206-8.025-7.475M778.343 273.5c.003 4.4.179 6.076.39 3.724.212-2.352.209-5.952-.006-8s-.388-.124-.384 4.276m-506.691 47.526c-.301 3.011-1.04 19.066-1.642 35.678-2.761 76.094-9.536 100.812-37.859 138.117-18.628 24.537-35.026 53.073-40.557 70.581-9.356 29.615-9.873 58.451-1.577 87.997 3.898 13.879 8.392 25.19 18.687 47.027 13.787 29.241 17.072 42.049 16.019 62.461-.608 11.794-3.456 22.991-9.44 37.113-7.725 18.233-25.002 45.853-41.524 66.386-4.817 5.987-8.759 11.262-8.759 11.722 0 1.038 8.752 3.629 16.605 4.915 17.973 2.943 43.427-.889 66.395-9.995 25.679-10.182 57.076-37.159 74.732-64.213 21.588-33.079 29.169-66.165 21.964-95.859-4.681-19.293-10.591-32.041-26.16-56.427-9.032-14.149-13.731-23.485-17.377-34.529-7.982-24.178-8.333-49.94-1.005-73.8 2.24-7.295 9.503-22.457 13.095-27.337 4.967-6.749 12.059-7.755 17.351-2.463 4.679 4.679 4.533 8.393-.741 18.872-8.674 17.235-11.983 30.732-11.945 48.731.044 21.352 4.979 36.219 19.266 58.042 13.837 21.137 19.507 32.122 25.42 49.255 9.993 28.954 10.098 58.38.307 86.388-13.068 37.382-42.534 75.776-72.657 94.671-2.337 1.466-4.25 3.064-4.25 3.55 0 .844 9.332 2.319 22.693 3.589 7.991.759 29.424-1.083 40.307-3.464 19.055-4.169 36.468-12.166 51.802-23.79 22.562-17.104 40.757-48.191 47.575-81.285 6.664-32.342 4.042-58.455-9.433-93.959-8.198-21.6-12.337-37.686-16.085-62.5-2.044-13.537-1.726-60.472.515-76 1.525-10.569 3.72-21.866 5.158-26.551.343-1.115-.859-2.033-4.278-3.268-14.536-5.249-29.393-18.729-36.572-33.181-7.033-14.158-10.664-33.118-8.863-46.286.467-3.417.679-6.383.47-6.592-.209-.209-2.786.923-5.727 2.516-22.547 12.211-48.71 10.906-64.007-3.194-5.482-5.053-11.095-15.881-12.673-24.444-2.39-12.978 2.083-32.559 10.586-46.344 4.43-7.181 4.481-7.356 2.281-7.92-4.528-1.162-16.878-8.167-22.981-13.036-5.543-4.422-8.146-7.314-13.21-14.674-1.236-1.796-1.407-1.481-1.906 3.5M244.31 354.5c.005 3.3.192 4.529.415 2.732.222-1.797.218-4.497-.01-6-.229-1.503-.411-.032-.405 3.268m496.115 155.834c-.281.733-.358 5.121-.172 9.75l.34 8.416.203-9.177c.173-7.795.467-9.245 1.954-9.634 1.64-.428 1.638-.464-.031-.573-.98-.064-2.012.484-2.294 1.218M159.32 621c0 3.575.182 5.038.403 3.25.222-1.788.222-4.712 0-6.5-.221-1.788-.403-.325-.403 3.25m450.697 53.675c.021 18.528 1.415 26.491 6.523 37.246 4.128 8.693 12.91 17.844 26.468 27.579 30.147 21.648 43.208 33.078 53.873 47.146 6.767 8.927 15.548 26.753 18.155 36.854 4.048 15.685 3.629 36.758-1.029 51.724l-1.835 5.897 3.164-.674c14.586-3.107 37.08-21.195 44.926-36.127 9.237-17.577 8.944-39.718-.77-58.204-8.672-16.502-21.736-29.328-56.486-55.455-25.397-19.096-36.108-29.014-43.88-40.633-5.493-8.213-10.277-18.985-11.627-26.183l-.641-3.418-9.179.037c-5.049.02-13.342-.335-18.429-.789l-9.25-.825.017 15.825M757 745.5c3.543 3.575 6.667 6.5 6.942 6.5.275 0-2.399-2.925-5.942-6.5s-6.667-6.5-6.942-6.5c-.275 0 2.399 2.925 5.942 6.5M310.75 904.74c3.438.196 9.063.196 12.5 0 3.438-.195.625-.355-6.25-.355s-9.687.16-6.25.355"/><path fill="#b07331" fill-rule="evenodd" d="M667.956 229.25c-6.926 26.243-19.548 47.823-43.341 74.1-26.802 29.598-83.275 62.094-121.237 69.761l-6.121 1.236.498 10.577c.584 12.402-.656 19.556-4.838 27.926-7.521 15.051-25.856 24.341-44.78 22.689-14.332-1.251-29.704-7.849-38.675-16.6-2.221-2.166-4.286-3.939-4.59-3.939-1.211 0-3.203 15.054-3.175 24 .067 22.303 9.461 39.648 26.165 48.314 8.254 4.282 11.697 5.376 21.018 6.682 12.463 1.746 17.12 5.345 17.12 13.232 0 6.049-5.425 10.772-12.373 10.772-4.146 0-4.64 1.153-7.067 16.5-3.534 22.354-4.334 43.562-2.548 67.5 1.908 25.554 5.976 43.925 14.499 65.475 13.514 34.168 18.083 59.511 15.644 86.765-2.265 25.313-7.161 43.076-17.711 64.26-3.561 7.15-9.187 16.768-12.502 21.374-3.315 4.606-5.804 8.597-5.532 8.87.878.877 17.758 4.014 29.09 5.405 16.668 2.047 71.217 1.745 88-.487 51.602-6.863 92.521-22.911 118.458-46.457l6.457-5.862-2.253-2.921c-6.106-7.921-20.238-20.697-34.542-31.229-23.962-17.643-30.529-23.138-37.371-31.267-11.251-13.368-16.154-25.61-18.344-45.803-1.052-9.704-.66-28.235.712-33.727.473-1.89-.572-2.482-10.295-5.833-12.322-4.247-25.377-10.371-31.383-14.722-5.172-3.747-7.212-8.269-5.89-13.056 1.257-4.554 3.899-6.834 8.657-7.472 3.263-.438 5.327.263 13.327 4.527 15.366 8.189 32.804 13.561 54.467 16.777 13.123 1.948 32.059 1.414 40.5-1.142 17.426-5.278 30.207-17.576 38.061-36.624 2.562-6.213 6.932-23.646 8.234-32.851l.495-3.5-13.145-.125c-11.074-.105-14.532-.54-21.952-2.762-20.908-6.261-29.863-14.582-25.265-23.475 1.627-3.145 6.087-6.138 9.146-6.138.921 0 5.133 1.562 9.36 3.47 11.377 5.137 19.652 6.777 32.066 6.357 8.721-.296 11.347-.777 15.5-2.842l5-2.485.702-7c.386-3.85 1.114-12.195 1.618-18.545.967-12.186 2.511-16.815 6.473-19.411 1.239-.812 7.134-2.418 13.101-3.569 17.026-3.286 26.409-7.387 31.939-13.959 5.712-6.788 3.275-12.313-14.261-32.331-20.479-23.376-26.54-32.366-32.105-47.612-5.403-14.804-6.023-21.583-5.731-62.594.2-28.06-.059-38.426-1.076-42.979-1.878-8.415-7.089-18.869-14.276-28.648-6.219-8.459-29.788-32.852-31.743-32.852-.585 0-1.569 1.912-2.185 4.25m4.105 97.837c-18.631 2.411-41.173 13.302-55.369 26.75-9.866 9.346-11.72 16.33-5.946 22.401 5.105 5.367 11.389 4.627 18.152-2.136 15.531-15.531 33.497-24.091 53.911-25.686 12.08-.944 12.191-1.031 12.191-9.517 0-3.867-.455-7.881-1.012-8.921-1.934-3.614-9.071-4.555-21.927-2.891m-8.829 54.371c-1.607 1.352-4.21 5.29-5.786 8.75-2.584 5.678-2.868 7.365-2.905 17.292-.048 12.891 1.525 19.412 5.687 23.574 2.401 2.402 3.763 2.925 7.599 2.922 9.505-.007 14.43-6.191 16.528-20.752 1.872-12.997-1.739-28.598-7.564-32.678-3.496-2.448-10.106-2.013-13.559.892"/><path fill="#ea1f11" fill-rule="evenodd" d="M389.044 298.577c-13.031 5.653-18.528 19.512-12.661 31.923 4.371 9.246 11.186 13.5 21.625 13.5 17.563 0 28.971-17.764 21.59-33.617-5.091-10.933-19.622-16.548-30.554-11.806"/><path fill="#ff6400" fill-rule="evenodd" d="M392 209.887c-21.56 6.998-30.751 33.617-19.549 56.613 4.947 10.154 6.509 11.846 9.785 10.6 5.244-1.993 16.945-2.369 23.764-.762l6.5 1.531 3.314-3.185c4.16-3.997 9.879-15.512 11.174-22.5 2.827-15.25-5.76-34.061-18.29-40.068-4.829-2.316-13.051-3.413-16.698-2.229m-80.5 58.004c-5.853 1.58-10.332 3.963-14.454 7.687-5.859 5.293-7.389 8.719-7.282 16.303.326 23.016 27.482 39.622 55.569 33.981 5.745-1.154 5.998-1.412 5.727-5.862-.194-3.179 2.418-14.493 4.524-19.593.887-2.149 2.716-5.369 4.064-7.155l2.451-3.248-3.103-4.51c-3.754-5.457-11.481-11.453-19.47-15.111-4.861-2.225-7.609-2.759-15.468-3.004-5.257-.164-10.908.066-12.558.512m149 1.066c-8.872 2.916-17.918 9.089-25.371 17.313l-2.371 2.616 4.037 6.044c4.946 7.407 7.227 14.028 8.065 23.41l.64 7.16 5.5 1.154c3.025.634 7.341 1.197 9.59 1.25 5.785.136 18.904-3.418 24.324-6.59 10.808-6.325 18.952-17.097 20.466-27.07 1.491-9.828-4.579-19.918-14.592-24.256-7.557-3.273-21.973-3.763-30.288-1.031m-109.384 77.004c-17.673 5.983-31.204 24.924-31.301 43.817-.031 6.057.443 8.237 2.824 12.99 3.431 6.848 7.036 9.211 15.183 9.95 11.808 1.07 23.615-3.453 33.744-12.929 7.512-7.027 11.591-13.772 13.822-22.853 2.539-10.339 2.636-10.124-6.138-13.715-8.657-3.544-13.652-7.258-19.197-14.273l-3.749-4.743-5.188 1.756m84.823 1.653c-3.384 6.322-15.085 14.56-24.815 17.469l-4.377 1.309.606 6.554c1.293 13.989 12.113 28.699 26.262 35.703 5.768 2.855 8.652 3.627 15.234 4.078 10.236.702 15.624-1.125 20.655-7.003 4.484-5.239 5.827-10.287 5.279-19.844-.886-15.444-10.748-29.733-25.667-37.189-8.832-4.414-11.284-4.615-13.177-1.077"/></svg>