<svg xmlns="http://www.w3.org/2000/svg" width="1024" height="1024"><path fill="#e8af1e" fill-rule="evenodd" d="M450.818 738.75c-6.855 7.107-9.203 11.412-13.306 24.402-2.722 8.615-3.256 20.174-1.596 34.492 1.495 12.888 9.625 27.887 20.79 38.356 9.077 8.511 15.832 13.202 22.977 15.954 3.199 1.233 6.717 2.598 7.817 3.033 5.806 2.301 11.537 3.011 24.116 2.988 11.185-.019 15.05-.414 19.884-2.029 11.378-3.801 19.798-8.042 28.559-14.386 9.244-6.692 20.583-22.188 24.108-32.943 2.108-6.432 2.331-8.899 2.308-25.617-.027-20.421-.375-22.185-6.421-32.53-4.056-6.942-14.464-17.033-18.651-18.084-1.403-.352-3.642-.142-4.977.466-2.002.912-2.426 1.832-2.426 5.267 0 2.289.858 6.011 1.907 8.271 5.564 11.989 6.37 15.068 6.866 26.213.372 8.375.063 13.044-1.256 19-2.257 10.188-4.055 13.559-11.213 21.024-13.271 13.841-34.566 19.622-53.304 14.471-8.209-2.257-11.029-3.589-18.616-8.794-5.361-3.679-7.659-5.904-12.705-12.304-1.388-1.759-4.017-7.841-5.836-13.5-2.131-6.628-1.581-24.807.98-32.386 1.187-3.512 2.548-6.887 3.026-7.5 1.455-1.869 4.151-10.799 4.151-13.753 0-3.649-3.523-6.861-7.524-6.861-2.576 0-4.33 1.225-9.658 6.75"/><path fill="#cfa876" fill-rule="evenodd" d="M445.173 665.269c-9.473 3.031-17.581 15.407-25.047 38.231-7.927 24.235-10.532 43.247-6.866 50.129 1.39 2.61 4.566 5.141 5.201 4.145.095-.151 2.339-4.693 4.986-10.094 3.764-7.682 6.525-11.631 12.682-18.135 4.329-4.573 7.871-8.592 7.871-8.93 0-.338-.839-.615-1.865-.615-3.119 0-7.135-3.856-7.135-6.85 0-6.723 7.35-11.093 18.712-11.128 10.055-.031 16.756 2.632 22.752 9.043 6.393 6.835 8.794 12.621 9.308 22.435.494 9.43-.834 15.55-6.66 30.686-2.31 6.003-4.112 12.41-4.112 14.622v3.937l18.088.731c9.948.403 25.974.403 35.613.002l17.526-.731-.464-5.123c-.254-2.818-2.111-9.292-4.126-14.386-4.839-12.235-5.958-17.916-5.444-27.647.739-14.014 7.335-25.2 18.003-30.531 5.169-2.583 7.273-3.06 13.496-3.06 4.055 0 8.82.612 10.59 1.36 4.387 1.854 8.718 6.425 8.718 9.2 0 2.948-4.613 8.44-7.089 8.44-2.809 0-2.401.816 2.616 5.233 5.987 5.27 12.697 14.806 17.056 24.24 2.001 4.331 4.053 7.492 4.727 7.281 2.087-.654 4.687-7.105 4.688-11.634.004-10.153-9.863-45.532-16.758-60.087-4.195-8.855-11.524-17.006-18.051-20.074-4.194-1.971-5.774-2.139-15.676-1.661-6.057.292-18.213 1.289-27.013 2.215-17.797 1.873-35.532 1.557-56-.999-13.668-1.706-25.463-1.802-30.327-.245"/><path fill-rule="evenodd" d="M223.5 192.853c-10.668 3.487-25.467 21.949-34.628 43.199-8.968 20.801-12.331 37.802-12.253 61.948.06 18.867 1.814 30.385 7.003 46 7.546 22.706 22.791 44.461 41.34 58.992l8.287 6.492-3.375.719c-1.856.396-8.154 1.635-13.997 2.754-13.673 2.618-23.921 6.034-36.377 12.125-18.081 8.842-26.5 17.059-26.5 25.865 0 24.878 32.268 61.798 69.5 79.521 19.441 9.254 36.34 13.257 62.971 14.914l17.971 1.118 2.214 8.43c4.737 18.047 12.64 36.338 25.522 59.07 3.584 6.325 9.825 17.35 13.869 24.5 15.514 27.43 26.889 56.734 37.458 96.5 7.642 28.755 9.97 34.576 15.917 39.797 3.447 3.027 11.7 6.203 16.116 6.203 2.018 0 2.223.634 2.84 8.812.784 10.383 4.501 25.032 8.229 32.428 12.424 24.647 34.239 41.864 62.707 49.491 8.72 2.337 34.534 2.355 44.215.032 9.372-2.249 18.95-5.921 25.559-9.8 28.879-16.95 44.358-40.944 46.588-72.213.583-8.18.768-8.75 2.839-8.75 1.219 0 5.314-1.561 9.101-3.468 10.436-5.258 12.542-9.243 19.405-36.726C647.59 694.481 659.02 666.218 682.046 627c16.88-28.751 30.382-58.835 33.998-75.75l1.122-5.25h6.811c16.774 0 40.481-3.83 56.435-9.117 35.798-11.864 69.925-39.944 84.237-69.31 3.69-7.571 4.351-9.859 4.351-15.055 0-5.083-.509-6.928-2.986-10.835-7.479-11.793-41.281-26.708-67.926-29.971l-10.412-1.275 6.912-5.398c26.928-21.029 43.973-48.961 50.086-82.078 2.444-13.244 2.405-41.097-.076-53.461-7.997-39.852-32.68-77.677-50.544-77.456-4.435.055-10.543 2.184-13.223 4.609-4.049 3.664-5.04 7.321-5.9 21.771-1.223 20.554-3.927 31.679-11.214 46.147-10.121 20.093-32.304 38.675-57.717 48.346-11.741 4.469-29.459 8.418-49.774 11.095-7.741 1.02-8.463.956-11.202-.995-4.391-3.126-12.94-6.678-22.228-9.234L614.5 311.5h-205l-9.852 2.718c-5.419 1.495-13.191 4.519-17.271 6.72l-7.417 4.001-8.23-1.02c-42.834-5.309-69.386-16.063-90.311-36.577-17.543-17.198-26.834-39.174-28.041-66.327-.633-14.25-2.245-20.592-6.155-24.217-4.505-4.178-12.717-5.908-18.723-3.945m-1.644 35.455c-3.733 4.686-11.253 18.933-14.301 27.092-7.152 19.142-8.868 43.882-4.654 67.1 1.198 6.6 2.682 13.35 3.297 15 2.39 6.411 12.196 25.236 15.497 29.749 6.41 8.763 19.208 18.864 35.519 28.033 23.661 13.301 36.615 18.404 57.563 22.673 15.357 3.129 13.659 3.997 21.93-11.207 3.964-7.286 9.434-17.973 12.156-23.748 4.793-10.167 13.735-33.822 12.999-34.387-.199-.152-5.987-.803-12.862-1.446-6.875-.643-15.875-2.1-20-3.238-4.125-1.139-9.525-2.548-12-3.132-11.886-2.804-34.287-15.1-48-26.346-11.973-9.82-22.341-21.385-27.771-30.977-9.397-16.598-13.391-28.972-15.569-48.23l-1.16-10.256-2.644 3.32m575.407 7.841c-5.397 47.949-38.741 86.068-90.325 103.259-12.803 4.267-27.413 7.28-39.738 8.196-7.973.592-9.21.919-8.666 2.293.348.882 1.998 5.653 3.666 10.603 4.423 13.13 9.888 24.919 20.048 43.25 10.398 18.758 8.165 17.502 25.251 14.204 14.416-2.782 26.719-6.928 41.001-13.819 41.467-20.006 63.724-46.123 71.698-84.135 2.665-12.705 2.108-40.265-1.054-52.16-4.011-15.09-11.215-30.453-18.379-39.191l-2.338-2.851-1.164 10.351m-386.911 100.95c-16.886 1.603-21.514 5.807-26.32 23.901-4.324 16.283-17.557 44.236-33.612 71-25.798 43.008-32.098 72.552-23.774 111.5 3.997 18.704 15.291 43.853 32.782 73 15.89 26.48 30.331 59.818 35.029 80.868.352 1.577.784 2.702.959 2.5.175-.202 2.454-5.768 5.064-12.368 16.179-40.915 35.123-52.008 78.52-45.978 20.164 2.802 33.948 2.945 50.5.522 23.267-3.405 33.358-3.677 43.336-1.167 16.166 4.067 24.467 10.512 33.645 26.123 4.684 7.968 10.883 23.022 12.043 29.25.384 2.063 1.006 3.75 1.381 3.75.376 0 1.96-3.937 3.52-8.75 7.804-24.063 21.003-51.812 36.745-77.25 9.418-15.218 20.66-37.003 25.802-50 8.081-20.425 12.682-45.343 11.448-62-1.726-23.285-10.21-46.963-24.336-67.917-16.423-24.362-31.629-55.471-38.97-79.729-3.157-10.433-6.738-14.12-16.114-16.595-4.068-1.074-196.843-1.687-207.648-.66M250 428.05c-1.925.464-10.484 2.197-19.019 3.851-32.49 6.295-55.532 16.783-53.619 24.404 1.337 5.328 12.639 20.455 22.254 29.788 17.534 17.017 37.663 28.585 59.09 33.959 10.37 2.6 13.498 2.948 26.525 2.948H300l.006-8.25c.003-4.538.29-11.894.636-16.347l.631-8.096-6.887-5.534c-11.464-9.211-22.463-13.527-41.374-16.235-11.593-1.661-15.311-3.539-15.839-8.001-.41-3.459 3.67-8 8.669-9.65 4.308-1.422 17.503-.63 25.942 1.557 8.069 2.091 18.717 6.704 27.61 11.962l7.318 4.326 2.264-6.616c1.245-3.639 3.589-9.249 5.209-12.467 1.62-3.218 2.74-6.057 2.489-6.308-.252-.252-4.411-1.098-9.244-1.88-11.696-1.893-25.373-5.484-39.673-10.414-12.487-4.306-12.392-4.29-17.757-2.997m499 4.086c-10.049 3.938-19.172 6.295-36.396 9.399-4.342.782-8.085 1.612-8.317 1.844-.232.232.676 2.604 2.018 5.272 1.341 2.667 3.469 7.774 4.729 11.349 1.259 3.575 2.614 6.874 3.01 7.332.396.458 4.306-1.252 8.69-3.799 21.539-12.515 42.459-16.522 55.693-10.668 4.672 2.066 6.168 4.626 5.128 8.773-.855 3.405-5.284 5.074-19.715 7.428-18.707 3.052-29.413 7.826-39.34 17.543l-4 3.915v32.689l16-.483c12.249-.37 17.989-1.012 24.484-2.737 16.614-4.413 34.591-13.013 48.018-22.969 14.334-10.63 32.981-32.688 34.639-40.977.552-2.761.219-3.601-2.247-5.665-10.552-8.836-50.755-20.861-73.394-21.952-8.058-.389-9.046-.196-19 3.706m-357.5 60.523c-10.334 5.438-16.214 18.416-15.261 33.684.809 12.975 5.703 21.816 13.888 25.091 9.731 3.894 18.606-.257 24.016-11.234 2.059-4.176 2.32-6.15 2.337-17.7.022-14.346-.859-18.158-5.588-24.182-5.197-6.62-13.154-8.942-19.392-5.659m224.683-.449c-3.481 1.173-8.697 6.865-11.72 12.79-2.245 4.401-3.011 15.482-1.667 24.117 2.407 15.461 8.886 22.883 19.977 22.883 5.498 0 6.283-.297 10.423-3.941 6.489-5.713 10.804-16.305 10.804-26.525 0-11.191-3.945-20.325-11.585-26.823-3.78-3.215-10.87-4.308-16.232-2.501m-171.01 173.059c-9.473 3.031-17.581 15.407-25.047 38.231-7.927 24.235-10.532 43.247-6.866 50.129 1.39 2.61 4.566 5.141 5.201 4.145.095-.151 2.339-4.693 4.986-10.094 3.764-7.682 6.525-11.631 12.682-18.135 4.329-4.573 7.871-8.592 7.871-8.93 0-.338-.839-.615-1.865-.615-3.119 0-7.135-3.856-7.135-6.85 0-6.723 7.35-11.093 18.712-11.128 10.055-.031 16.756 2.632 22.752 9.043 6.393 6.835 8.794 12.621 9.308 22.435.494 9.43-.834 15.55-6.66 30.686-2.31 6.003-4.112 12.41-4.112 14.622v3.937l18.088.731c9.948.403 25.974.403 35.613.002l17.526-.731-.464-5.123c-.254-2.818-2.111-9.292-4.126-14.386-4.839-12.235-5.958-17.916-5.444-27.647.739-14.014 7.335-25.2 18.003-30.531 5.169-2.583 7.273-3.06 13.496-3.06 4.055 0 8.82.612 10.59 1.36 4.387 1.854 8.718 6.425 8.718 9.2 0 2.948-4.613 8.44-7.089 8.44-2.809 0-2.401.816 2.616 5.233 5.987 5.27 12.697 14.806 17.056 24.24 2.001 4.331 4.053 7.492 4.727 7.281 2.087-.654 4.687-7.105 4.688-11.634.004-10.153-9.863-45.532-16.758-60.087-4.195-8.855-11.524-17.006-18.051-20.074-4.194-1.971-5.774-2.139-15.676-1.661-6.057.292-18.213 1.289-27.013 2.215-17.797 1.873-35.532 1.557-56-.999-13.668-1.706-25.463-1.802-30.327-.245m5.645 73.481c-6.855 7.107-9.203 11.412-13.306 24.402-2.722 8.615-3.256 20.174-1.596 34.492 1.495 12.888 9.625 27.887 20.79 38.356 9.077 8.511 15.832 13.202 22.977 15.954 3.199 1.233 6.717 2.598 7.817 3.033 5.806 2.301 11.537 3.011 24.116 2.988 11.185-.019 15.05-.414 19.884-2.029 11.378-3.801 19.798-8.042 28.559-14.386 9.244-6.692 20.583-22.188 24.108-32.943 2.108-6.432 2.331-8.899 2.308-25.617-.027-20.421-.375-22.185-6.421-32.53-4.056-6.942-14.464-17.033-18.651-18.084-1.403-.352-3.642-.142-4.977.466-2.002.912-2.426 1.832-2.426 5.267 0 2.289.858 6.011 1.907 8.271 5.564 11.989 6.37 15.068 6.866 26.213.372 8.375.063 13.044-1.256 19-2.257 10.188-4.055 13.559-11.213 21.024-13.271 13.841-34.566 19.622-53.304 14.471-8.209-2.257-11.029-3.589-18.616-8.794-5.361-3.679-7.659-5.904-12.705-12.304-1.388-1.759-4.017-7.841-5.836-13.5-2.131-6.628-1.581-24.807.98-32.386 1.187-3.512 2.548-6.887 3.026-7.5 1.455-1.869 4.151-10.799 4.151-13.753 0-3.649-3.523-6.861-7.524-6.861-2.576 0-4.33 1.225-9.658 6.75m34.914 65.053c.972.716 4.682 2.741 8.244 4.5 5.982 2.953 7.243 3.197 16.5 3.197 9.393 0 10.448-.213 16.76-3.38 3.704-1.859 7.159-3.891 7.677-4.515.698-.841-5.769-1.131-25.004-1.12-21.556.013-25.646.235-24.177 1.318"/><path fill="#93461f" fill-rule="evenodd" d="M410.352 337.099c-16.886 1.603-21.514 5.807-26.32 23.901-4.324 16.283-17.557 44.236-33.612 71-25.798 43.008-32.098 72.552-23.774 111.5 3.997 18.704 15.291 43.853 32.782 73 15.89 26.48 30.331 59.818 35.029 80.868.352 1.577.784 2.702.959 2.5.175-.202 2.454-5.768 5.064-12.368 16.179-40.915 35.123-52.008 78.52-45.978 20.164 2.802 33.948 2.945 50.5.522 23.267-3.405 33.358-3.677 43.336-1.167 16.166 4.067 24.467 10.512 33.645 26.123 4.684 7.968 10.883 23.022 12.043 29.25.384 2.063 1.006 3.75 1.381 3.75.376 0 1.96-3.937 3.52-8.75 7.804-24.063 21.003-51.812 36.745-77.25 9.418-15.218 20.66-37.003 25.802-50 8.081-20.425 12.682-45.343 11.448-62-1.726-23.285-10.21-46.963-24.336-67.917-16.423-24.362-31.629-55.471-38.97-79.729-3.157-10.433-6.738-14.12-16.114-16.595-4.068-1.074-196.843-1.687-207.648-.66M250 428.05c-1.925.464-10.484 2.197-19.019 3.851-32.49 6.295-55.532 16.783-53.619 24.404 1.337 5.328 12.639 20.455 22.254 29.788 17.534 17.017 37.663 28.585 59.09 33.959 10.37 2.6 13.498 2.948 26.525 2.948H300l.006-8.25c.003-4.538.29-11.894.636-16.347l.631-8.096-6.887-5.534c-11.464-9.211-22.463-13.527-41.374-16.235-11.593-1.661-15.311-3.539-15.839-8.001-.41-3.459 3.67-8 8.669-9.65 4.308-1.422 17.503-.63 25.942 1.557 8.069 2.091 18.717 6.704 27.61 11.962l7.318 4.326 2.264-6.616c1.245-3.639 3.589-9.249 5.209-12.467 1.62-3.218 2.74-6.057 2.489-6.308-.252-.252-4.411-1.098-9.244-1.88-11.696-1.893-25.373-5.484-39.673-10.414-12.487-4.306-12.392-4.29-17.757-2.997m499 4.086c-10.049 3.938-19.172 6.295-36.396 9.399-4.342.782-8.085 1.612-8.317 1.844-.232.232.676 2.604 2.018 5.272 1.341 2.667 3.469 7.774 4.729 11.349 1.259 3.575 2.614 6.874 3.01 7.332.396.458 4.306-1.252 8.69-3.799 21.539-12.515 42.459-16.522 55.693-10.668 4.672 2.066 6.168 4.626 5.128 8.773-.855 3.405-5.284 5.074-19.715 7.428-18.707 3.052-29.413 7.826-39.34 17.543l-4 3.915v32.689l16-.483c12.249-.37 17.989-1.012 24.484-2.737 16.614-4.413 34.591-13.013 48.018-22.969 14.334-10.63 32.981-32.688 34.639-40.977.552-2.761.219-3.601-2.247-5.665-10.552-8.836-50.755-20.861-73.394-21.952-8.058-.389-9.046-.196-19 3.706m-357.5 60.523c-10.334 5.438-16.214 18.416-15.261 33.684.809 12.975 5.703 21.816 13.888 25.091 9.731 3.894 18.606-.257 24.016-11.234 2.059-4.176 2.32-6.15 2.337-17.7.022-14.346-.859-18.158-5.588-24.182-5.197-6.62-13.154-8.942-19.392-5.659m224.683-.449c-3.481 1.173-8.697 6.865-11.72 12.79-2.245 4.401-3.011 15.482-1.667 24.117 2.407 15.461 8.886 22.883 19.977 22.883 5.498 0 6.283-.297 10.423-3.941 6.489-5.713 10.804-16.305 10.804-26.525 0-11.191-3.945-20.325-11.585-26.823-3.78-3.215-10.87-4.308-16.232-2.501"/><path fill="#ffe4b4" fill-rule="evenodd" d="M219.862 231.5c-13.338 20.184-19.164 39.96-19.148 65 .009 13.737 2.632 33.35 5.484 41 2.39 6.411 12.196 25.236 15.497 29.749 6.41 8.763 19.208 18.864 35.519 28.033 23.661 13.301 36.615 18.404 57.563 22.673 15.357 3.129 13.659 3.997 21.93-11.207 3.964-7.286 9.434-17.973 12.156-23.748 4.793-10.167 13.735-33.822 12.999-34.387-.199-.152-5.987-.803-12.862-1.446-6.875-.643-15.875-2.1-20-3.238-4.125-1.139-9.525-2.548-12-3.132-11.886-2.804-34.287-15.1-48-26.346-11.973-9.82-22.341-21.385-27.771-30.977-9.451-16.694-13.417-29.038-15.575-48.474l-1.166-10.5-4.626 7m577.401 4.649c-5.397 47.949-38.741 86.068-90.325 103.259-12.803 4.267-27.413 7.28-39.738 8.196-7.973.592-9.21.919-8.666 2.293.348.882 1.998 5.653 3.666 10.603 4.423 13.13 9.888 24.919 20.048 43.25 10.398 18.758 8.165 17.502 25.251 14.204 14.439-2.786 26.717-6.928 41.124-13.874 41.248-19.884 63.621-46.166 71.575-84.08 2.665-12.705 2.108-40.265-1.054-52.16-4.011-15.09-11.215-30.453-18.379-39.191l-2.338-2.851-1.164 10.351"/></svg>