<svg xmlns="http://www.w3.org/2000/svg" width="1024" height="1024"><path fill="#cfa876" fill-rule="evenodd" d="M294 342.639c-1.375.202-5.875.847-10 1.434-19.015 2.704-43.875 10.828-63.919 20.886-8.342 4.187-25.267 13.971-26.927 15.567-.775.745 6.655 10.43 13.281 17.312 25.394 26.374 57.5 35.321 88.495 24.661 11.892-4.09 11.881-4.081 12.602-10.384 1.253-10.966 5.575-30.488 8.305-37.521l2.772-7.137-4.322-5.479c-2.377-3.013-6.001-8.739-8.054-12.724-3.998-7.76-4.09-7.81-12.233-6.615m422.201 6.391c-1.815 3.804-5.491 9.315-8.17 12.246l-4.87 5.328 3.377 10.082c3.412 10.187 6.734 25.05 7.938 35.517l.656 5.703 5.605 2.097c13.895 5.199 20.362 6.468 32.763 6.432 14.016-.041 21.096-1.616 33.206-7.389 10.441-4.977 18.585-10.515 26.9-18.294C820.033 394.74 829 383.328 829 381.16c0-1.132-17.436-11.827-27.861-17.09-19.332-9.759-44.92-17.615-67.139-20.614-15.056-2.032-14.016-2.357-17.799 5.574m-32.751 30.911c-.522.517-5.225 2.428-10.45 4.246-9.214 3.206-9.981 3.305-25.5 3.309-15.581.004-16.244-.083-25.306-3.31l-9.305-3.314-2.108 2.814c-8.084 10.794-24.339 21.276-38.781 25.01-7.939 2.052-24.309 2.248-32 .382-7.395-1.794-16.29-5.547-23.168-9.776l-5.669-3.486-7.145 4.173c-14.48 8.457-30.511 12.084-44.66 10.105-17.221-2.409-30.901-9.483-42.515-21.984-7.084-7.626-7.451-7.871-9.876-6.601-4.828 2.53-15.524 5.438-23.467 6.381-12.588 1.495-27.116-.615-40.457-5.873-6.234-2.457-6.096-2.561-9.019 6.746-4.331 13.79-5.41 23.524-5.402 48.737.012 38.937 5.506 71.945 17.869 107.365 7.152 20.491 14.798 35.689 29.999 59.635 10.45 16.461 13.938 24.709 17.096 40.424 5.835 29.032 9.802 39.77 20.716 56.076 6.048 9.035 20.898 24.122 29.31 29.778 20.283 13.636 43.209 20.594 67.888 20.604 39.058.014 76.242-19.906 97.215-52.08 9.218-14.143 14.319-27.245 18.218-46.802 5.017-25.163 7.408-31.56 17.65-47.239 27.141-41.547 40.201-77.395 47.095-129.261 2.277-17.138 2.548-59.523.453-71-1.55-8.49-5.878-24.117-6.993-25.25-.406-.413-1.166-.327-1.688.191M390.5 436.604c-4.711 2.574-7.485 5.495-10.349 10.896-2.382 4.493-2.651 6.065-2.651 15.5 0 9.5.269 11.048 2.828 16.258 1.597 3.253 4.391 6.952 6.422 8.5 3.144 2.399 4.49 2.742 10.75 2.742 6.186 0 7.623-.356 10.603-2.63 4.404-3.358 8.391-10.715 9.966-18.388 2.353-11.464-2.571-25.352-11.278-31.803-3.649-2.705-12.267-3.273-16.291-1.075m226.232.473c-14.777 7.8-17.178 36.73-4.075 49.109 7.206 6.809 18.731 6.442 25.539-.813 6.614-7.047 9.495-21.059 6.466-31.448-4.592-15.75-16.454-22.906-27.93-16.848m-160.06 158.966c-3.191 2.51-4.37 7.859-2.648 12.015.689 1.664 4.003 5.529 7.364 8.589 11.121 10.124 22.543 16.935 33.52 19.987l6.092 1.694v56.848l-4.25-.702c-12.245-2.023-24.908-8.566-34.127-17.633-3.918-3.853-8.2-7.432-9.517-7.953-3.571-1.414-8.89.711-11.18 4.465-3.824 6.272-2.143 10.485 7.89 19.763C465.895 707.985 486.966 716 509.977 716c25.333 0 46.79-8.16 63.114-24 5.919-5.744 7.887-8.349 8.407-11.129 1.359-7.263-5.07-13.715-11.755-11.797-1.604.46-6.207 3.962-10.229 7.783-5.11 4.853-9.83 8.181-15.664 11.043-7.809 3.83-21.428 7.646-22.242 6.231-.2-.347-.398-13.05-.441-28.229l-.077-27.599 6.029-1.676c13.514-3.758 31.307-15.446 39.631-26.035 5.336-6.788.86-16.592-7.575-16.592-3.573 0-4.861.806-12.641 7.912-13.185 12.045-28.011 18.293-39.364 16.591-10.76-1.614-22.372-7.993-33.651-18.485-5.608-5.218-6.986-6.018-10.359-6.018-2.404 0-4.883.781-6.488 2.043"/><path fill="#c97518" fill-rule="evenodd" d="M232.404 184.99c-30.851 3.386-56.829 25.956-77.703 67.51-4.781 9.517-7.701 16.188-7.701 17.591 0 .465 2.679-.724 5.954-2.643 20.626-12.089 48.025-16.82 75.171-12.98 24.025 3.398 50.922 13.039 71.872 25.762l6.497 3.946 2.503-3.312c6.176-8.172 13.037-15.677 18.057-19.751 2.995-2.431 5.586-4.998 5.757-5.704.539-2.224-7.325-19.736-12.157-27.07-19.177-29.109-55.488-46.945-88.25-43.349m539.865.028c-36.268 4.988-69.545 31.32-80.921 64.032l-2.491 7.162 2.322 1.585c5.276 3.604 17.24 16.093 20.552 21.453 3.807 6.161 4.364 6.545 6.231 4.295 3.989-4.805 29.634-16.876 47.937-22.562 40.591-12.611 79.936-9.641 105.526 7.965 2.516 1.732 4.575 2.955 4.575 2.719 0-1.874-6.148-16.093-10.666-24.667-10.21-19.377-26.781-39.331-40.505-48.774-15.666-10.778-34.967-15.628-52.56-13.208M807 274.024c-4.125.386-8.968 1.026-10.763 1.421l-3.263.72 6.113 6.667c14.926 16.28 23.962 37.018 26.98 61.915l1.211 9.989 4.611 2.232c8.015 3.879 18.098 11.107 19.632 14.073 2.286 4.42 1.779 8.891-1.87 16.487-3.685 7.672-13.198 20.763-19.566 26.925-2.247 2.174-4.085 4.718-4.085 5.653 0 3.205-7.136 22.393-12.52 33.667-2.961 6.2-7.941 15.2-11.066 20-5.821 8.942-19.553 24.018-24.914 27.353l-3 1.867 4.688.003c9.83.008 27.099-5.379 40.591-12.663 23.18-12.513 41.67-31.865 53.831-56.339 10.421-20.972 16.189-45.453 17.114-72.638.906-26.614-2.401-43.533-11.053-56.543-14.227-21.394-42.961-33.568-72.671-30.789m-620 1.403c-12.289 2.732-25.717 9.021-32.248 15.105-5.569 5.187-12.452 13.942-15.148 19.266-9.691 19.138-11.211 55.875-3.629 87.702 10.341 43.408 34.675 76.334 69.65 94.242 11.79 6.037 24.337 10.109 33.752 10.953l6.877.616-9.013-8.688c-18.128-17.476-31.303-40.822-40.137-71.126-1.738-5.961-2.871-7.822-7.615-12.5C179.308 400.956 169 384.096 169 377.484c0-7.052 4.152-11.361 19.135-19.862l7.365-4.179.785-8.73c1.104-12.289 4.871-26.21 10.009-36.99 4.707-9.877 14.236-23.467 19.645-28.018 1.822-1.533 3.109-2.991 2.86-3.239-2.476-2.476-32.028-3.21-41.799-1.039"/><path fill="#f19623" fill-rule="evenodd" d="M272.5 157.409c-4.4.735-10.7 2.104-14 3.044-3.3.939-7.012 1.949-8.25 2.244-3.791.904-2.502 2.303 2.122 2.303 2.404 0 8.592 1.073 13.75 2.385 30.339 7.715 53.775 23.548 71.028 47.985 5.322 7.538 11.757 19.616 13.789 25.88.669 2.063 1.52 3.75 1.892 3.75.371 0 3.816-.898 7.655-1.996 3.839-1.098 9.738-2.279 13.109-2.624l6.129-.628 2.718-6.958c3.738-9.571 8.605-17.59 14.77-24.336l5.209-5.699-8.636-8.348C376.024 177.238 352.9 164.924 327 158.846c-11.095-2.604-42.546-3.433-54.5-1.437m429 .172c-26.485 4.638-54.726 18.702-72.75 36.23-4.263 4.144-7.75 7.834-7.75 8.199 0 .364 2.202 3.406 4.893 6.759 5.606 6.985 12.083 18.381 14.696 25.855l1.791 5.124 6.56.613c5.823.543 14.815 2.46 19.06 4.062 1.118.422 2.382-1.535 4.962-7.678 7.051-16.795 23.324-36.982 39.518-49.024C729.168 175.312 755.584 165 770.684 165c1.824 0 3.316-.343 3.316-.761 0-1.077-13.862-4.89-24.381-6.706-11.106-1.917-37.047-1.892-48.119.048"/><path fill-rule="evenodd" d="M289.665 133.627c-.091.069-3.99.379-8.665.687-37.928 2.499-76.224 20.774-105.982 50.575C164.899 195.022 156 204.787 156 205.758c0 .25-1.31 2.108-2.911 4.129-10.982 13.866-27.455 47.444-33.416 68.113-7.617 26.41-9.633 39.444-10.367 67.01-.97 36.427 3.769 63.151 16.12 90.891 18.286 41.074 53.476 73.153 93.17 84.934 5.553 1.648 12.078 3.293 14.5 3.656l4.404.661-.113 15.143-.112 15.144-4.388 3.341c-17.358 13.218-27.57 28.62-33.962 51.22-2.154 7.617-2.4 10.422-2.367 27 .033 17.235.221 19.102 2.748 27.297 6.405 20.771 17.914 36.91 35.038 49.129l6.698 4.779-.771 5.148c-1.578 10.535-.655 33.485 1.754 43.632 7.137 30.06 28.319 56.999 54.297 69.055 9.84 4.566 23.221 7.999 33.678 8.64 9.433.579 24.03-.764 31.171-2.868l3.671-1.081 8.724 9.167c32.817 34.486 84.846 43.573 129.246 22.574 5.121-2.422 12.259-6.464 15.863-8.983 3.603-2.519 6.838-4.447 7.188-4.285.35.163 3.61 1.986 7.243 4.052 15.012 8.534 33.448 13.073 52.894 13.021 19.259-.05 35.028-3.693 51.035-11.79 17.565-8.884 35.239-25.806 42.573-40.761l2.669-5.441 10.611-.589c28.868-1.601 54.127-15.352 72.476-39.453 9.786-12.854 17.268-30.099 20.232-46.631 2.089-11.649 1.862-32.189-.489-44.26-1.832-9.407-5.248-19.825-7.133-21.756-.516-.529 1.013-3.012 3.684-5.983 13.872-15.429 22.231-36.158 23.86-59.17 1.555-21.958-5.822-48.521-18.813-67.745-2.768-4.095-4.121-6.928-3.401-7.118.658-.174 5.596-1.256 10.973-2.405 41.733-8.913 80.556-41.085 100.766-83.502 7.884-16.545 14.051-38.228 17.116-60.173 1.385-9.915 1.754-41.002.618-52-4.653-45.035-22.348-91.038-47.318-123.016-7.457-9.55-19.904-22.218-30.959-31.51-20.912-17.577-46.492-29.971-74.5-36.096-12.089-2.643-43.803-3.71-57.399-1.93-33.359 4.366-65.52 19.769-89.923 43.068l-10.439 9.967-6.427-2.914c-11.783-5.343-17.85-6.48-34.812-6.526-18.643-.051-23.786 1.108-39.202 8.836l-10.701 5.365-10.399-5.213c-13.39-6.712-21.209-8.706-36.458-9.298-13.853-.537-25.254 1.501-37.24 6.656l-6.5 2.795-9-8.389c-12.891-12.016-24.975-20.335-41-28.223-22.932-11.287-40.499-15.802-65.835-16.918-8.159-.36-14.909-.597-15-.527M272.5 157.409c-4.4.735-10.7 2.104-14 3.044-3.3.939-7.012 1.949-8.25 2.244-3.791.904-2.502 2.303 2.122 2.303 2.404 0 8.592 1.073 13.75 2.385 30.339 7.715 53.775 23.548 71.028 47.985 5.322 7.538 11.757 19.616 13.789 25.88.669 2.063 1.52 3.75 1.892 3.75.371 0 3.816-.898 7.655-1.996 3.839-1.098 9.738-2.279 13.109-2.624l6.129-.628 2.718-6.958c3.738-9.571 8.605-17.59 14.77-24.336l5.209-5.699-8.636-8.348C376.024 177.238 352.9 164.924 327 158.846c-11.095-2.604-42.546-3.433-54.5-1.437m429 .172c-26.485 4.638-54.726 18.702-72.75 36.23-4.263 4.144-7.75 7.834-7.75 8.199 0 .364 2.202 3.406 4.893 6.759 5.606 6.985 12.083 18.381 14.696 25.855l1.791 5.124 6.56.613c5.823.543 14.815 2.46 19.06 4.062 1.118.422 2.382-1.535 4.962-7.678 7.051-16.795 23.324-36.982 39.518-49.024C729.168 175.312 755.584 165 770.684 165c1.824 0 3.316-.343 3.316-.761 0-1.077-13.862-4.89-24.381-6.706-11.106-1.917-37.047-1.892-48.119.048M232.404 184.99c-30.851 3.386-56.829 25.956-77.703 67.51-4.781 9.517-7.701 16.188-7.701 17.591 0 .465 2.679-.724 5.954-2.643 20.626-12.089 48.025-16.82 75.171-12.98 24.025 3.398 50.922 13.039 71.872 25.762l6.497 3.946 2.503-3.312c6.176-8.172 13.037-15.677 18.057-19.751 2.995-2.431 5.586-4.998 5.757-5.704.539-2.224-7.325-19.736-12.157-27.07-19.177-29.109-55.488-46.945-88.25-43.349m539.865.028c-36.268 4.988-69.545 31.32-80.921 64.032l-2.491 7.162 2.322 1.585c5.276 3.604 17.24 16.093 20.552 21.453 3.807 6.161 4.364 6.545 6.231 4.295 3.989-4.805 29.634-16.876 47.937-22.562 40.591-12.611 79.936-9.641 105.526 7.965 2.516 1.732 4.575 2.955 4.575 2.719 0-1.874-6.148-16.093-10.666-24.667-10.21-19.377-26.781-39.331-40.505-48.774-15.666-10.778-34.967-15.628-52.56-13.208m-321.512 16.016c-17.914 3.016-33.669 13.479-43.727 29.041-2.212 3.422-4.749 8.742-5.639 11.823-4.719 16.338-5.336 16.919-19.258 18.159-10.936.973-18.02 2.861-26.527 7.069-16.363 8.093-29.09 22.747-33.216 38.242-2.08 7.813-1.782 21.174.631 28.225 5.052 14.767 16.151 25.165 33.246 31.149 5.882 2.059 9.194 2.545 17.733 2.603 12.228.082 18.659-1.517 29.917-7.442 4.079-2.147 8.286-3.903 9.349-3.903 4.264 0 8.474 3.107 11.252 8.302 4.191 7.838 8.832 13.098 15.464 17.527 19.1 12.755 42.786 10.962 59.268-4.487 5.375-5.038 7.788-6.342 11.734-6.342 4.041 0 7.57 1.984 12.516 7.036 5.066 5.174 16.035 10.5 24.714 11.998 18.169 3.136 39.174-7.348 48.763-24.339 6.127-10.856 10.272-11.786 23.135-5.192 24.262 12.439 51.782 8.212 69.528-10.679 26.098-27.782 9.195-73.303-32.08-86.393-4.367-1.385-12.161-2.918-17.32-3.406-13.386-1.266-14.83-2.517-19.083-16.525-4.08-13.44-12.111-23.981-24.673-32.382-9.038-6.046-15.64-8.593-26.316-10.154-15.971-2.335-32.422 1.397-46.03 10.444-11.733 7.8-14.674 7.959-24.501 1.323-15.309-10.338-32.508-14.454-48.88-11.697M807 274.024c-4.125.386-8.968 1.026-10.763 1.421l-3.263.72 6.113 6.667c14.926 16.28 23.962 37.018 26.98 61.915l1.211 9.989 4.611 2.232c8.015 3.879 18.098 11.107 19.632 14.073 2.286 4.42 1.779 8.891-1.87 16.487-3.685 7.672-13.198 20.763-19.566 26.925-2.247 2.174-4.085 4.718-4.085 5.653 0 3.205-7.136 22.393-12.52 33.667-2.961 6.2-7.941 15.2-11.066 20-5.821 8.942-19.553 24.018-24.914 27.353l-3 1.867 4.688.003c9.83.008 27.099-5.379 40.591-12.663 23.18-12.513 41.67-31.865 53.831-56.339 10.421-20.972 16.189-45.453 17.114-72.638.906-26.614-2.401-43.533-11.053-56.543-14.227-21.394-42.961-33.568-72.671-30.789m-620 1.403c-12.289 2.732-25.717 9.021-32.248 15.105-5.569 5.187-12.452 13.942-15.148 19.266-9.691 19.138-11.211 55.875-3.629 87.702 10.341 43.408 34.675 76.334 69.65 94.242 11.79 6.037 24.337 10.109 33.752 10.953l6.877.616-9.013-8.688c-18.128-17.476-31.303-40.822-40.137-71.126-1.738-5.961-2.871-7.822-7.615-12.5C179.308 400.956 169 384.096 169 377.484c0-7.052 4.152-11.361 19.135-19.862l7.365-4.179.785-8.73c1.104-12.289 4.871-26.21 10.009-36.99 4.707-9.877 14.236-23.467 19.645-28.018 1.822-1.533 3.109-2.991 2.86-3.239-2.476-2.476-32.028-3.21-41.799-1.039m64.852 14.434c-14.715 5.914-26.45 22.171-31.862 44.139-.61 2.475-1.332 5.27-1.604 6.211-.395 1.362 1.198.931 7.809-2.114 17.2-7.92 40.208-14.119 60.555-16.316l11.25-1.215.011-4.033c.006-2.218.278-5.645.604-7.615.587-3.554.534-3.618-6.761-8.089-17.825-10.926-31.071-14.557-40.002-10.968m499.648.026c-7.062 2.052-10.31 3.675-20.828 10.4-6.55 4.189-7.736 5.35-7.264 7.11.311 1.156.578 3.903.594 6.103.016 2.2.43 4.633.92 5.407.583.922 4.808 1.88 12.234 2.776 18.72 2.258 40.626 8.168 59.202 15.972 3.222 1.354 6.122 2.199 6.443 1.877.941-.941-3.598-15.404-7.324-23.337-6.438-13.708-15.438-22.8-26.395-26.666-5.484-1.935-10.013-1.843-17.582.358m-464.641 53.635c-20.761 2.832-45.678 10.849-67.039 21.568-8.204 4.117-25.04 13.869-26.691 15.461-.803.774 8.99 13.292 15.011 19.188 12.468 12.208 27.182 20.98 41.86 24.956 8.723 2.363 29.077 2.426 37.5.115 6.414-1.759 16.212-5.311 18.222-6.607.673-.433 1.887-5.493 2.699-11.245 2.085-14.776 6.541-32.42 9.568-37.888.534-.964-.835-3.551-4.208-7.951-2.749-3.588-6.396-9.357-8.104-12.821-3.568-7.234-2.602-6.989-18.818-4.776m429.342 5.508c-1.815 3.804-5.491 9.315-8.17 12.246l-4.87 5.328 3.374 10.072c3.23 9.643 6.625 24.941 7.997 36.035l.645 5.212 5.583 2.088c13.754 5.147 20.362 6.447 32.74 6.443 13.981-.005 20.927-1.555 33.206-7.408 10.441-4.977 18.585-10.515 26.9-18.294 6.436-6.021 15.394-17.425 15.394-19.599 0-1.391-21.238-13.988-32.405-19.221-19.048-8.926-42.302-15.816-62.171-18.421-6.34-.831-12.291-1.486-13.225-1.455-1.093.036-2.876 2.524-4.998 6.974m-32.751 30.911c-.522.517-5.225 2.428-10.45 4.246-9.214 3.206-9.981 3.305-25.5 3.309-15.57.004-16.249-.085-25.271-3.298l-9.27-3.302-2.67 3.302c-4.724 5.843-11.902 12.214-17.64 15.657-24.188 14.511-51.642 14.311-75.817-.553l-5.669-3.486-7.145 4.173c-14.383 8.401-30.107 11.985-44.292 10.098-17.393-2.315-29.174-8.26-41.846-21.118-6.253-6.345-8.999-8.508-10-7.874-.759.481-4.755 1.998-8.88 3.371-16.95 5.644-36.241 4.943-54.649-1.986-3.689-1.388-7.035-2.177-7.435-1.752-1.262 1.337-4.789 13.928-6.594 23.535-2.406 12.81-2.391 51.87.027 70.237 4.623 35.119 12.284 63.843 24.19 90.696 5.154 11.625 11.689 23.308 22.544 40.304 10.095 15.806 13.42 23.941 16.957 41.491 5.738 28.475 9.361 37.93 21.134 55.163 28.737 42.06 84.191 59.81 134.094 42.921 34.803-11.779 61.608-39.064 73.169-74.478 2.167-6.64 5.245-20.171 7.074-31.097 1.81-10.815 6.534-21.029 17.763-38.398 24.539-37.962 37.78-75.266 44.404-125.102 2.181-16.416 2.54-59.367.589-70.577-1.375-7.901-5.988-24.514-7.129-25.673-.406-.413-1.166-.327-1.688.191M390.5 436.604c-4.711 2.574-7.485 5.495-10.349 10.896-2.382 4.493-2.651 6.065-2.651 15.5 0 9.5.269 11.048 2.828 16.258 3.926 7.996 8.219 11.071 16.042 11.493 4.985.268 6.877-.103 10.13-1.988 5.214-3.023 9.924-10.909 11.499-19.256 2.259-11.975-2.445-25.335-11.208-31.828-3.649-2.705-12.267-3.273-16.291-1.075m226.232.473c-14.777 7.8-17.178 36.73-4.075 49.109 7.206 6.809 18.731 6.442 25.539-.813 6.614-7.047 9.495-21.059 6.466-31.448-4.592-15.75-16.454-22.906-27.93-16.848m-384.85 12.599c5.996 11.673 11.325 19.487 19.564 28.685 5.525 6.17 9.559 8.7 8.192 5.139-.316-.825-.239-1.5.172-1.5s1.534-3.053 2.495-6.785c.961-3.731 3.717-11.156 6.123-16.5 2.407-5.343 4.082-9.739 3.724-9.769-.359-.03-3.577-.262-7.152-.516-13.955-.993-24.2-3.248-36.373-8.006-1.453-.568-.722 1.509 3.255 9.252M785.5 443.18c-9.525 3.013-16.153 4.241-28.723 5.321l-7.722.665 2.857 5.667c3.417 6.776 10.088 25.956 10.088 29.005 0 1.189.21 2.162.466 2.162 1.53 0 15.556-15.77 20.013-22.5 5.571-8.413 13.122-22.291 12.429-22.842-.225-.178-4.458.957-9.408 2.522m-484.156 3.059c-9.356 9.91-15.822 23.468-19.275 40.418-2.609 12.81-2.623 15.032-.095 15.835 3.045.966 6.026 5.894 6.026 9.962 0 7.819-4.498 11.475-16 13.006-8.19 1.09-11.083 2.495-12.597 6.117-2.005 4.801-1.741 13.512.596 19.662 2.596 6.829 2.593 12.739-.008 16.045-1.105 1.404-5.042 4.241-8.75 6.303-9.094 5.059-19.832 16.005-24.475 24.95-5.138 9.902-8.748 23.096-9.457 34.561-1.02 16.517 3.043 31.553 12.317 45.582 6.143 9.292 11.886 14.745 21.638 20.543 8.249 4.904 11.742 8.811 11.719 13.104-.01 1.745-.683 7.223-1.497 12.173-5.024 30.582 4.387 59.122 26.224 79.525 8.184 7.647 15.567 12.228 24.979 15.502 15.381 5.349 30.069 5.648 48.311.984 8.189-2.094 11.082-2.46 13.145-1.663 1.455.563 5.204 4.422 8.33 8.576 10.979 14.587 23.989 23.902 42.065 30.115 19.42 6.675 38.641 6.765 58.221.272 9.317-3.089 23.341-10.669 28.239-15.263 9.859-9.246 14.3-9.603 25.812-2.079 16.079 10.51 33.724 15.186 53.688 14.228 14.106-.676 24.357-3.367 37.486-9.84 9.307-4.589 11.62-6.304 20.585-15.264 8.906-8.9 10.653-11.244 14.781-19.831 2.574-5.355 5.686-10.368 6.914-11.139 1.474-.925 6.659-1.588 15.234-1.949 15.617-.657 22.931-2.39 35.5-8.409 8.457-4.05 10.655-5.713 20.018-15.157 8.756-8.83 11.22-12.032 14.705-19.108 2.302-4.675 5.4-12.55 6.885-17.5 2.425-8.087 2.705-10.622 2.765-25 .078-18.695-1.21-25.313-7.527-38.668-5.297-11.199-5.005-13.045 3.539-22.407 11.828-12.959 18.559-26.292 21.619-42.819 1.729-9.337.754-27.842-1.971-37.432-5.947-20.926-20.848-41.714-32.362-45.149-6.775-2.021-9.302-3.727-11.083-7.481-1.895-3.992-1.056-9.265 2.013-12.656 1.426-1.575 1.599-3.196 1.085-10.131-1.279-17.254-9.38-37.122-19.545-47.937l-5.82-6.192-.7 12.436c-2.419 42.964-12.091 85.36-27.174 119.113-6.051 13.542-9.997 20.621-20.246 36.323-8.651 13.254-14.043 23.163-16.101 29.591-.633 1.974-2.451 10.299-4.042 18.5-3.102 15.992-7.191 28.743-12.771 39.828-12.942 25.712-35.353 48.066-61.202 61.049C556.419 765.837 530.707 772 512.452 772c-54.862 0-103.667-30.432-126.011-78.573-5.575-12.011-7.555-18.553-11.955-39.493-1.98-9.424-4.723-19.677-6.094-22.785-1.372-3.107-6.48-11.724-11.35-19.149-29.575-45.086-44.337-91.991-49.089-155.978-.592-7.963-1.203-14.605-1.359-14.761-.155-.156-2.518 2.084-5.25 4.978m155.328 149.804c-3.191 2.51-4.37 7.859-2.648 12.015.689 1.664 4.003 5.529 7.364 8.589 11.121 10.124 22.543 16.935 33.52 19.987l6.092 1.694v56.848l-4.25-.702c-12.398-2.048-24.65-8.447-34.871-18.212-6.679-6.381-8.572-7.662-11.32-7.662-4.694 0-8.276 2.723-9.66 7.344-1.683 5.615-.08 8.758 8.58 16.83 28.269 26.347 73.248 30.941 108.258 11.057 10.209-5.798 22.833-17.997 23.761-22.96 1.359-7.263-5.07-13.715-11.755-11.797-1.604.46-6.207 3.962-10.229 7.783-8.446 8.022-20.239 14.413-30.514 16.534-3.575.738-6.791 1.179-7.147.98-.356-.199-.714-12.884-.795-28.19l-.149-27.828 6.12-1.701c12.62-3.509 26.559-12.236 36.747-23.008 4.567-4.829 5.224-6.045 5.224-9.661 0-7.588-7.691-12.331-14.316-8.828-1.201.635-5.421 4.169-9.378 7.853-12.544 11.68-28.348 17.585-40.371 15.084-10.85-2.256-20.44-7.81-31.598-18.299-5.363-5.04-6.677-5.793-10.116-5.793-2.465 0-4.928.769-6.549 2.043"/><path fill="#ffe3b3" fill-rule="evenodd" d="M450.763 201.033c-22.404 3.772-42.876 20.784-49.299 40.967-5.331 16.752-5.4 16.816-19.331 18.057-18.306 1.629-32.034 7.821-44.176 19.924-11.943 11.905-16.923 23.266-16.945 38.664-.026 17.516 8.329 32.024 23.593 40.969 8.979 5.262 17.978 7.616 29.395 7.689 12.258.078 18.766-1.531 29.917-7.4 4.079-2.147 8.286-3.903 9.349-3.903 4.252 0 8.476 3.11 11.275 8.302C433.38 380.694 448.552 390 466.44 390c13.438 0 23.311-3.897 33.308-13.147C504.714 372.259 507.134 371 511 371c4.149 0 6.472 1.312 12.762 7.206 6.326 5.927 15.599 10.334 24.855 11.813 18.369 2.934 38.566-7.278 48.218-24.38 3.407-6.038 7.972-9.629 12.248-9.635 1.421-.002 5.921 1.752 10 3.899 18.348 9.656 36.596 10.221 54.562 1.689 8.315-3.949 18.029-12.476 22.075-19.378 11.42-19.482 7.076-44.808-10.673-62.214-11.95-11.719-26.606-18.253-44.807-19.975-13.206-1.249-15.067-2.794-18.704-15.525-2.745-9.61-7.463-17.441-15.064-25-11.234-11.172-21.935-16.483-37.702-18.713-15.058-2.129-31.101 1.76-45.002 10.911-11.37 7.484-14.386 7.614-24.131 1.033-15.307-10.336-32.509-14.454-48.874-11.698M301.438 446.128c-9.375 9.95-15.945 23.733-19.404 40.704-2.573 12.628-2.582 14.859-.06 15.66 5.358 1.7 7.734 10.304 4.547 16.467-1.618 3.13-6.876 5.484-14.521 6.501-8.19 1.09-11.083 2.495-12.597 6.117-2.012 4.817-1.746 13.478.597 19.423 2.61 6.621 2.606 12.959-.009 16.284-1.105 1.404-5.042 4.241-8.75 6.303-3.748 2.085-9.89 6.894-13.832 10.831-11.817 11.801-18.904 29.281-20.104 49.582-1.558 26.36 11.673 51.986 33.553 64.985C259.285 703.991 263 708 263 712.087c0 1.614-.721 7.317-1.602 12.674-4.933 29.984 4.604 58.98 25.977 78.973 19.972 18.683 44.399 24.249 73.625 16.777 8.189-2.094 11.082-2.46 13.145-1.663 1.455.563 5.207 4.426 8.336 8.584 15.639 20.778 37.99 32.572 66.536 35.107 18.084 1.606 43.512-5.936 58.353-17.308 16.385-12.555 17.233-12.711 28.572-5.274 8.431 5.53 18.267 9.87 28.642 12.638 5.31 1.416 10.399 1.835 21.916 1.803 18.151-.051 25.808-1.812 41.486-9.541 9.307-4.589 11.62-6.304 20.585-15.264 8.906-8.9 10.653-11.244 14.781-19.831 2.574-5.355 5.686-10.368 6.914-11.139 1.474-.925 6.659-1.588 15.234-1.949 25.3-1.065 40.99-7.959 57.577-25.298 15.875-16.595 24.077-40.667 22.591-66.301-.782-13.492-2.705-21.416-7.823-32.243-5.326-11.263-5.041-12.896 3.998-22.946 16.329-18.155 23.206-37.573 21.849-61.695-.968-17.22-5.854-31.365-15.804-45.759-6.335-9.164-13.578-15.725-19.217-17.407-6.761-2.017-9.301-3.726-11.065-7.443-1.88-3.961-1.436-7.274 1.663-12.428 1.73-2.876 1.927-4.42 1.401-11-1.337-16.716-9.464-36.496-19.409-47.239l-5.761-6.223-1.158 16.404c-2.453 34.728-7.874 62.715-17.706 91.404-8.253 24.083-15.193 38.235-29.422 60-8.662 13.25-14.095 23.229-16.062 29.5-.604 1.925-2.248 9.575-3.653 17-4.392 23.202-10.729 39.466-22.015 56.5-9.64 14.551-25.965 30.199-42.006 40.265-13.852 8.692-33.757 15.737-53.064 18.781-12.582 1.984-33.657 1.514-46.414-1.035-42.678-8.527-79.397-37.109-97.533-75.919-5.232-11.196-8.352-21.56-12.369-41.092-3.841-18.677-5.643-23.029-16.24-39.215-19.575-29.902-30.89-55.562-39.371-89.285-5.731-22.788-7.161-32.379-11.24-75.372l-.747-7.872-5.062 5.372"/></svg>