<svg xmlns="http://www.w3.org/2000/svg" width="1024" height="1024"><path fill="#a85716" fill-rule="evenodd" d="M236.75 163.08c-5.113 2.978-6.292 14.558-2.436 23.929 4.318 10.494 13.749 21.205 24.178 27.459 17.808 10.679 43.885 13.883 77.508 9.521 35.348-4.585 57.991-5.031 78.678-1.549 38.628 6.502 70.277 20.317 98.525 43.007 22.083 17.739 34.84 33.977 53.77 68.445 9.458 17.22 19.325 32.07 29.972 45.108 2.47 3.025 4.634 5.703 4.808 5.951.173.248 5.889-5.11 12.702-11.906l12.387-12.357-3.945-4.594c-7.628-8.884-16.123-22.8-26.603-43.582-16.22-32.167-26.767-47.025-47.923-67.512-17.806-17.243-32.766-27.702-53.441-37.363-27.664-12.925-52.57-18.146-86.43-18.118-22.909.019-28.004.635-62 7.492-25.055 5.054-36.516 6.389-48.864 5.694-23.451-1.32-37.925-9.216-46.912-25.59-3.861-7.036-10.101-15.156-11.59-15.085-.349.017-1.422.489-2.384 1.05m167 3.643c1.788.222 4.712.222 6.5 0 1.788-.221.325-.403-3.25-.403s-5.038.182-3.25.403m254.453 246.373-12.297 12.702 5.297 4.981c11.092 10.43 23.099 18.537 46.293 31.257 27.713 15.198 42.547 26.828 59.797 46.881 28.444 33.067 43.814 69.921 47.785 114.583 1.311 14.744.79 27.99-2.222 56.5-2.373 22.453-2.135 44.356.623 57.422 2.388 11.31 7.729 25.628 12.648 33.909 8.384 14.112 23.52 26.199 34.334 27.418 3.951.445 4.781.163 7.491-2.547 5.713-5.713 4.026-9.631-6.976-16.202-6.88-4.109-15.427-14.078-19.906-23.218-4.793-9.779-6.58-16.551-8.122-30.782-1.778-16.418-.268-31.069 7.445-72.22 14.42-76.938-7.871-140.995-67.393-193.667-14.96-13.238-32.181-24.499-57.5-37.601-14.901-7.711-26.157-14.59-31.967-19.536l-3.033-2.583-12.297 12.703M228.5 709l-53.993 54h50l53.993-54 53.993-54h-50L228.5 709m166.945 8c0 17.325.137 24.413.303 15.75.167-8.663.167-22.837 0-31.5-.166-8.663-.303-1.575-.303 15.75m-76.195 35.089L264 807.746v48.752l55.518-55.518 55.518-55.518-.268-24.515-.268-24.515-55.25 55.657m-162 33.653c3.713.192 9.787.192 13.5 0 3.713-.193.675-.35-6.75-.35s-10.463.157-6.75.35m86.093 53.758c.003 4.4.179 6.076.39 3.724.212-2.352.209-5.952-.006-8s-.388-.124-.384 4.276"/><path fill-rule="evenodd" d="M872 136.65c-1.375.26-13.3 4.025-26.5 8.367-38.179 12.559-113.229 36.413-153 48.628-8.245 2.533-12.131 7.613-11.19 14.629.772 5.757 4.619 9.232 13.093 11.83 6.106 1.872 48.429 15.926 52.535 17.446.953.352-16.39 18.371-51.399 53.402-29.201 29.218-53.395 52.657-54.082 52.393-1.177-.451-9.629-12.946-16.131-23.845-1.64-2.75-5.908-11.075-9.484-18.5-13.474-27.981-27.958-48.363-49.75-70.009-31.825-31.611-68.493-51.747-108.304-59.475-36.35-7.056-70.658-6.148-112.788 2.983-24.62 5.337-33.81 6.738-44.5 6.787-14.073.063-22.704-2.614-28.422-8.817-2.291-2.485-3.918-4.919-3.615-5.409.302-.489.152-1.04-.334-1.225-.485-.184-2.525-3.609-4.531-7.61-8.363-16.677-23.572-24.289-36.26-18.146-14.008 6.78-20.522 25.737-15.782 45.921 3.337 14.205 14.383 31.381 25.37 39.446 4.709 3.456 4.865 3.727 3.988 6.904-.502 1.818-1.832 8.221-2.956 14.228-2.644 14.139-4.607 24.518-11.424 60.422-9.635 50.748-11.484 60.367-12.494 65-.54 2.475-1.914 9.675-3.053 16-1.139 6.325-2.941 16-4.004 21.5-1.063 5.5-3.537 18.55-5.498 29-8.099 43.164-10.73 56.993-14.551 76.5-2.209 11.275-4.058 21.175-4.109 22-.145 2.343-12.264 67.921-19.311 104.5-2.438 12.65-5.562 29.075-6.944 36.5-17.838 95.854-17.692 94.975-16.489 99.332.543 1.967 2.158 4.497 3.588 5.623 2.518 1.98 3.828 2.045 41.288 2.045h38.687l9.428 10.071 9.428 10.071.618 15.179c.339 8.349.677 24.306.75 35.461.142 21.751.828 25.491 5.249 28.587 4.329 3.033 8.117 2.51 79.383-10.952 33.025-6.238 53.098-9.978 72.5-13.506 9.075-1.65 20.1-3.68 24.5-4.51 4.4-.83 15.2-2.803 24-4.384 8.8-1.581 23.425-4.293 32.5-6.026 18.595-3.551 46.218-8.711 53-9.902 7.815-1.371 37.996-6.991 84.5-15.734 48.025-9.03 76.753-14.353 90.5-16.769 4.675-.822 18.4-3.351 30.5-5.62 12.1-2.269 30.363-5.585 40.584-7.369l18.585-3.244 4.415 5.528c9.779 12.241 24.679 22.702 37.162 26.089 6.481 1.759 19.012.922 24.805-1.656 5.984-2.663 11.388-7.504 14.737-13.201 2.349-3.996 2.708-5.683 2.683-12.613-.025-6.61-.444-8.695-2.413-12-3.567-5.987-8.919-11.256-14.948-14.715-7.57-4.343-11.592-8.13-14.988-14.114-4.793-8.445-6.252-14.881-6.84-30.171-.633-16.466.195-23.709 6.232-54.5 5.151-26.268 6.486-38.031 6.486-57.145 0-32.747-6.512-61.316-20.367-89.355-11.958-24.198-25.298-42.371-46.806-63.76-20.974-20.857-38.158-33.127-69.6-49.698-17.279-9.107-25.43-13.832-32.058-18.586l-2.331-1.672 45.416-45.642c24.979-25.103 48.753-49.145 52.831-53.426l7.415-7.784 4.854 14.284c2.67 7.856 6.343 18.334 8.163 23.284 1.82 4.95 4.564 12.6 6.098 17 3.461 9.927 6.68 13.5 12.16 13.5 2.423 0 5.214-.866 7.28-2.258 3.694-2.49 3.04-.672 18.074-50.242 3.837-12.65 8.946-29.3 11.355-37 9.823-31.402 28.896-94.409 30.345-100.24 1.462-5.889 1.441-6.501-.39-10.897-1.066-2.561-3.103-5.524-4.526-6.583-2.671-1.99-8.539-2.958-12.913-2.13m-635.25 26.43c-5.113 2.978-6.292 14.558-2.436 23.929 4.318 10.494 13.749 21.205 24.178 27.459 17.808 10.679 43.885 13.883 77.508 9.521 35.348-4.585 57.991-5.031 78.678-1.549 38.628 6.502 70.277 20.317 98.525 43.007 22.083 17.739 34.84 33.977 53.77 68.445 9.458 17.22 19.325 32.07 29.972 45.108 2.47 3.025 4.634 5.703 4.808 5.951.173.248 5.889-5.11 12.702-11.906l12.387-12.357-3.945-4.594c-7.628-8.884-16.123-22.8-26.603-43.582-16.22-32.167-26.767-47.025-47.923-67.512-17.806-17.243-32.766-27.702-53.441-37.363-27.664-12.925-52.57-18.146-86.43-18.118-22.909.019-28.004.635-62 7.492-25.055 5.054-36.516 6.389-48.864 5.694-23.451-1.32-37.925-9.216-46.912-25.59-3.861-7.036-10.101-15.156-11.59-15.085-.349.017-1.422.489-2.384 1.05m627.201-.698c-.278.279-9.944 3.501-21.479 7.161a37317.912 37317.912 0 0 0-90.613 28.885c-13.002 4.165-24.365 7.572-25.25 7.572-4.11 0-.782 1.93 7.641 4.432 47.112 13.993 50.637 15.46 60.258 25.068 7.707 7.697 11.169 14.903 20.539 42.75 4.026 11.962 7.593 21.75 7.929 21.75.335 0 1.175-2.137 1.867-4.75 1.318-4.982 21.39-70.831 33.273-109.157 6.183-19.945 7.526-25.402 5.835-23.711m-602.233 81.289c-.312 2.106-1.746 9.904-3.188 17.329-1.441 7.425-4.404 23.175-6.582 35-2.179 11.825-4.851 25.775-5.939 31-1.087 5.225-2.173 10.625-2.414 12-.999 5.717-17.823 94.777-29.564 156.5-3.348 17.6-6.99 36.95-8.095 43-1.104 6.05-2.634 14.15-3.401 18-.767 3.85-2.356 12.175-3.531 18.5-1.175 6.325-4.107 21.625-6.515 34-2.407 12.375-5.327 27.675-6.488 34a2175.799 2175.799 0 0 1-3.574 19 7825.28 7825.28 0 0 0-8.991 47c-1.394 7.425-2.935 15.525-3.425 18a293.833 293.833 0 0 0-1.509 8.321c-.341 2.102-.841 4.352-1.112 5-.271.648 23.268-22.369 52.309-51.15 29.041-28.782 54.116-53.021 55.722-53.865 2.512-1.319 8.086-1.484 39.705-1.17l36.784.364 116.867-116.756c113.508-113.398 116.813-116.805 114.933-118.5-2.842-2.562-14.38-18.137-22.775-30.744-4.029-6.05-11.649-19.128-16.934-29.061-16.404-30.835-30.931-47.853-55.365-64.859-22.606-15.733-46.293-25.116-76.136-30.158-13.393-2.262-47.351-2.241-63.5.041-16.3 2.303-45.301 3.116-57.557 1.614-8.46-1.037-18.398-3.103-27.051-5.622-1.827-.532-2.183-.104-2.674 3.216m244.295 265.816L241.528 773.974 248.5 781l6.972 7.026 264.764-264.762C665.856 377.644 785 258.154 785 257.728c0-2.234-11.708-12.728-14.201-12.728-.165 0-119.319 119.019-264.786 264.487m152.19-96.391-12.297 12.702 5.297 4.981c11.092 10.43 23.099 18.537 46.293 31.257 27.713 15.198 42.547 26.828 59.797 46.881 28.444 33.067 43.814 69.921 47.785 114.583 1.311 14.744.79 27.99-2.222 56.5-2.373 22.453-2.135 44.356.623 57.422 2.388 11.31 7.729 25.628 12.648 33.909 8.384 14.112 23.52 26.199 34.334 27.418 3.951.445 4.781.163 7.491-2.547 5.713-5.713 4.026-9.631-6.976-16.202-6.88-4.109-15.427-14.078-19.906-23.218-4.793-9.779-6.58-16.551-8.122-30.782-1.778-16.418-.268-31.069 7.445-72.22 14.42-76.938-7.871-140.995-67.393-193.667-14.96-13.238-32.181-24.499-57.5-37.601-14.901-7.711-26.157-14.59-31.967-19.536l-3.033-2.583-12.297 12.703M513.262 558.514l-116.97 117.502-.646 7.643c-.355 4.203-.653 21.637-.661 38.742-.009 17.104-.403 31.71-.876 32.456-.472.747-23.526 24.063-51.231 51.814-40.447 40.517-49.78 50.344-47.374 49.883 1.648-.316 4.796-.796 6.996-1.067 2.2-.27 6.025-.933 8.5-1.473 4.102-.893 59.556-11.253 101.5-18.961a67300.934 67300.934 0 0 0 98-18.139c8.8-1.638 19.375-3.602 23.5-4.364 4.125-.763 18.525-3.432 32-5.932 13.475-2.501 35.75-6.594 49.5-9.097 13.75-2.502 29.5-5.445 35-6.54 5.5-1.095 19.9-3.8 32-6.01 84.866-15.502 106.03-19.508 105.858-20.035-6.804-20.947-8.739-34.245-8.649-59.436.039-11 .768-26.3 1.619-34 3.654-33.039 3.088-49.573-2.481-72.5-12.312-50.69-43.732-91.302-89.847-116.128-24.397-13.134-38.031-22.353-50.739-34.309l-8.028-7.552-116.971 117.503M228.5 709l-53.993 54h50l53.993-54 53.993-54h-50L228.5 709m90.75 43.089L264 807.746v48.752l55.518-55.518 55.518-55.518-.268-24.515-.268-24.515-55.25 55.657"/><path fill="#fba12c" fill-rule="evenodd" d="M863.951 162.382c-.278.279-9.944 3.501-21.479 7.161a37317.912 37317.912 0 0 0-90.613 28.885c-13.002 4.165-24.365 7.572-25.25 7.572-4.11 0-.782 1.93 7.641 4.432 47.112 13.993 50.637 15.46 60.258 25.068 7.707 7.697 11.169 14.903 20.539 42.75 4.026 11.962 7.593 21.75 7.929 21.75.335 0 1.175-2.137 1.867-4.75 1.318-4.982 21.39-70.831 33.273-109.157 6.183-19.945 7.526-25.402 5.835-23.711M506.013 509.487 241.528 773.974 248.5 781l6.972 7.026 264.764-264.762C665.856 377.644 785 258.154 785 257.728c0-2.234-11.708-12.728-14.201-12.728-.165 0-119.319 119.019-264.786 264.487"/></svg>